<svg fill="none" height="22" viewBox="0 0 22 22" width="22" xmlns="http://www.w3.org/2000/svg"><path clipRule="evenodd" d="m21.2205 9.28275-.1764-.36502-.2955-.23074c-.3855-.30201-2.3357.01955-2.8611-.45758-.3724-.34286-.4302-.96079-.5432-1.79512-.2086-1.62261-.342-1.70604-.5949-2.25357-.9182-1.95026-3.4103-3.416858-5.122-3.620661h-4.63751c-3.64803 0-6.629905 2.988391-6.629905 6.635991v7.74065c0 3.641 2.981875 6.6234 6.629905 6.6234h7.61941c3.648 0 6.6116-2.9824 6.6321-6.6234l.0408-5.3615zm-14.14587-3.29909h3.67667c.701 0 1.2698.56969 1.2698 1.26454 0 .69354-.5688 1.26975-1.2698 1.26975h-3.67667c-.70179 0-1.27018-.57621-1.27018-1.26975 0-.69485.56839-1.26454 1.27018-1.26454zm7.47077 10.11894h-7.47077c-.70179 0-1.27018-.5771-1.27018-1.2628 0-.6962.56839-1.2628 1.27018-1.2628h7.47077c.6974 0 1.2628.5671 1.2628 1.2628 0 .6857-.5654 1.2628-1.2628 1.2628z" fill="#000" fillRule="evenodd"/></svg>