<svg fill="none" height="17" viewBox="0 0 24 17" width="24" xmlns="http://www.w3.org/2000/svg"><path d="m9.57326 11.7467 6.05504-3.49996-6.05504-3.5zm13.48664-9.13496c.1517.54834.2567 1.28334.3267 2.21667.0817.93333.1167 1.73833.1167 2.43833l.07.98c0 2.55496-.1867 4.43336-.5134 5.63496-.2916 1.05-.9683 1.7267-2.0183 2.0184-.5483.1516-1.5517.2566-3.0917.3266-1.5166.0817-2.905.1167-4.1883.1167l-1.855.07c-4.88834 0-7.93334-.1867-9.135-.5133-1.05-.2917-1.72667-.9684-2.018337-2.0184-.151667-.5483-.256667-1.2833-.326667-2.2166-.081667-.9334-.116667-1.73836-.116667-2.43836l-.07-.98c0-2.555.186667-4.43333.513334-5.635.291667-1.05.968337-1.726662 2.018337-2.018328.54833-.151667 1.55166-.256667 3.09166-.326667 1.51667-.081667 2.905-.116667 4.18834-.116667l1.855-.0699999c4.8883 0 7.9333.1866669 9.135.5133339 1.05.291666 1.7267.968328 2.0183 2.018328z" fill="#000"/></svg>