<svg width="20" height="20" viewBox="0 0 20 20" fill="none" xmlns="http://www.w3.org/2000/svg">
<mask id="mask0_2101_2645" style="mask-type:alpha" maskUnits="userSpaceOnUse" x="0" y="0" width="20" height="20">
<rect width="20" height="20" fill="#D9D9D9"/>
</mask>
<g mask="url(#mask0_2101_2645)">
<path d="M6.5586 18.446C6.12793 18.446 5.75993 18.2932 5.4546 17.9875C5.14893 17.6822 4.9961 17.3212 4.9961 16.9045C4.9961 16.4738 5.14893 16.1057 5.4546 15.8C5.75993 15.4947 6.12093 15.342 6.5376 15.342C6.96826 15.342 7.33643 15.4947 7.6421 15.8C7.94743 16.1057 8.1001 16.4738 8.1001 16.9045C8.1001 17.3348 7.94743 17.6993 7.6421 17.998C7.33643 18.2967 6.97526 18.446 6.5586 18.446ZM14.8921 18.446C14.4614 18.446 14.0933 18.2932 13.7876 17.9875C13.4823 17.6822 13.3296 17.3212 13.3296 16.9045C13.3296 16.4738 13.4823 16.1057 13.7876 15.8C14.0933 15.4947 14.4544 15.342 14.8711 15.342C15.3018 15.342 15.6698 15.4947 15.9751 15.8C16.2808 16.1057 16.4336 16.4738 16.4336 16.9045C16.4336 17.3348 16.2808 17.6993 15.9751 17.998C15.6698 18.2967 15.3088 18.446 14.8921 18.446ZM5.6001 4.842L7.7876 9.4045H13.7251L16.2251 4.842H5.6001ZM4.9126 3.446H17.1836C17.6143 3.446 17.8921 3.58484 18.0171 3.8625C18.1421 4.1405 18.1143 4.43917 17.9336 4.7585L15.0586 9.9045C14.9196 10.1545 14.7251 10.3628 14.4751 10.5295C14.2251 10.6962 13.9474 10.7795 13.6421 10.7795H7.3711L6.2876 12.7795H16.4336V14.175H6.4126C5.8156 14.175 5.3781 13.9528 5.1001 13.5085C4.82243 13.0642 4.82243 12.592 5.1001 12.092L6.3501 9.7795L3.2461 3.196H1.6001V1.8H4.1421L4.9126 3.446Z" fill="black"/>
</g>
</svg>
