<svg fill="none" height="20" viewBox="0 0 20 20" width="20" xmlns="http://www.w3.org/2000/svg" xmlns:xlink="http://www.w3.org/1999/xlink"><mask id="a" height="20" maskUnits="userSpaceOnUse" width="20" x="0" y="0" mask-type="alpha"><path d="m0 0h20v20h-20z" fill="#d9d9d9"/></mask><g mask="url(#a)"><path d="m14.9665 11.7333v-2.49996h-2.5v-1.66667h2.5v-2.5h1.6666v2.5h2.5v1.66667h-2.5v2.49996zm-7.50003-1.6666c-.91667 0-1.70139-.32642-2.35416-.9792-.65278-.65278-.97917-1.4375-.97917-2.35416 0-.91667.32639-1.70139.97917-2.35417.65277-.65278 1.43749-.97917 2.35416-.97917s1.70139.32639 2.35417.97917c.65276.65278.97916 1.4375.97916 2.35417 0 .91666-.3264 1.70138-.97916 2.35416-.65278.65278-1.4375.9792-2.35417.9792zm-6.666665 6.6666v-2.3333c0-.4722.121666-.9064.364995-1.3025.24278-.3956.56556-.6975.96834-.9058.86111-.4306 1.73611-.7536 2.625-.9692.88889-.215 1.79166-.3225 2.70833-.3225s1.81945.1075 2.70833.3225c.8889.2156 1.7639.5386 2.625.9692.4028.2083.7256.5102.9683.9058.2434.3961.365.8303.365 1.3025v2.3333zm1.666665-1.6666h10.00003v-.6667c0-.1528-.0381-.2917-.1142-.4167-.0767-.125-.1775-.2222-.3025-.2916-.75-.375-1.5069-.6564-2.27083-.8442-.76389-.1872-1.53472-.2808-2.3125-.2808s-1.54861.0936-2.3125.2808c-.76389.1878-1.52083.4692-2.27083.8442-.125.0694-.22556.1666-.30167.2916-.07667.125-.115.2639-.115.4167zm5-6.6667c.45834 0 .85084-.16333 1.1775-.49.32611-.32611.48917-.71833.48917-1.17666 0-.45834-.16306-.85056-.48917-1.17667-.32666-.32667-.71916-.49-1.1775-.49-.45833 0-.85055.16333-1.17667.49-.32666.32611-.49.71833-.49 1.17667 0 .45833.16334.85055.49 1.17666.32612.32667.71834.49 1.17667.49z" fill="#878787"/></g></svg>