<svg fill="none" height="20" viewBox="0 0 20 20" width="20" xmlns="http://www.w3.org/2000/svg" xmlns:xlink="http://www.w3.org/1999/xlink"><mask id="a" height="20" maskUnits="userSpaceOnUse" width="20" x="0" y="0" mask-type="alpha"><path d="m0 0h20v20h-20z" fill="#d9d9d9"/></mask><g mask="url(#a)"><path d="m9.88949 17.8207-1.20834-1.0833c-1.40278-1.2639-2.5625-2.3542-3.47916-3.2709-.91667-.9166-1.64584-1.7397-2.1875-2.4691-.54167-.7289-.92-1.39893-1.135-2.01004-.21556-.61111-.32334-1.23611-.32334-1.875 0-1.30555.4375-2.39583 1.3125-3.27083s1.96528-1.3125 3.27084-1.3125c.72222 0 1.40972.15278 2.0625.45833.65277.30556 1.21527.73612 1.6875 1.29167.47221-.55555 1.03471-.98611 1.68751-1.29167.6528-.30555 1.3403-.45833 2.0625-.45833 1.3055 0 2.3958.4375 3.2708 1.3125s1.3125 1.96528 1.3125 3.27083c0 .63889-.1075 1.26389-.3225 1.875-.2155.61111-.5941 1.28114-1.1358 2.01004-.5417.7294-1.2708 1.5525-2.1875 2.4691-.9167.9167-2.0764 2.007-3.4792 3.2709zm0-2.25c1.33331-1.1944 2.43051-2.2189 3.29171-3.0733.8611-.8539 1.5416-1.5967 2.0416-2.2284.5-.63219.8472-1.19497 1.0417-1.6883.1944-.49278.2917-.98223.2917-1.46834 0-.83333-.2778-1.52777-.8334-2.08333-.5555-.55555-1.25-.83333-2.0833-.83333-.6528 0-1.257.18389-1.8125.55166-.5556.36834-.9375.83723-1.1458 1.40667h-1.58338c-.20833-.56944-.59028-1.03833-1.14583-1.40667-.55556-.36777-1.15973-.55166-1.8125-.55166-.83334 0-1.52778.27778-2.08334.83333-.55555.55556-.83333 1.25-.83333 2.08333 0 .48611.09722.97556.29167 1.46834.19444.49333.54166 1.05611 1.04166 1.6883.5.6317 1.18056 1.3745 2.04167 2.2284.86111.8544 1.95833 1.8789 3.29167 3.0733z" fill="#878787"/></g></svg>