<svg fill="none" height="20" viewBox="0 0 20 20" width="20" xmlns="http://www.w3.org/2000/svg" xmlns:xlink="http://www.w3.org/1999/xlink"><mask id="a" height="20" maskUnits="userSpaceOnUse" width="20" x="0" y="0" mask-type="alpha"><path d="m0 0h20v20h-20z" fill="#d9d9d9"/></mask><g mask="url(#a)"><path d="m9.1001 14.1333h-3.33334c-1.15277 0-2.13527-.4064-2.9475-1.2191-.81277-.8123-1.21916-1.7948-1.21916-2.94753 0-1.15278.40639-2.13556 1.21916-2.94833.81223-.81223 1.79473-1.21834 2.9475-1.21834h3.33334v1.66667h-3.33334c-.69444 0-1.28472.24306-1.77083.72917s-.72917 1.07639-.72917 1.77083c0 .69443.24306 1.28473.72917 1.77083s1.07639.7292 1.77083.7292h3.33334zm-2.5-3.3333v-1.66666h6.6667v1.66666zm4.1667 3.3333v-1.6666h3.3333c.6944 0 1.2847-.2431 1.7708-.7292s.7292-1.0764.7292-1.77083c0-.69444-.2431-1.28472-.7292-1.77083s-1.0764-.72917-1.7708-.72917h-3.3333v-1.66667h3.3333c1.1528 0 2.1356.40611 2.9483 1.21834.8123.81277 1.2184 1.79555 1.2184 2.94833 0 1.15273-.4061 2.13523-1.2184 2.94753-.8127.8127-1.7955 1.2191-2.9483 1.2191z" fill="#878787"/></g></svg>