<svg fill="none" height="20" viewBox="0 0 20 20" width="20" xmlns="http://www.w3.org/2000/svg" xmlns:xlink="http://www.w3.org/1999/xlink"><mask id="a" height="20" maskUnits="userSpaceOnUse" width="20" x="0" y="0" mask-type="alpha"><path d="m0 0h20v20h-20z" fill="#d9d9d9"/></mask><g mask="url(#a)"><path d="m14.8999 18.4667c-.6944 0-1.2847-.2431-1.7708-.7292s-.7292-1.0764-.7292-1.7708c0-.0973.0069-.1981.0208-.3025.0139-.1039.0348-.1975.0625-.2809l-5.87496-3.4166c-.23612.2083-.5.3714-.79167.4891-.29167.1184-.59722.1775-.91667.1775-.69444 0-1.28472-.243-1.77083-.7291s-.72917-1.0764-.72917-1.7709c0-.69441.24306-1.28469.72917-1.7708s1.07639-.72917 1.77083-.72917c.31945 0 .625.05889.91667.17667.29167.11833.55555.28167.79167.49l5.87496-3.41667c-.0277-.08333-.0486-.17694-.0625-.28083-.0139-.10445-.0208-.20528-.0208-.3025 0-.69445.2431-1.28472.7292-1.77083.4861-.48612 1.0764-.72917 1.7708-.72917s1.2847.24305 1.7708.72917c.4861.48611.7292 1.07638.7292 1.77083 0 .69444-.2431 1.28472-.7292 1.77083s-1.0764.72917-1.7708.72917c-.3194 0-.625-.05917-.9167-.1775-.2916-.11778-.5555-.28083-.7916-.48917l-5.87503 3.41667c.02778.08333.04861.17694.0625.28083.01389.10445.02083.20527.02083.30247 0 .0973-.00694.1978-.02083.3017-.01389.1044-.03472.1983-.0625.2817l5.87503 3.4166c.2361-.2083.5-.3716.7916-.49.2917-.1177.5973-.1766.9167-.1766.6944 0 1.2847.243 1.7708.7291s.7292 1.0764.7292 1.7709c0 .6944-.2431 1.2847-.7292 1.7708s-1.0764.7292-1.7708.7292zm0-13.33337c.2361 0 .4339-.07972.5933-.23916.16-.16.24-.35806.24-.59417s-.08-.43417-.24-.59417c-.1594-.15944-.3572-.23916-.5933-.23916s-.4339.07972-.5933.23916c-.16.16-.24.35806-.24.59417s.08.43417.24.59417c.1594.15944.3572.23916.5933.23916zm-10 5.83337c.23611 0 .43417-.08.59417-.24.15944-.1595.23917-.3573.23917-.5934 0-.23608-.07973-.43413-.23917-.59413-.16-.15945-.35806-.23917-.59417-.23917s-.43416.07972-.59416.23917c-.15945.16-.23917.35805-.23917.59413 0 .2361.07972.4339.23917.5934.16.16.35805.24.59416.24zm10 5.8333c.2361 0 .4339-.08.5933-.24.16-.1594.24-.3572.24-.5933s-.08-.4339-.24-.5934c-.1594-.16-.3572-.24-.5933-.24s-.4339.08-.5933.24c-.16.1595-.24.3573-.24.5934s.08.4339.24.5933c.1594.16.3572.24.5933.24z" fill="#878787"/></g></svg>