<svg fill="none" height="20" viewBox="0 0 20 20" width="20" xmlns="http://www.w3.org/2000/svg" xmlns:xlink="http://www.w3.org/1999/xlink"><mask id="a" height="20" maskUnits="userSpaceOnUse" width="20" x="0" y="0" mask-type="alpha"><path d="m0 0h20v20h-20z" fill="#d9d9d9"/></mask><g mask="url(#a)"><path d="m5.00016 18.3333c-.45833 0-.85055-.163-1.17666-.4891-.32667-.3267-.49-.7192-.49-1.1775v-13.33337c0-.45833.16333-.85083.49-1.1775.32611-.32611.71833-.48916 1.17666-.48916h6.66664l5 5v3.33333h-1.6666v-2.5h-4.1667v-4.16667h-5.83334v13.33337h5.00004v1.6666zm10.25004-6.2291.8958.8958-3.2292 3.2083v.875h.875l3.2292-3.2083.875.875-3.5833 3.5833h-2.6459v-2.6458zm2.6458 2.6458-2.6458-2.6458 1.2083-1.2084c.1528-.1527.3472-.2291.5833-.2291s.4306.0764.5834.2291l1.4791 1.4792c.1528.1528.2292.3472.2292.5833s-.0764.4306-.2292.5834z" fill="#1c1b1f"/></g></svg>