<svg fill="none" height="20" viewBox="0 0 20 20" width="20" xmlns="http://www.w3.org/2000/svg" xmlns:xlink="http://www.w3.org/1999/xlink"><mask id="a" height="20" maskUnits="userSpaceOnUse" width="20" x="0" y="0" mask-type="alpha"><path d="m0 0h20v20h-20z" fill="#d9d9d9"/></mask><g mask="url(#a)"><path d="m1.6665 14.1667v-11.62504c0-.19444.09028-.38888.27084-.58333.18055-.19444.36805-.29167.5625-.29167h10.81246c.2084 0 .4028.09375.5834.28125.1805.1875.2708.38542.2708.59375v7.41667c0 .19447-.0903.38887-.2708.58337-.1806.1944-.375.2916-.5834.2916h-8.31246zm4.1875.8333c-.19444 0-.38541-.0972-.57291-.2917-.1875-.1944-.28125-.3889-.28125-.5833v-2.0417h10.41666v-7.0833h2.0833c.1945 0 .382.09722.5625.29166.1806.19445.2709.39584.2709.60417v12.41667l-3.3125-3.3125zm7.0625-12.08334h-10v8.22914l1.5625-1.56247h8.4375z" fill="#000"/></g></svg>