<svg fill="none" height="20" viewBox="0 0 20 20" width="20" xmlns="http://www.w3.org/2000/svg" xmlns:xlink="http://www.w3.org/1999/xlink"><mask id="a" height="20" maskUnits="userSpaceOnUse" width="20" x="0" y="0" mask-type="alpha"><path d="m0 0h20v20h-20z" fill="#d9d9d9"/></mask><g mask="url(#a)"><path d="m9.9751 15.0295c.25 0 .4583-.0833.625-.25s.25-.375.25-.625c0-.2363-.0833-.4413-.25-.615-.1667-.1733-.375-.26-.625-.26s-.45834.0867-.625.26c-.16667.1737-.25.3787-.25.615 0 .25.08333.4583.25.625.16666.1667.375.25.625.25zm-.729-3.0835h1.3335c0-.4027.045-.7465.135-1.0315.0903-.2847.3787-.6353.865-1.052.4027-.361.6977-.71166.885-1.052.1877-.34033.2815-.72566.2815-1.156 0-.75-.2535-1.34033-.7605-1.771-.507-.43066-1.1563-.646-1.948-.646-.70834 0-1.31934.18067-1.833.542-.514.361-.88217.84017-1.1045 1.4375l1.1875.458c.125-.347.33-.63866.615-.875.28466-.236.64916-.354 1.0935-.354.4723 0 .8403.125 1.104.375.264.25.396.5555.396.9165 0 .30567-.0868.587-.2605.844s-.4202.51734-.7395.781c-.4723.43067-.79867.8092-.979 1.1355-.18067.3263-.271.809-.271 1.448zm.6875 6.521c-1.15267 0-2.236-.2153-3.25-.646s-1.89934-1.021-2.656-1.771c-.757-.75-1.35084-1.6318-1.7815-2.6455-.43067-1.014-.646-2.1043-.646-3.271 0-1.16666.21533-2.257.646-3.271.43066-1.01366 1.0245-1.8955 1.7815-2.6455.75666-.75 1.642-1.34033 2.656-1.771 1.014-.43066 2.09733-.646 3.25-.646 1.1527 0 2.236.21534 3.25.646 1.014.43067 1.896 1.021 2.646 1.771s1.3437 1.63184 1.781 2.6455c.4377 1.014.6565 2.10434.6565 3.271 0 1.1667-.2188 2.257-.6565 3.271-.4373 1.0137-1.031 1.8955-1.781 2.6455s-1.632 1.3403-2.646 1.771-2.0973.646-3.25.646zm0-1.396c1.9307 0 3.5695-.6772 4.9165-2.0315 1.3473-1.354 2.021-2.9893 2.021-4.906 0-1.91666-.6737-3.552-2.021-4.906-1.347-1.35433-2.9858-2.0315-4.9165-2.0315-1.93067 0-3.5695.67717-4.9165 2.0315-1.34734 1.354-2.021 2.98934-2.021 4.906 0 1.9167.67366 3.552 2.021 4.906 1.347 1.3543 2.98583 2.0315 4.9165 2.0315z" fill="#000"/></g></svg>