<svg width="20" height="20" viewBox="0 0 20 20" fill="none" xmlns="http://www.w3.org/2000/svg">
<mask id="mask0_719_4227" style="mask-type:alpha" maskUnits="userSpaceOnUse" x="0" y="0" width="20" height="20">
<rect width="20" height="20" fill="#D9D9D9"/>
</mask>
<g mask="url(#mask0_719_4227)">
<path d="M5.00016 16.6667C4.30572 16.6667 3.71544 16.4236 3.22933 15.9375C2.74322 15.4514 2.50016 14.8611 2.50016 14.1667H0.833496V4.99999C0.833496 4.54166 0.996829 4.14944 1.3235 3.82333C1.64961 3.49666 2.04183 3.33333 2.50016 3.33333H14.1668V6.66666H16.6668L19.1668 9.99999V14.1667H17.5002C17.5002 14.8611 17.2571 15.4514 16.771 15.9375C16.2849 16.4236 15.6946 16.6667 15.0002 16.6667C14.3057 16.6667 13.7154 16.4236 13.2293 15.9375C12.7432 15.4514 12.5002 14.8611 12.5002 14.1667H7.50016C7.50016 14.8611 7.25711 15.4514 6.771 15.9375C6.28488 16.4236 5.69461 16.6667 5.00016 16.6667ZM5.00016 15C5.23627 15 5.43433 14.92 5.59433 14.76C5.75377 14.6005 5.8335 14.4028 5.8335 14.1667C5.8335 13.9306 5.75377 13.7328 5.59433 13.5733C5.43433 13.4133 5.23627 13.3333 5.00016 13.3333C4.76405 13.3333 4.566 13.4133 4.406 13.5733C4.24655 13.7328 4.16683 13.9306 4.16683 14.1667C4.16683 14.4028 4.24655 14.6005 4.406 14.76C4.566 14.92 4.76405 15 5.00016 15ZM2.50016 12.5H3.16683C3.40294 12.25 3.67377 12.0486 3.97933 11.8958C4.28488 11.743 4.62516 11.6667 5.00016 11.6667C5.37516 11.6667 5.71544 11.743 6.021 11.8958C6.32655 12.0486 6.59738 12.25 6.8335 12.5H12.5002V4.99999H2.50016V12.5ZM15.0002 15C15.2363 15 15.4341 14.92 15.5935 14.76C15.7535 14.6005 15.8335 14.4028 15.8335 14.1667C15.8335 13.9306 15.7535 13.7328 15.5935 13.5733C15.4341 13.4133 15.2363 13.3333 15.0002 13.3333C14.7641 13.3333 14.5663 13.4133 14.4068 13.5733C14.2468 13.7328 14.1668 13.9306 14.1668 14.1667C14.1668 14.4028 14.2468 14.6005 14.4068 14.76C14.5663 14.92 14.7641 15 15.0002 15ZM14.1668 10.8333H17.7085L15.8335 8.33333H14.1668V10.8333Z" fill="black"/>
</g>
</svg>
