<svg fill="none" height="20" viewBox="0 0 20 20" width="20" xmlns="http://www.w3.org/2000/svg" xmlns:xlink="http://www.w3.org/1999/xlink"><mask id="a" height="20" maskUnits="userSpaceOnUse" width="20" x="0" y="0" mask-type="alpha"><path d="m0 0h20v20h-20z" fill="#d9d9d9"/></mask><g mask="url(#a)"><path d="m10.0002 10c.4583 0 .8508-.16333 1.1775-.49.3261-.32611.4891-.71833.4891-1.17666s-.163-.85083-.4891-1.1775c-.3267-.32611-.7192-.48917-1.1775-.48917-.45837 0-.85059.16306-1.1767.48917-.32667.32667-.49.71917-.49 1.1775s.16333.85055.49 1.17666c.32611.32667.71833.49 1.1767.49zm0 6.125c1.6944-1.5555 2.9514-2.9689 3.7708-4.24.8194-1.2705 1.2292-2.39888 1.2292-3.38499 0-1.51389-.4828-2.75362-1.4484-3.71917-.965-.965-2.1489-1.4475-3.5516-1.4475-1.40282 0-2.58698.4825-3.55254 1.4475-.965.96555-1.4475 2.20528-1.4475 3.71917 0 .98611.40972 2.11449 1.22917 3.38499.81944 1.2711 2.07639 2.6845 3.77087 4.24zm0 2.2083c-2.23615-1.9027-3.90615-3.6702-5.01004-5.3025-1.10444-1.6316-1.65666-3.14191-1.65666-4.53079 0-2.08334.67027-3.74306 2.01083-4.97917 1.34-1.23611 2.89194-1.85417 4.65587-1.85417 1.7639 0 3.3158.61806 4.6558 1.85417 1.3406 1.23611 2.0108 2.89583 2.0108 4.97917 0 1.38888-.5519 2.89919-1.6558 4.53079-1.1044 1.6323-2.7747 3.3998-5.0108 5.3025z" fill="#000"/></g></svg>