<svg fill="none" height="20" viewBox="0 0 20 20" width="20" xmlns="http://www.w3.org/2000/svg" xmlns:xlink="http://www.w3.org/1999/xlink"><mask id="a" height="20" maskUnits="userSpaceOnUse" width="20" x="0" y="0" mask-type="alpha"><path d="m0 0h20v20h-20z" fill="#d9d9d9"/></mask><g mask="url(#a)"><path d="m.799805 2.6h3.916495v1.396h-2.521v2.5205h-1.395495zm14.395495 0h3.917v3.9165h-1.375v-2.5205h-2.542zm2.542 13.604v-2.5205h1.375v3.9165h-3.917v-1.396zm-15.542-2.5205v2.5205h2.521v1.396h-3.916495v-3.9165zm3.521-8.7295h.854v10.271h-.854zm-2.521 0h1.667v10.271h-1.667zm5.042 0h1.708v10.271h-1.708zm5.958 0h.8545v10.271h-.8545zm1.7085 0h.7915v10.271h-.7915zm-5.0835 0h2.5v10.271h-2.5z" fill="#000"/></g></svg>