<svg width="20" height="20" viewBox="0 0 20 20" fill="none" xmlns="http://www.w3.org/2000/svg">
<mask id="mask0_719_4232" style="mask-type:alpha" maskUnits="userSpaceOnUse" x="0" y="0" width="20" height="20">
<rect width="20" height="20" fill="#D9D9D9"/>
</mask>
<g mask="url(#mask0_719_4232)">
<path d="M10.0002 18.3333C8.06961 17.8472 6.476 16.7394 5.21933 15.01C3.96211 13.2811 3.3335 11.3611 3.3335 9.24999V4.16666L10.0002 1.66666L16.6668 4.16666V9.24999C16.6668 11.3611 16.0385 13.2811 14.7818 15.01C13.5246 16.7394 11.9307 17.8472 10.0002 18.3333ZM10.0002 16.5833C11.3474 16.1667 12.4724 15.3439 13.3752 14.115C14.2779 12.8855 14.8057 11.5139 14.9585 9.99999H10.0002V3.43749L5.00016 5.31249V9.62499C5.00016 9.72221 5.01405 9.84721 5.04183 9.99999H10.0002V16.5833Z" fill="black"/>
</g>
</svg>
