<svg width="20" height="20" viewBox="0 0 20 20" fill="none" xmlns="http://www.w3.org/2000/svg">
<mask id="mask0_719_4222" style="mask-type:alpha" maskUnits="userSpaceOnUse" x="0" y="0" width="20" height="20">
<rect width="20" height="20" fill="#D9D9D9"/>
</mask>
<g mask="url(#mask0_719_4222)">
<path d="M8.83333 13.375L14.7083 7.49999L13.5417 6.33333L8.83333 11.0417L6.45833 8.66666L5.29167 9.83333L8.83333 13.375ZM4.16667 17.5C3.70833 17.5 3.31583 17.3369 2.98917 17.0108C2.66306 16.6842 2.5 16.2917 2.5 15.8333V4.16666C2.5 3.70833 2.66306 3.31583 2.98917 2.98916C3.31583 2.66305 3.70833 2.49999 4.16667 2.49999H7.66667C7.84722 1.99999 8.14944 1.59722 8.57333 1.29166C8.99667 0.986106 9.47222 0.833328 10 0.833328C10.5278 0.833328 11.0036 0.986106 11.4275 1.29166C11.8508 1.59722 12.1528 1.99999 12.3333 2.49999H15.8333C16.2917 2.49999 16.6842 2.66305 17.0108 2.98916C17.3369 3.31583 17.5 3.70833 17.5 4.16666V15.8333C17.5 16.2917 17.3369 16.6842 17.0108 17.0108C16.6842 17.3369 16.2917 17.5 15.8333 17.5H4.16667ZM4.16667 15.8333H15.8333V4.16666H4.16667V15.8333ZM10 3.54166C10.1806 3.54166 10.33 3.4825 10.4483 3.36416C10.5661 3.24638 10.625 3.09722 10.625 2.91666C10.625 2.73611 10.5661 2.58666 10.4483 2.46833C10.33 2.35055 10.1806 2.29166 10 2.29166C9.81944 2.29166 9.67028 2.35055 9.5525 2.46833C9.43417 2.58666 9.375 2.73611 9.375 2.91666C9.375 3.09722 9.43417 3.24638 9.5525 3.36416C9.67028 3.4825 9.81944 3.54166 10 3.54166Z" fill="black"/>
</g>
</svg>
