<svg width="20" height="20" viewBox="0 0 20 20" fill="none" xmlns="http://www.w3.org/2000/svg">
<mask id="mask0_719_4242" style="mask-type:alpha" maskUnits="userSpaceOnUse" x="0" y="0" width="20" height="20">
<rect width="20" height="20" fill="#D9D9D9"/>
</mask>
<g mask="url(#mask0_719_4242)">
<path d="M0.833496 16.6667V13.3333C0.833496 12.8611 0.996829 12.4653 1.3235 12.1458C1.64961 11.8264 2.04183 11.6667 2.50016 11.6667H5.22933C5.50711 11.6667 5.771 11.7361 6.021 11.875C6.271 12.0139 6.47238 12.2014 6.62516 12.4375C7.02794 12.9792 7.52461 13.4028 8.11516 13.7083C8.70516 14.0139 9.3335 14.1667 10.0002 14.1667C10.6807 14.1667 11.3163 14.0139 11.9068 13.7083C12.4968 13.4028 12.9863 12.9792 13.3752 12.4375C13.5557 12.2014 13.7674 12.0139 14.0102 11.875C14.2535 11.7361 14.5071 11.6667 14.771 11.6667H17.5002C17.9724 11.6667 18.3682 11.8264 18.6877 12.1458C19.0071 12.4653 19.1668 12.8611 19.1668 13.3333V16.6667H13.3335V14.7708C12.8474 15.1181 12.3232 15.382 11.761 15.5625C11.1982 15.7431 10.6113 15.8333 10.0002 15.8333C9.40294 15.8333 8.81961 15.7397 8.25016 15.5525C7.68072 15.3647 7.15294 15.0972 6.66683 14.75V16.6667H0.833496ZM10.0002 13.3333C9.47238 13.3333 8.97238 13.2117 8.50016 12.9683C8.02794 12.7256 7.63211 12.3889 7.31266 11.9583C7.07655 11.6111 6.78155 11.337 6.42766 11.1358C6.07322 10.9342 5.68766 10.8333 5.271 10.8333C5.57655 10.3195 6.22238 9.91307 7.2085 9.61418C8.19461 9.31584 9.12516 9.16668 10.0002 9.16668C10.8752 9.16668 11.8057 9.31584 12.7918 9.61418C13.7779 9.91307 14.4238 10.3195 14.7293 10.8333C14.3265 10.8333 13.9446 10.9342 13.5835 11.1358C13.2224 11.337 12.9238 11.6111 12.6877 11.9583C12.3821 12.4028 11.9932 12.7431 11.521 12.9792C11.0488 13.2153 10.5418 13.3333 10.0002 13.3333ZM3.3335 10.8333C2.63905 10.8333 2.04877 10.5903 1.56266 10.1042C1.07655 9.61807 0.833496 9.02779 0.833496 8.33334C0.833496 7.62501 1.07655 7.03112 1.56266 6.55168C2.04877 6.07279 2.63905 5.83334 3.3335 5.83334C4.04183 5.83334 4.63572 6.07279 5.11516 6.55168C5.59405 7.03112 5.8335 7.62501 5.8335 8.33334C5.8335 9.02779 5.59405 9.61807 5.11516 10.1042C4.63572 10.5903 4.04183 10.8333 3.3335 10.8333ZM16.6668 10.8333C15.9724 10.8333 15.3821 10.5903 14.896 10.1042C14.4099 9.61807 14.1668 9.02779 14.1668 8.33334C14.1668 7.62501 14.4099 7.03112 14.896 6.55168C15.3821 6.07279 15.9724 5.83334 16.6668 5.83334C17.3752 5.83334 17.969 6.07279 18.4485 6.55168C18.9274 7.03112 19.1668 7.62501 19.1668 8.33334C19.1668 9.02779 18.9274 9.61807 18.4485 10.1042C17.969 10.5903 17.3752 10.8333 16.6668 10.8333ZM10.0002 8.33334C9.30572 8.33334 8.71544 8.09029 8.22933 7.60418C7.74322 7.11807 7.50016 6.52779 7.50016 5.83334C7.50016 5.12501 7.74322 4.53112 8.22933 4.05168C8.71544 3.57279 9.30572 3.33334 10.0002 3.33334C10.7085 3.33334 11.3021 3.57279 11.781 4.05168C12.2604 4.53112 12.5002 5.12501 12.5002 5.83334C12.5002 6.52779 12.2604 7.11807 11.781 7.60418C11.3021 8.09029 10.7085 8.33334 10.0002 8.33334Z" fill="black"/>
</g>
</svg>
