<svg width="20" height="20" viewBox="0 0 20 20" fill="none" xmlns="http://www.w3.org/2000/svg">
<mask id="mask0_719_4237" style="mask-type:alpha" maskUnits="userSpaceOnUse" x="0" y="0" width="20" height="20">
<rect width="20" height="20" fill="#D9D9D9"/>
</mask>
<g mask="url(#mask0_719_4237)">
<path d="M4.13314 6.75416L7.46647 10.0875L6.2998 11.2542L4.96647 9.92083V10.0667C4.96647 11.4555 5.45619 12.6361 6.43564 13.6083C7.41453 14.5805 8.60536 15.0667 10.0081 15.0667C10.3692 15.0667 10.7234 15.025 11.0706 14.9417C11.4179 14.8583 11.7581 14.7333 12.0915 14.5667L13.3415 15.8167C12.8137 16.1222 12.272 16.3514 11.7165 16.5042C11.1609 16.6569 10.5915 16.7333 10.0081 16.7333C8.14703 16.7333 6.56369 16.0875 5.25814 14.7958C3.95258 13.5042 3.2998 11.9278 3.2998 10.0667V9.92083L1.96647 11.2542L0.799805 10.0875L4.13314 6.75416ZM15.7998 13.3792L12.4665 10.0458L13.6331 8.87916L14.9665 10.2125V10.0667C14.9665 8.67777 14.477 7.49722 13.4981 6.52499C12.5187 5.55277 11.3276 5.06666 9.9248 5.06666C9.56369 5.06666 9.20953 5.10833 8.86231 5.19166C8.51508 5.27499 8.1748 5.39999 7.84147 5.56666L6.59147 4.31666C7.11925 4.0111 7.66092 3.78194 8.21647 3.62916C8.77203 3.47638 9.34147 3.39999 9.9248 3.39999C11.7859 3.39999 13.3692 4.04583 14.6748 5.33749C15.9804 6.62916 16.6331 8.20555 16.6331 10.0667V10.2125L17.9665 8.87916L19.1331 10.0458L15.7998 13.3792Z" fill="black"/>
</g>
</svg>
