<svg width="20" height="20" viewBox="0 0 20 20" fill="none" xmlns="http://www.w3.org/2000/svg">
<mask id="mask0_719_4247" style="mask-type:alpha" maskUnits="userSpaceOnUse" x="0" y="0" width="20" height="20">
<rect width="20" height="20" fill="#D9D9D9"/>
</mask>
<g mask="url(#mask0_719_4247)">
<path d="M18.2668 5.06666V15.0667C18.2668 15.525 18.1037 15.9175 17.7776 16.2442C17.4509 16.5703 17.0584 16.7333 16.6001 16.7333H3.26676C2.80843 16.7333 2.41621 16.5703 2.0901 16.2442C1.76343 15.9175 1.6001 15.525 1.6001 15.0667V5.06666C1.6001 4.60833 1.76343 4.2161 2.0901 3.88999C2.41621 3.56333 2.80843 3.39999 3.26676 3.39999H16.6001C17.0584 3.39999 17.4509 3.56333 17.7776 3.88999C18.1037 4.2161 18.2668 4.60833 18.2668 5.06666ZM3.26676 6.73333H16.6001V5.06666H3.26676V6.73333ZM3.26676 10.0667V15.0667H16.6001V10.0667H3.26676Z" fill="black"/>
</g>
</svg>
