<svg fill="none" height="50" viewBox="0 0 138 50" width="138" xmlns="http://www.w3.org/2000/svg"><g fill="#000"><path d="m97.3779 11.3342c-.4783.0037-.9453.1482-1.3423.4154-.3967.2672-.7063.6453-.8899 1.0872s-.2329.928-.1423 1.3978c.0907.4698.3177.9025.6528 1.2442.4609.4487 1.0787.6997 1.7217.6997.6432 0 1.261-.251 1.7219-.6997.4486-.4609.6998-1.0786.6998-1.7218s-.2512-1.261-.6998-1.7219c-.2242-.2279-.4924-.4077-.7886-.5282-.296-.1206-.6137-.1793-.9333-.1727z"/><path d="m91.6032 19.8679v3.3218h3.8703v16.1825h3.8095v-19.5043h-3.8095z"/><path d="m83.4206 22.1229c-.8789-.9598-1.9476-1.7264-3.1387-2.251-1.1908-.5246-2.4779-.7959-3.7792-.7966-2.6677.0876-5.1918 1.2288-7.0196 3.1738-1.828 1.945-2.8105 4.5351-2.7324 7.2031-.0823 2.6588.8905 5.2424 2.7061 7.1864 1.8156 1.9442 4.3268 3.0911 6.9849 3.1905 1.2989-.0029 2.5831-.275 3.7711-.7998 1.1882-.5244 2.2546-1.2899 3.1316-2.2478v2.5905h3.8095v-28.0374h-3.7333zm-6.4303 13.9119c-1.2985.0269-2.5758-.332-3.6705-1.0308-1.0946-.6993-1.9573-1.7071-2.479-2.8964-.5219-1.1894-.6795-2.5069-.4526-3.7856.2267-1.2789.8276-2.4618 1.7267-3.3991.899-.9374 2.0558-1.5871 3.324-1.8671s2.591-.1776 3.8011.2941 2.2531 1.2917 2.9973 2.3562c.7442 1.0644 1.1558 2.3256 1.1833 3.6241.0074.0456.0074.0919 0 .1372.0082 1.7206-.6621 3.3752-1.8659 4.6048-1.2038 1.2293-2.8438 1.9346-4.5644 1.9626z"/><path d="m120.875 22.2449c-.874-.991-1.947-1.7859-3.15-2.3322-1.203-.5462-2.508-.8316-3.829-.8372-2.661.0954-5.176 1.2406-6.995 3.1852-1.819 1.9445-2.794 4.5303-2.711 7.1917-.083 2.6615.892 5.247 2.711 7.1916 1.819 1.9445 4.334 3.0897 6.995 3.1853 1.319-.0059 2.622-.2914 3.822-.8379 1.2-.5461 2.271-1.3409 3.142-2.3316v2.7124c-.07 1.6659-.776 3.2417-1.972 4.4038-1.196 1.1619-2.791 1.8217-4.459 1.8436-1.163-.0105-2.302-.3362-3.295-.9425-.992-.6065-1.802-1.471-2.343-2.5013l-3.047 2.1943c.894 1.5327 2.172 2.8057 3.709 3.6929 1.537.8875 3.278 1.3583 5.053 1.3659 2.67-.0226 5.228-1.0802 7.135-2.9501s3.014-4.4066 3.089-7.0762v-19.5347h-3.855zm-6.43 13.7901c-1.299.0269-2.576-.332-3.671-1.031-1.095-.6991-1.957-1.7071-2.479-2.8962-.522-1.1893-.68-2.5069-.453-3.7857s.828-2.4617 1.727-3.399c.899-.9374 2.056-1.5871 3.324-1.8671s2.591-.1777 3.801.2941c1.21.4717 2.253 1.2916 2.997 2.3561.745 1.0645 1.156 2.3258 1.184 3.6243v.1371c.012 1.7217-.657 3.3787-1.862 4.6089-1.204 1.2303-2.847 1.9343-4.568 1.9585z"/><path d="m134.421 16.1799c.312.004.622-.0535.912-.1693.29-.1157.554-.2875.778-.5054.223-.2179.402-.4777.525-.7646s.189-.5952.193-.9074v-.0762c.007-.3184-.049-.635-.167-.9309s-.295-.565-.519-.7909c-.461-.4486-1.079-.6997-1.722-.6997s-1.261.2511-1.722.6997c-.448.4609-.7 1.0787-.7 1.7218 0 .6432.252 1.261.7 1.7219.227.2251.495.403.791.5234.295.1203.612.1807.931.1776z"/><path d="m128.631 19.8679v3.3218h3.885v16.1825h3.794v-19.5043h-3.794z"/></g><path d="m61.204 34.7545c.5211.0061 1.0292.1669 1.4592.4613.4301.2947.7631.7103.9572 1.1943.1937.484.24 1.0145.1322 1.5248-.1076.5099-.364.9767-.737 1.3411-.3729.3644-.8455.6099-1.3579.7059-.5124.0956-1.0419.0374-1.5211-.1676-.4795-.2051-.8873-.5476-1.1718-.9846-.2846-.4367-.4334-.948-.4275-1.4695.0132-.6914.2913-1.3514.7772-1.8438.2455-.2501.54-.447.8651-.5783.3252-.131.6739-.1935 1.0244-.1836z" fill="#1ca0b5"/><path d="m49.4556 31.2352c3.0476-.5485 5.8055-1.9352 5.8055-5.6532s-3.1236-6.5065-8.4265-6.5065c-2.5893-.0852-5.1158.8084-7.0756 2.5029-1.96 1.6944-3.2095 4.0652-3.4992 6.6398-1.661-.1676-3.3067-.3962-4.9522-.7162l2.4988-7.6189h-4.2664l-4.7389 14.5521c-.0924.3795-.3061.7189-.6086.9661-.3024.2475-.6773.3898-1.0676.4052-.3838-.0151-.7529-.1514-1.0541-.3897-.3013-.2381-.519-.5659-.6221-.9358l-2.24-6.4152 2.6819-8.1979h-4.2665l-4.7541 14.5521c-.0901.3808-.3031.7213-.606.9691-.3029.248-.679.3892-1.0702.4021-.3825-.0135-.7504-.1495-1.0495-.3883-.29917-.2387-.51349-.5673-.6114-.9372l-5.05889-14.5826h-4.312267l5.531277 15.8624c.37032 1.1663 1.10068 2.1856 2.08623 2.9109.98552.7255 2.17558 1.12 3.39935 1.1272 1.2379-.02 2.4372-.4341 3.4237-1.1821.9865-.7482 1.7088-1.7912 2.0618-2.9779l.4115-1.2645.5028 1.3864c.3668 1.1812 1.1012 2.2141 2.096 2.9488.9951.7345 2.1985 1.1322 3.4353 1.135 1.239-.0152 2.4407-.4274 3.4282-1.1762.9874-.7487 1.7085-1.7946 2.0573-2.9838l1.7981-5.2874c1.9568.4133 3.936.7135 5.9274.8991.5943 5.6683 5.5617 8.5179 10.392 8.5179 2.7496.0931 5.468-.6052 7.8322-2.0115l-1.6457-3.1388c-1.8876.9516-3.9813 1.4226-6.095 1.3712-3.0475 0-5.5618-2.0265-5.7446-4.4493 2.8032.1139 5.6108.0019 8.396-.3353zm-8.6855-2.7123c0-.7466.5028-6.0951 5.9883-6.0951 3.2458 0 4.16 1.7981 4.16 3.0476 0 1.4476-1.0209 2.6361-4.1752 2.9256-1.9867.1626-3.9813.2033-5.9731.1219z" fill="#000"/></svg>