<svg fill="none" height="26" viewBox="0 0 70 26" width="70" xmlns="http://www.w3.org/2000/svg"><g fill="#f71963"><path d="m50.5322 9.75447h-2.4006v8.18573c-.0001.0746-.03.1461-.083.1988-.053.0528-.1248.0825-.1998.0826h-1.8514c-.0749-.0001-.1468-.0298-.1998-.0826-.053-.0527-.0829-.1242-.083-.1988v-8.18573h-2.4147c-.0364.00148-.0727-.00429-.1067-.01703-.0341-.01274-.0652-.03214-.0916-.05708s-.0475-.05488-.062-.0881c-.0145-.03321-.0222-.06898-.0225-.10517v-1.44786c.0003-.03625.008-.07197.0225-.10518s.0356-.06315.062-.0881c.0264-.02494.0575-.04434.0916-.05708.034-.01274.0703-.01857.1067-.01708h7.2317c.075-.00345.1483.02268.204.0728.0556.05011.089.12006.0929.19464v1.44845c-.004.07435-.0375.14405-.0929.19405-.0555.04994-.1286.07607-.2034.07274z"/><path d="m58.2386 18.1625c-.4947.07-1.3268.1827-2.8531.1827-1.8231 0-3.4339-.4642-3.4339-3.023v-4.6706c0-2.5589 1.6254-3.00902 3.448-3.00902 1.5257 0 2.3443.11268 2.839.18274.1978.02803.2828.09863.2828.28137v1.30952c-.0001.07458-.03.14607-.083.19881s-.1248.08244-.1998.08262h-2.9798c-.6643 0-.9043.22476-.9043.95626v1.2797h3.7714c.075.0002.1468.0299.1999.0827.0529.0527.0828.1242.0829.1988v1.3358c-.0001.0745-.03.146-.0829.1988-.0531.0527-.1249.0824-.1999.0825h-3.7714v1.4906c0 .7308.24.9562.9043.9562h2.9798c.075.0002.1468.0299.1998.0826.053.0528.0829.1243.083.1988v1.3078c0 .1816-.085.2662-.2828.2943z"/><path d="m68.901 18.2183h-2.2471c-.1833 0-.2684-.0584-.3672-.2108l-1.9482-3.0773-1.7649 3.0096c-.0994.1687-.1976.2814-.3524.2814h-2.0911c-.1416 0-.2119-.0847-.2119-.1828.003-.0344.0125-.0679.028-.0986l3.0613-5.0792-3.0928-4.823c-.0155-.02571-.025-.0547-.028-.08464.0048-.05167.0297-.0994.069-.13339.0393-.03405.0905-.05167.1429-.04935h2.275c.1554 0 .2684.14072.3518.26738l1.8083 2.8403 1.7494-2.8403c.0709-.12666.1982-.26738.3524-.26738h2.0911c.0523-.00232.1035.0153.1428.04935.0393.03399.0643.08172.0691.13339-.003.02994-.0125.05893-.028.08464l-3.078 4.8527 3.2101 5.0495c.025.0429.0393.0911.0423.1407.0006.0817-.0708.1378-.1839.1378z"/><path d="m39.63 7.79958c-.0505.00018-.0993.01768-.1383.04964-.0389.03191-.0655.07625-.0753.12554l-2.0515 7.55404c-.0281.1547-.0704.2108-.1977.2108-.1274 0-.1696-.0584-.1978-.2108l-2.0538-7.55583c-.0098-.04923-.0364-.09357-.0753-.12553-.0389-.03191-.0878-.04947-.1383-.04959h-2.0191c-.0329.00006-.0653.00744-.0949.02167-.0295.01422-.0555.03488-.0759.06047-.0204.0256-.0348.05542-.042.08733-.0072.03184-.0071.06494.0003.09678 0 0 2.5057 8.6633 2.5332 8.7485.3345 1.0322 1.1461 1.5255 2.1788 1.5255.9836 0 1.842-.5166 2.1777-1.5226.0398-.1167 2.4898-8.75199 2.4898-8.75199.0073-.03179.0073-.06482 0-.09661-.0072-.03179-.0216-.06155-.042-.08708-.0204-.02554-.0463-.04613-.0758-.0603-.0295-.01423-.0619-.02161-.0947-.02167z"/><path d="m27.189.200195h-21.94636c-1.70174 0-2.79143 1.799915-1.99513 3.296245l2.19523 4.13578h-3.9797c-.25203.00006-.499766.06494-.719219.18821-.219453.12334-.403179.3009-.533385.5156-.1302056.2147-.20247773.45922-.20981548.70988-.00733773.25059.05050698.49893.16793148.72077l7.060968 13.29652c.12453.2338.31066.4295.53858.566.22785.1365.4888.2086.75476.2086.26595 0 .5269-.0721.75476-.2086.22792-.1365.41411-.3322.53857-.566l1.91771-3.5917 2.4059 4.5316c.8467 1.5939 3.1405 1.5968 3.9902.0047l11.0002-20.59484c.7775-1.45663-.2834-3.212765-1.9412-3.212765zm-9.8582 8.799345-4.7432 8.88226c-.0828.1555-.2068.2856-.3584.3764-.1516.0907-.3252.1386-.5021.1386s-.3505-.0479-.5021-.1386c-.1517-.0908-.2755-.2209-.3585-.3764l-4.69727-8.84488c-.07852-.1475-.11744-.31262-.11298-.47946.00446-.16679.05214-.32965.13845-.47274.08625-.1431.20822-.26161.35405-.34405s.31059-.12607.47833-.12655h9.46692c.1635 0 .3243.04215.4666.12226.1424.08012.2614.19548.3456.33495.0843.13946.1308.29827.1351.46089.0043.16268-.0338.32363-.1105.46732z"/></g></svg>