<svg fill="none" height="40" viewBox="0 0 41 40" width="41" xmlns="http://www.w3.org/2000/svg" xmlns:xlink="http://www.w3.org/1999/xlink"><mask id="a" height="40" maskUnits="userSpaceOnUse" width="41" x="0" y="0" mask-type="alpha"><path d="m.666656 0h40v40h-40z" fill="#d9d9d9"/></mask><g mask="url(#a)"><path d="m13.9447 30.2h5v-1.6667h-3.3333v-1.6666h3.3333v-5h-5v1.6666h3.3334v1.6667h-3.3334zm11.6667 0h1.6667v-8.3333h-1.6667v3.3333h-1.6667v-3.3333h-1.6666v5h3.3333zm10-11.5833v13.25c0 .9166-.3261 1.7016-.9783 2.355-.6534.6522-1.4384.9783-2.355.9783h-23.33336c-.91667 0-1.70111-.3261-2.35334-.9783-.65333-.6534-.98-1.4384-.98-2.355v-13.25c-.63889-.5834-1.13166-1.3334-1.47833-2.25-.34778-.9167-.355-1.9167-.02167-3l1.75-5.66669c.22223-.72222.61834-1.31944 1.18834-1.79166.56889-.47223 1.22833-.70834 1.97833-.70834h23.16663c.75 0 1.4028.22889 1.9584.68667.5555.45889.9583 1.06333 1.2083 1.81333l1.75 5.66669c.3333 1.0833.3267 2.0694-.02 2.9583-.3478.8889-.8411 1.6528-1.48 2.2917zm-11.3333-1.75c.75 0 1.3194-.2572 1.7083-.7717.3889-.5133.5417-1.0894.4583-1.7283l-.9166-5.83335h-3.25v6.16665c0 .5833.1944 1.0906.5833 1.5217.3889.43.8611.645 1.4167.645zm-7.5 0c.6389 0 1.16-.215 1.5633-.645.4022-.4311.6033-.9384.6033-1.5217v-6.16665h-3.25l-.9166 5.83335c-.1111.6666.035 1.25.4383 1.75.4022.5.9228.75 1.5617.75zm-7.4167 0c.5 0 .9372-.1806 1.3117-.5417.3755-.3611.605-.8194.6883-1.375l.9167-6.41665h-3.25003l-1.66667 5.58335c-.16666.5555-.07666 1.1528.27 1.7916.34778.6389.92445.9584 1.73.9584zm22.5 0c.8056 0 1.3889-.3195 1.75-.9584.3611-.6388.4444-1.2361.25-1.7916l-1.75-5.58335h-3.1667l.9167 6.41665c.0833.5556.3128 1.0139.6883 1.375.3745.3611.8117.5417 1.3117.5417zm-22.91666 15h23.33336v-11.75c-.1389.0555-.2289.0833-.27.0833-.0423 0-.0911 0-.1467 0-.75 0-1.41-.125-1.98-.375-.5689-.25-1.1311-.6528-1.6867-1.2083-.5.5-1.0694.8889-1.7083 1.1666-.6389.2778-1.3194.4167-2.0417.4167-.75 0-1.4516-.1389-2.105-.4167-.6522-.2777-1.2283-.6666-1.7283-1.1666-.4722.5-1.0206.8889-1.645 1.1666-.6256.2778-1.2994.4167-2.0217.4167-.8055 0-1.535-.1389-2.1883-.4167-.6522-.2777-1.2283-.6666-1.7283-1.1666-.5834.5833-1.1595.9928-1.7284 1.2283-.57.2367-1.2161.355-1.9383.355-.05555 0-.11777 0-.18666 0-.07 0-.14667-.0278-.23-.0833zm23.33336 0h-23.33336.23.18666 1.9383 1.7284.8133.9367 1.0416 1.125 1.0417.98.895.75 1.7283 2.105 1.0417.98.9167.8116 1.6867 1.98.1467z" fill="#fff"/></g></svg>