<svg fill="none" height="40" viewBox="0 0 40 40" width="40" xmlns="http://www.w3.org/2000/svg" xmlns:xlink="http://www.w3.org/1999/xlink"><mask id="a" height="40" maskUnits="userSpaceOnUse" width="40" x="0" y="0" mask-type="alpha"><path d="m0 0h40v40h-40z" fill="#d9d9d9"/></mask><g mask="url(#a)"><path d="m36.5333 10.1333v20c0 .9167-.3261 1.7017-.9783 2.355-.6534.6522-1.4384.9784-2.355.9784h-26.66672c-.91666 0-1.70111-.3262-2.35333-.9784-.65333-.6533-.98-1.4383-.98-2.355v-20c0-.91665.32667-1.70109.98-2.35331.65222-.65334 1.43667-.98 2.35333-.98h26.66672c.9166 0 1.7016.32666 2.355.98.6522.65222.9783 1.43666.9783 2.35331zm-30.00002 3.3334h26.66672v-3.3334h-26.66672zm0 6.6666v10h26.66672v-10z" fill="#fff"/></g></svg>