<svg fill="none" height="40" viewBox="0 0 41 40" width="41" xmlns="http://www.w3.org/2000/svg" xmlns:xlink="http://www.w3.org/1999/xlink"><mask id="a" height="40" maskUnits="userSpaceOnUse" width="41" x="0" y="0" mask-type="alpha"><path d="m.333313 0h40v40h-40z" fill="#d9d9d9"/></mask><g mask="url(#a)"><path d="m16.9166 18.4c-.1388 0-.3472 0-.625 0-.2777 0-.625 0-1.0416 0h6.25zm-8.24995 13.3334c-2.30556 0-4.27056-.8123-5.895-2.4367-1.62556-1.6256-2.438337-3.5911-2.438337-5.8967 0-2.3055.812777-4.2711 2.438337-5.8966 1.62444-1.6245 3.58944-2.4367 5.895-2.4367h19.33335l-3.3334-3.3333h-6v-3.33338h7.3334l6.75 6.74998c2.1666.1667 3.9722 1.0417 5.4166 2.625 1.4445 1.5834 2.1667 3.4584 2.1667 5.625 0 2.3056-.8122 4.2711-2.4367 5.8967-1.6255 1.6244-3.5911 2.4367-5.8966 2.4367-2.3056 0-4.2706-.8123-5.895-2.4367-1.6256-1.6256-2.4384-3.5911-2.4384-5.8967 0-.5.0345-.9933.1034-1.48.07-.4855.2022-.9644.3966-1.4366l-4.5833 4.5833h-2.75c-.3889 1.9444-1.3472 3.5417-2.875 4.7917s-3.2917 1.875-5.29165 1.875zm23.33335-3.3334c1.3889 0 2.5694-.4861 3.5416-1.4583.9723-.9722 1.4584-2.1528 1.4584-3.5417s-.4861-2.5694-1.4584-3.5416c-.9722-.9723-2.1527-1.4584-3.5416-1.4584s-2.5695.4861-3.5417 1.4584c-.9722.9722-1.4583 2.1527-1.4583 3.5416s.4861 2.5695 1.4583 3.5417 2.1528 1.4583 3.5417 1.4583zm-23.33335 0c1.05555 0 2.00725-.3055 2.85495-.9166.8467-.6112 1.4506-1.4167 1.8117-2.4167h-4.66665v-3.3333h4.66665c-.3611-1-.965-1.8056-1.8117-2.4167-.8477-.6111-1.7994-.9167-2.85495-.9167-1.38889 0-2.56945.4861-3.54167 1.4584-.97222.9722-1.45833 2.1527-1.45833 3.5416s.48611 2.5695 1.45833 3.5417 2.15278 1.4583 3.54167 1.4583zm8.24995-6.6666h1.25l3.3334-3.3334h-6.25c.4166.4722.7639.9861 1.0416 1.5417.2778.5555.4862 1.1528.625 1.7917z" fill="#fff"/></g></svg>