<svg width="925" height="585" viewBox="0 0 925 585" fill="none" xmlns="http://www.w3.org/2000/svg">
<path d="M85.3281 152.188C71.7579 146.384 60.5312 138.253 60.8287 125.681C62.826 138.573 73.1989 146.645 85.3281 152.188Z" fill="white"/>
<path d="M494.335 528.413C274.389 528.401 40.5958 413.565 23.186 376.925C22.1286 374.7 21.6948 372.36 21.6926 369.989C21.6874 363.911 24.5245 357.628 26.988 352.556C29.2369 352.835 31.6718 352.897 34.2136 352.897C45.625 352.897 54.8754 351.651 54.8754 335.155C54.8754 318.657 45.625 284.173 34.2136 284.173C31.8932 284.173 29.663 285.599 27.5806 288.008C24.8978 282.521 22.714 277.088 20.8516 271.753C20.1369 269.705 19.7994 267.548 19.7994 265.299C19.803 227.135 116.97 162.524 116.97 162.524C107.895 159.823 95.9005 156.712 85.3281 152.188C73.1989 146.645 62.826 138.573 60.8286 125.681C61.0286 117.227 63.277 109.008 69.0213 103.147C74.765 97.284 82.3172 93.5293 89.9412 90.3613C144.581 67.6573 209.86 65.3146 268.611 57.6786C267.709 57.716 266.481 57.7373 264.983 57.7373C246.587 57.7373 187.288 54.4614 187.292 35.416C187.293 32.9227 188.311 30.1613 190.568 27.1C195.277 20.716 203.787 18.6319 211.7 17.2653C239.203 12.5212 267.376 11.6 295.464 11.0187C323.337 10.4413 351.261 10.1027 379.219 10.1027C463.615 10.1027 548.291 13.1893 632.575 22.1253L638.404 22.1774C638.404 22.1774 592.215 11.9986 592.217 5.16528C592.219 3.37598 595.387 1.81598 603.381 0.727966C606.988 0.237305 611.416 0 616.527 0C665.999 0 778.704 22.32 814.68 53.592C835.656 71.828 843.26 88.468 845.771 100.111C850.355 109.737 852.668 120.08 852.671 130.597C852.675 141.033 850.403 151.641 845.819 161.893C844.144 165.637 842.191 169.129 840.013 172.425L821.684 205.675C821.684 205.675 854.557 186.359 878.641 186.359C889.709 186.359 898.925 190.443 902.235 202.356C905.445 213.919 906.801 226.593 906.805 239.505C906.812 261.947 902.729 285.107 897.184 304.385C896.952 306.433 896.612 308.539 896.148 310.711C895.241 314.957 894.156 319.147 892.904 323.279C889.129 310.08 883.159 298.123 876.44 298.123C868.152 298.123 861.003 316.313 857.711 332.592L804.953 295.38C797.899 266.152 785.021 236.799 770.303 236.799C766.108 236.799 762.06 239.185 758.256 243.275C758.223 243.249 758.189 243.224 758.156 243.2C753.116 239.443 746.899 237.164 740.793 237.161C739.691 237.161 738.592 237.236 737.505 237.391C734.233 237.855 731.015 239.084 728.504 241.392C726.759 242.989 726.071 244.764 725.649 246.5C725.224 248.244 725.016 249.961 724.256 251.708C723.876 252.591 723.131 253.323 722.329 253.448C722.117 253.484 721.909 253.501 721.701 253.501C721.695 253.501 721.687 253.501 721.68 253.501C720.489 253.501 719.275 252.908 717.957 252.232C716.636 251.565 715.208 250.82 713.524 250.803H713.472C712.156 250.804 710.72 251.159 709.411 251.785C708.104 252.415 706.919 253.316 706.161 254.484C705.415 255.665 705.351 257.064 705.129 258.257C705.025 258.855 704.892 259.399 704.683 259.831C704.471 260.265 704.205 260.588 703.773 260.837C703.344 261.08 702.907 261.173 702.408 261.175C702.404 261.175 702.4 261.175 702.396 261.175C701.684 261.175 700.86 260.96 699.983 260.721C699.099 260.485 698.157 260.225 697.165 260.223H697.163C696.655 260.223 696.131 260.295 695.615 260.484C694.692 260.817 694.039 261.265 693.6 261.801C692.937 262.611 692.828 263.517 692.739 264.235C692.655 264.973 692.571 265.519 692.26 265.895C692.035 266.173 691.78 266.341 691.425 266.464C691.075 266.583 690.621 266.639 690.076 266.639C690.072 266.639 690.069 266.639 690.065 266.639C690.06 266.639 690.055 266.64 690.048 266.64C688.949 266.64 687.501 266.416 685.804 266.26C685.659 266.247 685.515 266.24 685.372 266.24C683.508 266.249 681.956 267.283 680.857 268.253C679.757 269.232 679.095 270.189 679.076 270.216L678.352 271.263H742.929C736.697 288.015 732.283 307.933 730.637 323.939C721.505 317.939 710.557 314.447 698.788 314.447C666.86 314.447 640.977 340.152 640.977 371.861C640.977 379.588 642.515 386.956 645.301 393.684L628.565 417.115L582.663 407.277L559.408 427.211L560.276 428.224L583.029 408.72L629.143 418.601L645.917 395.116C648.381 400.632 651.696 405.692 655.695 410.131C657.308 409.896 659.435 409.691 661.921 409.691C665.884 409.691 670.761 410.212 675.943 411.975C687.119 415.776 694.081 422.005 695.607 423.461H700.788C702.312 422.005 709.276 415.776 720.452 411.975C725.632 410.212 730.511 409.691 734.473 409.691C737.535 409.691 740.048 410.001 741.735 410.295C750.971 400.117 756.596 386.643 756.596 371.861C756.596 371.396 756.591 370.932 756.58 370.469C760.864 370.972 765.485 371.085 770.303 371.085C792.601 371.085 810.677 368.652 810.677 336.416C810.677 325.932 808.765 311.732 805.417 297.339L857.429 334.025C856.367 339.635 855.777 344.943 855.777 349.104C855.777 363.749 863.067 366.375 872.688 366.779C847.572 406.447 808.137 438.479 769.22 460.508C713.056 492.3 649.247 510.276 585.18 521.146C555.577 526.168 525.108 528.415 494.335 528.413ZM120.402 392.987C124.365 392.987 129.242 393.509 134.424 395.272C145.599 399.073 152.563 405.301 154.087 406.757H159.268C160.793 405.301 167.756 399.073 178.932 395.272C184.112 393.509 188.991 392.987 192.953 392.987C196.013 392.987 198.528 393.299 200.215 393.591C209.452 383.413 215.076 369.94 215.076 355.159C215.076 323.449 189.195 297.743 157.268 297.743C125.341 297.743 99.4584 323.449 99.4584 355.159C99.4584 369.86 105.024 383.269 114.174 393.427C115.788 393.193 117.915 392.987 120.402 392.987ZM743.432 269.929H681.044C681.296 269.663 681.595 269.371 681.929 269.088C682.88 268.279 684.112 267.573 685.353 267.573C685.36 267.573 685.365 267.573 685.372 267.573L685.683 267.588C687.343 267.737 688.796 267.971 690.065 267.973C690.7 267.972 691.296 267.913 691.851 267.728C692.404 267.544 692.915 267.215 693.301 266.728C693.708 266.221 693.871 265.652 693.96 265.141C694.088 264.365 694.104 263.676 694.332 263.148C694.561 262.628 694.927 262.165 696.069 261.736C696.42 261.609 696.78 261.556 697.165 261.556C697.169 261.556 697.173 261.556 697.177 261.556C697.923 261.556 698.759 261.771 699.635 262.008C700.517 262.244 701.441 262.505 702.408 262.508C702.412 262.508 702.416 262.508 702.42 262.508C703.087 262.508 703.783 262.369 704.435 261.995C705.124 261.604 705.589 261.027 705.884 260.409C706.327 259.481 706.445 258.467 706.596 257.537C706.737 256.605 706.912 255.768 707.281 255.207C707.852 254.319 708.848 253.532 709.988 252.987C711.121 252.441 712.392 252.136 713.463 252.136C713.465 252.136 713.469 252.136 713.472 252.136H713.515C714.783 252.14 716.029 252.744 717.353 253.421C718.673 254.085 720.067 254.828 721.701 254.835C721.981 254.835 722.267 254.812 722.556 254.763C723.968 254.508 724.965 253.412 725.479 252.239C726.327 250.279 726.539 248.447 726.944 246.819C727.351 245.183 727.901 243.765 729.407 242.372C731.665 240.293 734.62 239.147 737.692 238.711C738.715 238.565 739.751 238.495 740.793 238.495C740.796 238.495 740.8 238.495 740.803 238.495C746.571 238.495 752.537 240.669 757.359 244.268L757.363 244.271C752.164 250.28 747.439 259.433 743.432 269.929Z" fill="#108598" fill-opacity="0.1"/>
<path d="M707.899 161.224L707.796 161.189L707.899 161.225V161.224L707.796 161.189L707.899 161.225C707.916 161.179 708.26 160.245 709.375 159.169C710.492 158.095 712.38 156.863 715.561 156.224C716.081 156.12 716.613 156.072 717.155 156.072C720.125 156.064 723.359 157.571 725.816 159.115C727.045 159.884 728.084 160.656 728.811 161.233C729.175 161.521 729.461 161.761 729.655 161.928L729.876 162.121L729.947 162.184L730.599 162.781L730.993 161.991C730.993 161.991 731.073 161.831 731.229 161.537C731.776 160.512 733.232 157.913 735.117 155.528C736.059 154.336 737.107 153.197 738.183 152.34C739.259 151.48 740.355 150.913 741.364 150.791C741.697 150.748 742.036 150.729 742.376 150.729C744.764 150.724 747.305 151.713 749.228 152.727C750.189 153.231 750.997 153.737 751.561 154.116C751.844 154.305 752.065 154.463 752.215 154.571L752.384 154.696L752.437 154.736L753.256 153.684C753.235 153.668 751.875 152.611 749.847 151.545C747.817 150.484 745.124 149.4 742.376 149.396C741.984 149.396 741.591 149.419 741.199 149.467C739.631 149.668 738.177 150.56 736.845 151.721C732.871 155.213 729.825 161.363 729.801 161.395L730.397 161.693L730.848 161.201C730.828 161.184 729.088 159.589 726.523 157.984C723.955 156.384 720.565 154.747 717.155 154.739C716.535 154.739 715.913 154.795 715.3 154.917C711.781 155.619 709.605 157.048 708.327 158.331C707.045 159.612 706.659 160.729 706.635 160.801L707.899 161.224Z" fill="#17282F"/>
<path d="M690.212 187.075L690.109 187.04L690.211 187.077L690.212 187.075L690.109 187.04L690.211 187.077C690.228 187.029 690.572 186.096 691.687 185.02C692.804 183.945 694.692 182.713 697.875 182.076C698.395 181.972 698.927 181.923 699.467 181.923C702.439 181.915 705.671 183.421 708.128 184.965C709.357 185.735 710.396 186.507 711.124 187.084C711.488 187.372 711.773 187.612 711.968 187.78L712.188 187.972L712.259 188.036L712.911 188.633L713.305 187.843C713.307 187.841 713.385 187.681 713.543 187.389C714.088 186.363 715.545 183.764 717.429 181.379C718.371 180.187 719.419 179.048 720.495 178.191C721.571 177.329 722.667 176.764 723.676 176.64C724.009 176.599 724.348 176.579 724.689 176.579C727.077 176.575 729.619 177.564 731.54 178.577C732.501 179.081 733.309 179.588 733.875 179.967C734.156 180.156 734.377 180.313 734.527 180.421L734.696 180.547L734.749 180.587L735.568 179.535C735.547 179.519 734.188 178.461 732.16 177.396C730.131 176.335 727.437 175.251 724.689 175.245C724.297 175.245 723.903 175.268 723.511 175.317C721.943 175.519 720.489 176.409 719.157 177.571C715.184 181.064 712.137 187.213 712.113 187.245L712.709 187.544L713.16 187.052C713.14 187.035 711.401 185.44 708.835 183.835C706.267 182.235 702.879 180.597 699.467 180.589C698.847 180.589 698.227 180.645 697.612 180.768H697.613C694.093 181.469 691.919 182.899 690.639 184.181C689.357 185.463 688.971 186.58 688.947 186.653L690.212 187.075Z" fill="#17282F"/>
<path d="M754.839 187.237L754.609 187.16L754.836 187.241L754.839 187.237L754.609 187.16L754.836 187.241C754.843 187.223 755.093 186.536 755.921 185.737C756.751 184.94 758.156 184.017 760.551 183.537C760.936 183.46 761.331 183.424 761.732 183.424C763.941 183.416 766.384 184.548 768.241 185.716C769.171 186.297 769.956 186.881 770.507 187.319C770.781 187.537 770.997 187.719 771.144 187.844L771.309 187.988L771.361 188.036L772.013 188.633L772.409 187.843C772.409 187.841 772.468 187.723 772.587 187.501C773 186.725 774.105 184.753 775.531 182.949C776.241 182.048 777.033 181.191 777.837 180.549C778.643 179.904 779.455 179.489 780.18 179.403C780.427 179.372 780.677 179.357 780.931 179.357C782.705 179.352 784.621 180.095 786.072 180.86C786.797 181.24 787.408 181.623 787.835 181.908C788.047 182.051 788.215 182.169 788.327 182.252L788.453 182.345L788.492 182.375L789.311 181.321C789.289 181.305 788.248 180.496 786.692 179.679C785.135 178.865 783.065 178.028 780.931 178.024C780.627 178.024 780.32 178.041 780.015 178.079C778.772 178.24 777.644 178.939 776.616 179.833C773.556 182.527 771.241 187.213 771.216 187.245L771.812 187.544L772.263 187.052C772.243 187.035 770.913 185.816 768.948 184.585C766.98 183.36 764.381 182.099 761.732 182.091C761.251 182.091 760.768 182.133 760.289 182.229C757.583 182.769 755.895 183.873 754.9 184.872C753.903 185.869 753.597 186.743 753.573 186.815L754.839 187.237Z" fill="#17282F"/>
<path d="M830.431 214.627L830.063 214.504L830.428 214.635L830.431 214.627L830.063 214.504L830.428 214.635L830.456 214.569C830.619 214.253 831.336 212.897 834.004 212.353C834.24 212.305 834.484 212.283 834.733 212.283C836.107 212.275 837.681 212.995 838.881 213.751C839.481 214.127 839.991 214.504 840.345 214.787C840.524 214.928 840.663 215.045 840.757 215.125L840.863 215.219L840.895 215.247L841.547 215.844L841.941 215.053C841.941 215.053 841.979 214.977 842.055 214.835C842.323 214.333 843.043 213.049 843.963 211.884C844.421 211.303 844.931 210.752 845.439 210.347C845.947 209.939 846.447 209.692 846.86 209.644C847.012 209.625 847.167 209.616 847.324 209.616C848.427 209.611 849.657 210.081 850.589 210.575C851.056 210.82 851.449 211.067 851.724 211.251C851.86 211.341 851.968 211.417 852.039 211.469L852.119 211.529L852.141 211.547L852.96 210.493C852.939 210.477 852.247 209.94 851.209 209.395C850.169 208.852 848.787 208.287 847.324 208.283C847.116 208.283 846.905 208.295 846.695 208.321C845.808 208.437 845.036 208.924 844.344 209.525C842.287 211.341 840.773 214.424 840.749 214.457L841.345 214.755L841.796 214.264C841.776 214.247 840.895 213.439 839.588 212.62C838.277 211.808 836.547 210.959 834.733 210.949C834.404 210.949 834.073 210.979 833.743 211.045C831.928 211.407 830.775 212.155 830.091 212.84C829.405 213.525 829.189 214.132 829.165 214.205L830.431 214.627Z" fill="#17282F"/>
<path d="M467.507 153.804L468.157 153.659C464.889 138.987 455.385 126.075 442.985 116.824C430.583 107.575 415.271 101.973 400.304 101.971C397.6 101.971 394.908 102.155 392.247 102.532C384.239 103.671 376.412 106.671 370.345 112.252C366.173 116.081 364.56 120.239 363.519 124.492C362.475 128.751 361.955 133.12 359.992 137.631C358.945 140.049 356.9 142.145 354.448 142.555C353.861 142.655 353.285 142.701 352.713 142.701C349.401 142.708 346.229 141.112 342.931 139.429C339.635 137.76 336.212 136.007 332.325 135.973L332.203 135.972C329.103 135.975 325.643 136.821 322.508 138.324C319.376 139.829 316.564 141.992 314.816 144.695C313.14 147.313 312.935 150.687 312.387 153.733C312.119 155.259 311.776 156.697 311.189 157.915C310.599 159.133 309.787 160.127 308.52 160.853C307.28 161.56 305.993 161.824 304.621 161.825C302.651 161.828 300.517 161.259 298.316 160.663C296.115 160.072 293.845 159.456 291.553 159.453C290.376 159.453 289.192 159.62 288.028 160.043C285.851 160.833 284.397 161.852 283.437 163.024C281.993 164.787 281.729 166.791 281.508 168.581C281.292 170.393 281.103 171.988 280.108 173.22C279.425 174.069 278.6 174.609 277.567 174.96C276.536 175.308 275.295 175.449 273.859 175.449C270.987 175.452 267.364 174.884 263.145 174.499C262.813 174.468 262.485 174.453 262.159 174.453C257.909 174.464 254.212 176.873 251.564 179.22C248.916 181.575 247.301 183.909 247.281 183.936L246.557 184.983H512.888L513.083 184.659C513.151 184.547 513.407 184.036 513.405 182.935C513.397 180.545 512.257 175.379 505.441 164.883C503.328 161.632 501.016 159.491 498.612 158.173C496.209 156.853 493.731 156.368 491.328 156.369C487.964 156.371 484.74 157.307 481.929 158.219C479.129 159.137 476.699 160.016 475.135 160.003C473.735 160.001 472.636 159.616 471.731 159.037C470.377 158.171 469.469 156.829 468.912 155.688C468.633 155.12 468.443 154.604 468.323 154.236C468.263 154.051 468.22 153.903 468.193 153.803L468.165 153.691L468.157 153.659L467.507 153.804L466.856 153.948C466.869 154.001 467.263 155.781 468.48 157.611C469.091 158.525 469.912 159.453 471.011 160.16C472.107 160.865 473.484 161.339 475.135 161.336C477.129 161.323 479.556 160.384 482.343 159.487C485.119 158.583 488.213 157.701 491.328 157.703C493.555 157.704 495.787 158.145 497.971 159.341C500.155 160.54 502.304 162.505 504.323 165.609C511.077 175.991 512.08 180.988 512.072 182.935C512.072 183.384 512.02 183.672 511.979 183.833L511.931 183.984L511.925 183.997L512.265 184.169L511.939 183.972L511.925 183.997L512.265 184.169L511.939 183.972L512.511 184.316V183.649H247.829V184.316L248.377 184.695L248.444 184.603C248.787 184.124 250.459 181.888 252.935 179.797C255.412 177.699 258.675 175.78 262.159 175.787C262.445 175.787 262.733 175.8 263.024 175.827C267.196 176.204 270.819 176.78 273.859 176.783C275.379 176.781 276.759 176.637 277.992 176.223C279.224 175.811 280.305 175.111 281.149 174.053C282.011 172.975 282.373 171.749 282.584 170.545C282.893 168.732 282.915 166.924 283.575 165.365C284.235 163.815 285.457 162.411 288.484 161.296C289.48 160.935 290.5 160.787 291.553 160.787C293.601 160.785 295.771 161.356 297.969 161.951C300.169 162.541 302.399 163.156 304.621 163.159C306.165 163.161 307.713 162.851 309.181 162.012C310.707 161.144 311.719 159.893 312.391 158.493C313.4 156.388 313.708 153.945 314.079 151.611C314.441 149.275 314.869 147.057 315.936 145.417C317.497 142.993 320.12 140.948 323.085 139.527C326.048 138.103 329.347 137.304 332.203 137.305L332.315 137.307C335.787 137.325 339.029 138.937 342.327 140.619C345.62 142.285 348.965 144.028 352.713 144.035C353.357 144.035 354.011 143.983 354.673 143.868C357.739 143.329 360.035 140.871 361.216 138.161C363.265 133.436 363.791 128.955 364.813 124.811C365.84 120.659 367.316 116.859 371.248 113.233C377.063 107.881 384.625 104.963 392.435 103.852C395.031 103.484 397.66 103.304 400.304 103.304C414.936 103.303 430.001 108.8 442.188 117.893C454.379 126.984 463.676 139.655 466.856 153.948L467.507 153.804Z" fill="#17282F"/>
<path d="M541.219 103.08L541.871 102.935C540.532 96.9347 536.657 91.6827 531.62 87.9227C526.58 84.1654 520.363 81.888 514.259 81.8854C513.156 81.8854 512.057 81.96 510.969 82.1147C507.697 82.58 504.477 83.808 501.968 86.116C500.224 87.7134 499.535 89.488 499.113 91.224C498.688 92.968 498.48 94.6854 497.72 96.432L497.7 96.4787L497.72 96.4307C497.34 97.316 496.595 98.0467 495.793 98.172C495.581 98.2094 495.373 98.2254 495.165 98.2254C493.968 98.232 492.747 97.636 491.421 96.956C490.1 96.2894 488.672 95.544 486.989 95.5267H486.937C485.62 95.528 484.184 95.8827 482.875 96.5094C481.568 97.1387 480.383 98.0413 479.627 99.208C478.88 100.389 478.816 101.788 478.593 102.981C478.489 103.58 478.356 104.123 478.147 104.555C477.935 104.989 477.668 105.312 477.237 105.561C476.808 105.804 476.371 105.896 475.872 105.899C475.156 105.901 474.329 105.685 473.445 105.445C472.561 105.209 471.621 104.949 470.628 104.947C470.12 104.947 469.596 105.019 469.079 105.207C468.156 105.541 467.503 105.989 467.064 106.525C466.401 107.335 466.292 108.241 466.203 108.959C466.117 109.697 466.035 110.243 465.725 110.619C465.499 110.897 465.244 111.065 464.889 111.188C464.536 111.308 464.08 111.364 463.529 111.364C462.428 111.365 460.975 111.14 459.268 110.984C459.123 110.971 458.979 110.964 458.836 110.964C456.972 110.973 455.42 112.007 454.32 112.977C453.22 113.956 452.559 114.913 452.539 114.941L451.815 115.987H559.651L559.845 115.663C559.913 115.552 560.033 115.268 560.032 114.765C560.024 113.672 559.525 111.549 556.772 107.305C555.897 105.959 554.92 105.047 553.891 104.483C552.861 103.916 551.792 103.708 550.776 103.709C549.352 103.711 548.02 104.103 546.883 104.471C545.755 104.847 544.779 105.18 544.28 105.167C543.793 105.165 543.436 105.037 543.129 104.843C542.675 104.553 542.344 104.077 542.141 103.66C542.04 103.452 541.969 103.263 541.927 103.129L541.88 102.976L541.872 102.94L541.869 102.935L541.681 102.977L541.871 102.936L541.869 102.935L541.681 102.977L541.871 102.936L541.351 103.051L541.871 102.939V102.936L541.351 103.051L541.871 102.939L541.248 103.073L541.872 102.944L541.871 102.939L541.248 103.073L541.872 102.944L541.221 103.079L541.879 102.985L541.872 102.944L541.221 103.079L541.879 102.985L541.876 102.96L541.871 102.935L541.219 103.08L540.559 103.173L540.567 103.216C540.587 103.295 540.749 104.033 541.284 104.837C541.552 105.236 541.917 105.649 542.415 105.968C542.912 106.288 543.545 106.503 544.28 106.5C545.209 106.487 546.181 106.092 547.295 105.739C548.399 105.379 549.601 105.041 550.776 105.043C551.617 105.044 552.437 105.207 553.249 105.651C554.059 106.096 554.872 106.831 555.655 108.033C558.345 112.163 558.707 114.116 558.699 114.765C558.699 114.916 558.681 114.997 558.673 115.025L558.671 115.039L558.975 115.14L558.701 114.977L558.671 115.039L558.975 115.14L558.701 114.977L559.273 115.32V114.653H453.087V115.32L453.636 115.699L453.657 115.668C453.783 115.493 454.439 114.617 455.393 113.812C456.349 112.999 457.588 112.291 458.836 112.297L459.147 112.311C460.807 112.461 462.26 112.695 463.529 112.697C464.165 112.696 464.76 112.637 465.316 112.452C465.869 112.268 466.38 111.939 466.767 111.452L466.793 111.417L466.765 111.452C467.172 110.945 467.335 110.376 467.424 109.865C467.552 109.089 467.567 108.4 467.796 107.871C468.025 107.352 468.391 106.889 469.533 106.46C469.883 106.333 470.243 106.28 470.628 106.28C471.377 106.277 472.217 106.493 473.099 106.733C473.981 106.968 474.904 107.229 475.872 107.232C476.543 107.233 477.243 107.095 477.899 106.719C478.588 106.328 479.055 105.751 479.348 105.133C479.791 104.205 479.911 103.192 480.06 102.261C480.203 101.329 480.377 100.492 480.747 99.9307C481.317 99.0414 482.312 98.256 483.452 97.7107C484.588 97.164 485.864 96.8574 486.937 96.86H486.98C488.248 96.8627 489.495 97.468 490.817 98.1454C492.137 98.8094 493.531 99.552 495.165 99.5587C495.445 99.5587 495.731 99.536 496.019 99.4867C497.432 99.232 498.428 98.136 498.943 96.9627C499.791 95.0027 500.004 93.1707 500.408 91.5427C500.816 89.9067 501.367 88.4894 502.871 87.096C505.129 85.0174 508.084 83.872 511.157 83.4347C512.18 83.2894 513.216 83.2187 514.259 83.2187C520.028 83.216 525.999 85.3907 530.823 88.992C535.651 92.592 539.32 97.604 540.568 103.224L541.219 103.08Z" fill="#17282F"/>
<path d="M767.755 258.355L768.405 258.211C767.068 252.211 763.193 246.957 758.156 243.2C753.116 239.443 746.899 237.164 740.793 237.161C739.691 237.161 738.592 237.236 737.505 237.391C734.233 237.855 731.015 239.084 728.504 241.392C726.759 242.989 726.071 244.764 725.649 246.5C725.224 248.244 725.016 249.961 724.256 251.708C723.876 252.591 723.131 253.323 722.329 253.448C722.117 253.484 721.909 253.501 721.701 253.501C720.504 253.508 719.283 252.912 717.957 252.232C716.636 251.565 715.208 250.82 713.524 250.803H713.472C712.156 250.804 710.72 251.159 709.411 251.785C708.104 252.415 706.919 253.316 706.161 254.484C705.415 255.665 705.351 257.064 705.129 258.257C705.025 258.855 704.892 259.399 704.683 259.831C704.471 260.265 704.205 260.588 703.773 260.837C703.344 261.08 702.907 261.173 702.408 261.175C701.693 261.177 700.865 260.961 699.983 260.721C699.099 260.485 698.157 260.225 697.165 260.223C696.656 260.223 696.132 260.295 695.615 260.484C694.692 260.817 694.039 261.265 693.6 261.801C692.937 262.611 692.828 263.517 692.739 264.235C692.655 264.973 692.571 265.519 692.26 265.895C692.035 266.173 691.78 266.341 691.425 266.464C691.072 266.584 690.616 266.64 690.065 266.639C688.964 266.641 687.511 266.416 685.804 266.26C685.659 266.247 685.515 266.24 685.372 266.24C683.508 266.249 681.956 267.283 680.857 268.253C679.757 269.232 679.095 270.189 679.076 270.216L678.352 271.263H786.188L786.381 270.939C786.449 270.828 786.569 270.544 786.568 270.041C786.56 268.951 786.061 266.827 783.309 262.583C782.433 261.235 781.457 260.323 780.427 259.759C779.397 259.192 778.328 258.984 777.312 258.985C775.887 258.987 774.556 259.379 773.419 259.747C772.291 260.121 771.313 260.456 770.815 260.443C770.329 260.441 769.971 260.313 769.665 260.119C769.211 259.829 768.881 259.355 768.677 258.936C768.576 258.728 768.505 258.539 768.463 258.405L768.416 258.251L768.407 258.215L768.405 258.207V258.205L768.404 258.204V258.201L768.396 258.172L767.755 258.355L767.115 258.539L767.752 258.356L767.107 258.508L767.115 258.539L767.752 258.356L767.107 258.508C767.119 258.553 767.288 259.317 767.82 260.113C768.088 260.512 768.452 260.925 768.951 261.244C769.447 261.564 770.081 261.779 770.815 261.776C771.744 261.763 772.716 261.368 773.831 261.015C774.935 260.655 776.137 260.317 777.312 260.319C778.153 260.32 778.975 260.483 779.785 260.927C780.596 261.372 781.409 262.107 782.191 263.309C784.881 267.44 785.243 269.393 785.235 270.041C785.235 270.192 785.217 270.273 785.211 270.303L785.207 270.315L785.511 270.417L785.239 270.253L785.207 270.315L785.511 270.417L785.239 270.253L785.809 270.596V269.929H679.624V270.596L680.172 270.976L680.193 270.944C680.319 270.769 680.975 269.893 681.929 269.088C682.885 268.275 684.124 267.567 685.372 267.573L685.683 267.588C687.343 267.737 688.796 267.971 690.065 267.973C690.7 267.972 691.296 267.913 691.851 267.728C692.404 267.544 692.915 267.215 693.301 266.728C693.708 266.221 693.871 265.652 693.96 265.141C694.088 264.365 694.104 263.676 694.332 263.148C694.561 262.628 694.927 262.165 696.069 261.736C696.42 261.609 696.78 261.556 697.165 261.556C697.915 261.553 698.753 261.769 699.635 262.008C700.517 262.244 701.441 262.505 702.408 262.508C703.079 262.509 703.779 262.371 704.435 261.995C705.124 261.604 705.589 261.027 705.884 260.409C706.327 259.481 706.445 258.467 706.596 257.537C706.737 256.605 706.912 255.768 707.281 255.207C707.852 254.319 708.848 253.532 709.988 252.987C711.124 252.44 712.4 252.133 713.472 252.136H713.515C714.783 252.14 716.029 252.744 717.353 253.421C718.673 254.085 720.067 254.828 721.701 254.835C721.981 254.835 722.267 254.812 722.556 254.763C723.968 254.508 724.965 253.412 725.479 252.239C726.327 250.279 726.539 248.447 726.944 246.819C727.351 245.183 727.901 243.765 729.407 242.372C731.665 240.293 734.62 239.147 737.692 238.711C738.715 238.565 739.751 238.495 740.793 238.495C746.564 238.492 752.535 240.667 757.359 244.268C762.187 247.868 765.856 252.879 767.104 258.5L767.108 258.519L767.115 258.539L767.755 258.355Z" fill="#17282F"/>
<path d="M597.425 244.489L598.076 244.344C596.052 235.255 590.172 227.275 582.512 221.56C574.849 215.847 565.393 212.384 556.132 212.383C554.459 212.383 552.792 212.496 551.144 212.729C546.184 213.435 541.324 215.293 537.547 218.767C534.937 221.16 533.92 223.784 533.277 226.416C532.632 229.056 532.313 231.719 531.124 234.449C530.507 235.88 529.299 237.097 527.909 237.324C527.564 237.383 527.224 237.411 526.887 237.411C524.936 237.417 523.02 236.465 520.992 235.428C518.967 234.404 516.829 233.3 514.361 233.276H514.284C512.332 233.277 510.175 233.807 508.216 234.745C506.259 235.688 504.493 237.039 503.383 238.752C502.307 240.447 502.192 242.548 501.853 244.403C501.691 245.329 501.483 246.192 501.139 246.904C500.792 247.617 500.332 248.179 499.603 248.599C498.884 249.007 498.145 249.16 497.335 249.163C496.173 249.165 494.88 248.823 493.528 248.456C492.175 248.093 490.76 247.707 489.304 247.704C488.557 247.704 487.799 247.809 487.051 248.083C485.681 248.579 484.743 249.231 484.12 249.992C483.179 251.141 483.013 252.439 482.877 253.539C482.745 254.66 482.624 255.58 482.071 256.26C481.683 256.743 481.225 257.043 480.628 257.247C480.033 257.448 479.297 257.535 478.432 257.533C476.699 257.536 474.473 257.188 471.872 256.951C471.66 256.931 471.451 256.921 471.243 256.921C468.528 256.931 466.212 258.455 464.561 259.915C462.909 261.384 461.908 262.832 461.888 262.859L461.164 263.905H625.459L625.652 263.581C625.72 263.471 625.889 263.105 625.888 262.389C625.88 260.836 625.152 257.628 620.952 251.157C619.636 249.132 618.183 247.783 616.664 246.949C615.145 246.115 613.573 245.808 612.064 245.809C609.948 245.811 607.943 246.396 606.209 246.959C604.487 247.527 602.992 248.055 602.113 248.043C601.303 248.04 600.68 247.821 600.161 247.489C599.385 246.995 598.851 246.211 598.521 245.535C598.356 245.199 598.243 244.893 598.172 244.675L598.096 244.421L598.08 244.357L598.076 244.343L598.075 244.339V244.335L598.072 244.328L598.059 244.279L597.425 244.489L596.793 244.7L596.792 244.701C596.865 244.983 597.171 246.095 597.964 247.191C598.744 248.283 600.107 249.383 602.113 249.376C603.423 249.363 604.912 248.773 606.623 248.227C608.321 247.672 610.199 247.141 612.064 247.143C613.399 247.144 614.723 247.407 616.023 248.119C617.321 248.832 618.611 250.005 619.835 251.884C623.972 258.241 624.563 261.279 624.555 262.389C624.555 262.647 624.525 262.801 624.505 262.877L624.487 262.936L624.779 263.057L624.509 262.896L624.487 262.936L624.779 263.057L624.509 262.896L625.08 263.239V262.572H462.437V263.239L462.985 263.619L463.023 263.565C463.225 263.283 464.243 261.921 465.74 260.659C467.237 259.388 469.197 258.248 471.243 258.255C471.411 258.255 471.58 258.263 471.751 258.279C474.305 258.509 476.532 258.865 478.432 258.867C479.383 258.867 480.257 258.777 481.055 258.509C481.849 258.244 482.563 257.784 483.112 257.093C483.68 256.383 483.913 255.58 484.047 254.821C484.24 253.677 484.257 252.589 484.639 251.693C485.023 250.807 485.693 250.009 487.507 249.335C488.087 249.124 488.681 249.039 489.304 249.037C490.516 249.036 491.829 249.377 493.18 249.744C494.532 250.105 495.92 250.493 497.335 250.496C498.316 250.497 499.319 250.297 500.264 249.756C501.251 249.196 501.912 248.379 502.34 247.483C502.984 246.136 503.172 244.612 503.4 243.183C503.621 241.749 503.885 240.421 504.503 239.476C505.427 238.04 507.003 236.805 508.792 235.948C510.58 235.088 512.576 234.607 514.284 234.609H514.351C516.404 234.619 518.361 235.581 520.388 236.616C522.411 237.639 524.5 238.737 526.887 238.744C527.296 238.744 527.712 238.711 528.135 238.637C530.136 238.281 531.596 236.701 532.347 234.98C533.624 232.035 533.948 229.259 534.572 226.735C535.2 224.203 536.081 221.936 538.451 219.748C541.975 216.504 546.571 214.727 551.332 214.049C552.915 213.825 554.519 213.716 556.132 213.716C565.059 213.713 574.268 217.072 581.715 222.629C589.165 228.185 594.839 235.924 596.775 244.635L596.783 244.668L596.793 244.7L597.425 244.489Z" fill="#17282F"/>
<path d="M635.681 468.087C635.681 468.087 625.959 458.015 628.688 458.317C631.416 458.62 636.523 466.152 636.523 466.152C636.523 466.152 636.593 449.548 639.02 453.185C641.444 456.824 638.465 466.221 638.465 466.221C638.465 466.221 645.399 455.405 645.383 457.172C645.335 462.637 640.04 466.912 640.04 466.912C640.04 466.912 651.143 458.687 649.324 462.023C647.505 465.358 640.407 468.511 640.407 468.511C640.407 468.511 653.204 465.928 648.657 467.747C644.109 469.566 639.781 470.815 639.781 470.815H636.245C636.245 470.815 624.159 464.751 628.707 465.661C633.255 466.57 635.681 468.087 635.681 468.087Z" fill="#17282F"/>
<path d="M764.065 436.568C764.065 436.568 756.499 428.729 758.623 428.964C760.747 429.2 764.72 435.063 764.72 435.063C764.72 435.063 764.776 422.14 766.663 424.971C768.551 427.803 766.232 435.116 766.232 435.116C766.232 435.116 771.628 426.697 771.616 428.073C771.579 432.327 767.459 435.653 767.459 435.653C767.459 435.653 776.099 429.252 774.684 431.849C773.267 434.444 767.743 436.897 767.743 436.897C767.743 436.897 777.703 434.888 774.164 436.303C770.625 437.719 767.256 438.691 767.256 438.691H764.505C764.505 438.691 755.099 433.972 758.637 434.68C762.177 435.388 764.065 436.568 764.065 436.568Z" fill="#17282F"/>
<path d="M883.259 408.448C883.259 408.448 875.693 400.609 877.816 400.845C879.94 401.08 883.913 406.943 883.913 406.943C883.913 406.943 883.969 394.02 885.857 396.851C887.745 399.684 885.425 406.997 885.425 406.997C885.425 406.997 890.821 398.579 890.809 399.955C890.772 404.207 886.652 407.535 886.652 407.535C886.652 407.535 895.293 401.133 893.877 403.729C892.461 406.324 886.936 408.777 886.936 408.777C886.936 408.777 896.897 406.768 893.357 408.184C889.819 409.6 886.451 410.572 886.451 410.572H883.699C883.699 410.572 874.293 405.852 877.832 406.561C881.371 407.268 883.259 408.448 883.259 408.448Z" fill="#17282F"/>
<path d="M731.351 472.676C731.351 472.676 722.313 463.312 724.851 463.593C727.387 463.876 732.135 470.877 732.135 470.877C732.135 470.877 732.199 455.441 734.455 458.824C736.709 462.207 733.939 470.942 733.939 470.942C733.939 470.942 740.384 460.887 740.369 462.529C740.325 467.611 735.404 471.584 735.404 471.584C735.404 471.584 745.725 463.939 744.033 467.039C742.344 470.139 735.744 473.071 735.744 473.071C735.744 473.071 747.641 470.67 743.413 472.36C739.187 474.052 735.164 475.213 735.164 475.213H731.876C731.876 475.213 720.64 469.575 724.868 470.421C729.096 471.266 731.351 472.676 731.351 472.676Z" fill="#108598"/>
<path d="M553.011 431.609L472.633 341.497L455.197 355.444L367.691 223.696L291.428 240.689L268.672 198.177L246.501 197.009L204.253 113.687L141.041 171.363L110.708 160.529L0 273.408L0.951563 274.343L111.063 162.072L141.347 172.888L203.857 115.853L245.661 198.301L267.851 199.469L290.731 242.211L367.087 225.197L454.892 357.396L472.479 343.328L552.016 432.497L553.011 431.609Z" fill="#17282F"/>
<path d="M568.003 448.419L559.62 439.021L558.625 439.908L567.008 449.307" fill="#17282F"/>
<path d="M249.931 251.765L243.321 253.556L243.671 254.843L250.28 253.052" fill="#17282F"/>
<path d="M290.751 240.711L257.373 249.751L257.721 251.037L291.099 241.997" fill="#17282F"/>
<path d="M165.557 203.359L184.388 175.559L183.12 166.044L204.483 122.691L203.287 122.101L181.744 165.819L183 175.232L164.453 202.611L165.557 203.359Z" fill="#17282F"/>
<path d="M157.745 214.889L162.435 207.968L161.331 207.22L156.641 214.141" fill="#17282F"/>
<path d="M127.657 230.44L97.3479 271.536L98.4214 272.327L128.73 231.231" fill="#17282F"/>
<path d="M111.787 166.203L119.423 183.384L136.312 197.144L134.46 221.213L130.446 226.659L131.519 227.449L135.76 221.697L137.695 196.552L120.512 182.551L113.006 165.66L111.787 166.203Z" fill="#17282F"/>
<path d="M267.801 198.34L252.611 212.827L247.361 204.077L246.217 204.763L252.325 214.941L268.721 199.305L267.801 198.34Z" fill="#17282F"/>
<path d="M906.383 366.924L783.151 280L745.807 332.721L699.801 317.387L628.565 417.115L582.663 407.277L559.408 427.211L560.276 428.224L583.029 408.72L629.143 418.601L700.313 318.963L746.323 334.299L783.469 281.857L905.615 368.013L906.383 366.924Z" fill="#17282F"/>
<path d="M782.66 280.781L768.252 344.117L751.788 336.915L751.253 338.136L769.195 345.985L783.96 281.077L782.66 280.781Z" fill="#17282F"/>
<path d="M699.82 321.72L663.987 426.009L639.819 421.807L639.591 423.12L664.877 427.519L701.081 322.152L699.82 321.72Z" fill="#17282F"/>
<path d="M698.788 314.447C666.86 314.447 640.977 340.152 640.977 371.861C640.977 386.564 646.544 399.972 655.695 410.131C659.88 409.523 667.511 409.107 675.943 411.975C687.119 415.776 694.081 422.005 695.607 423.461H700.788C702.312 422.005 709.276 415.776 720.452 411.975C729.633 408.852 737.865 409.624 741.735 410.295C750.971 400.117 756.596 386.643 756.596 371.861C756.596 340.152 730.715 314.447 698.788 314.447Z" fill="#108598"/>
<path d="M725.696 394.892C723.917 395.752 722.156 396.641 720.416 397.571C718.675 398.521 716.968 399.556 715.365 400.685C714.761 401.105 714.171 401.537 713.58 401.969L723.049 384.329L710.055 404.677C708.739 405.737 707.445 406.817 706.176 407.92C704.077 409.745 702.036 411.608 700.037 413.527L699.377 394.388L712.972 373.687L699.277 391.492L698.688 374.363L697.709 393.529L697.707 393.533L697.709 393.535L696.731 412.745C694.995 411.103 693.229 409.496 691.416 407.92C689.991 406.683 688.54 405.465 687.055 404.284L674.76 383.291L683.791 401.809C683.272 401.432 682.756 401.052 682.227 400.685C680.625 399.556 678.917 398.521 677.177 397.571C675.437 396.641 673.675 395.752 671.896 394.892C668.335 393.184 664.704 391.584 660.957 390.264C664.599 391.805 668.088 393.613 671.499 395.521C673.2 396.481 674.883 397.468 676.537 398.491C678.167 399.521 679.732 400.612 681.22 401.815C684.215 404.185 687.013 406.775 689.705 409.447C692.06 411.783 694.349 414.2 696.532 416.652L695.289 441.035H700.985L700.18 417.643C702.62 414.851 705.216 412.097 707.887 409.447C710.58 406.775 713.377 404.185 716.372 401.815C717.86 400.612 719.427 399.521 721.055 398.491C722.709 397.468 724.392 396.481 726.093 395.521C729.504 393.613 732.995 391.805 736.636 390.264C732.888 391.584 729.259 393.184 725.696 394.892Z" fill="#17282F"/>
<path d="M254.932 393.231C254.932 409.727 245.681 410.972 234.269 410.972C222.857 410.972 213.608 409.727 213.608 393.231C213.608 376.733 222.857 342.248 234.269 342.248C245.681 342.248 254.932 376.733 254.932 393.231Z" fill="#108598"/>
<path d="M241.256 400.715L237.837 400.951L246.74 394.949L240.383 398.163L241.256 395.652L238.349 399.191L234.94 400.913L234.669 389.068L236.475 384.684L234.625 387.149L234.468 380.28L240.131 372.731L234.429 378.568L234.084 363.449L233.779 373.127L230.147 369.075L233.72 374.984L233.236 390.312L230.075 388.244L227.193 383.136L228.348 387.116L222.693 383.417L233.169 392.453L231.583 442.761H235.896L234.985 402.875L235.981 402.203L241.256 400.715Z" fill="#17282F"/>
<path d="M770.303 371.085C765.485 371.085 760.864 370.972 756.58 370.469C741.037 368.643 729.929 361.687 729.929 336.416C729.929 304.183 748.005 236.799 770.303 236.799C792.601 236.799 810.677 304.183 810.677 336.416C810.677 368.652 792.601 371.085 770.303 371.085Z" fill="#108598" fill-opacity="0.5"/>
<path d="M783.955 351.043L777.276 351.504L794.671 339.777L782.248 346.056L783.955 341.151L778.275 348.065L771.613 351.432L771.084 328.284L774.612 319.717L770.999 324.535L770.692 311.113L781.756 296.36L770.616 307.767L769.94 278.225L769.345 297.133L762.247 289.217L769.231 300.765L768.285 330.715L762.105 326.675L756.476 316.695L758.733 324.469L747.684 317.244L768.153 334.9L765.053 433.203H773.481L771.7 355.261L773.647 353.951L783.955 351.043Z" fill="#17282F"/>
<path d="M897.103 349.104C897.103 365.601 887.852 366.847 876.44 366.847C865.028 366.847 855.777 365.601 855.777 349.104C855.777 332.607 865.028 298.123 876.44 298.123C887.852 298.123 897.103 332.607 897.103 349.104Z" fill="#108598"/>
<path d="M876.44 366.847C875.159 366.847 873.904 366.831 872.688 366.779C863.067 366.375 855.777 363.749 855.777 349.104C855.777 332.607 865.028 298.123 876.44 298.123C887.852 298.123 897.103 332.607 897.103 349.104C897.103 353.401 896.476 356.663 895.345 359.139C895.153 359.559 894.947 359.957 894.727 360.333C891.264 366.244 884.373 366.847 876.44 366.847Z" fill="#108598" fill-opacity="0.5"/>
<path d="M883.427 356.589L880.009 356.825L888.912 350.824L882.553 354.037L883.427 351.527L880.52 355.065L877.111 356.789L876.84 344.943L878.645 340.559L876.796 343.023L876.639 336.155L882.301 328.605L876.6 334.441L876.253 319.324L875.949 329L872.316 324.949L875.891 330.859L875.408 346.185L872.245 344.119L869.363 339.012L870.52 342.989L864.863 339.293L875.34 348.328L873.753 398.636H878.067L877.155 358.748L878.152 358.076L883.427 356.589Z" fill="#17282F"/>
<path d="M54.8754 335.155C54.8754 351.651 45.625 352.897 34.2136 352.897C22.8021 352.897 13.5516 351.651 13.5516 335.155C13.5516 318.657 22.8021 284.173 34.2136 284.173C45.625 284.173 54.8754 318.657 54.8754 335.155Z" fill="#108598"/>
<path d="M34.2136 352.897C22.8021 352.897 13.5516 351.651 13.5516 335.155C13.5516 318.657 22.8021 284.173 34.2136 284.173C45.625 284.173 54.8754 318.657 54.8754 335.155C54.8754 351.651 45.625 352.897 34.2136 352.897Z" fill="#108598" fill-opacity="0.5"/>
<path d="M41.1994 342.639L37.7823 342.875L46.6844 336.873L40.3265 340.087L41.1994 337.576L38.2927 341.116L34.8838 342.839L34.613 330.992L36.4188 326.608L34.5697 329.075L34.4125 322.204L40.075 314.655L34.3729 320.492L34.0281 305.373L33.7224 315.051L30.0906 310.999L33.664 316.908L33.1806 332.237L30.0182 330.169L27.1375 325.061L28.2921 329.04L22.6375 325.343L33.1131 334.377L31.5265 384.685H35.8406L34.9292 344.799L35.925 344.128L41.1994 342.639Z" fill="#17282F"/>
<path d="M159.268 406.757H154.087C152.563 405.301 145.599 399.073 134.424 395.272C129.242 393.509 124.365 392.987 120.402 392.987C117.915 392.987 115.789 393.193 114.175 393.427C105.024 383.269 99.4584 369.86 99.4584 355.159C99.4584 323.449 125.341 297.743 157.268 297.743C189.195 297.743 215.076 323.449 215.076 355.159C215.076 369.94 209.452 383.413 200.215 393.591C198.528 393.299 196.013 392.987 192.953 392.987C188.991 392.987 184.112 393.509 178.932 395.272C167.756 399.073 160.793 405.301 159.268 406.757Z" fill="#108598" fill-opacity="0.7"/>
<path d="M184.177 378.188C182.399 379.049 180.636 379.939 178.896 380.867C177.155 381.819 175.447 382.852 173.847 383.983C173.241 384.403 172.651 384.835 172.06 385.267L181.529 367.627L168.535 387.973C167.219 389.033 165.925 390.115 164.656 391.217C162.557 393.043 160.517 394.905 158.517 396.824L157.857 377.685L171.452 356.984L157.757 374.789L157.167 357.66L156.191 376.827L156.188 376.831L156.191 376.832L155.211 396.043C153.475 394.4 151.709 392.793 149.897 391.217C148.471 389.979 147.021 388.763 145.535 387.58L133.241 366.587L142.271 385.107C141.752 384.729 141.236 384.349 140.707 383.983C139.105 382.852 137.399 381.819 135.657 380.867C133.917 379.939 132.154 379.049 130.376 378.188C126.815 376.48 123.185 374.881 119.438 373.561C123.079 375.103 126.569 376.909 129.979 378.819C131.681 379.779 133.363 380.765 135.017 381.788C136.647 382.819 138.212 383.908 139.7 385.112C142.695 387.483 145.493 390.072 148.187 392.743C150.54 395.079 152.829 397.497 155.012 399.949L153.769 424.332H159.467L158.66 400.94C161.1 398.147 163.696 395.395 166.367 392.743C169.06 390.072 171.857 387.483 174.853 385.112C176.34 383.908 177.907 382.819 179.536 381.788C181.191 380.765 182.872 379.779 184.575 378.819C187.984 376.909 191.475 375.103 195.116 373.561C191.368 374.881 187.739 376.48 184.177 378.188Z" fill="#17282F"/>
<path d="M283.063 383.153H317.771V286.867L283.063 383.153ZM317.771 469.084V416.183H248.915V382.313L307.975 242.361H358.356V383.153H380.189V416.183H358.356V469.084H317.771Z" fill="#17282F"/>
<path d="M461.361 431.137C466.4 431.137 470.039 429.555 472.277 426.379C474.517 423.208 476.008 419.429 476.756 415.043C477.499 410.66 477.876 406.601 477.876 402.867V302.943C477.876 298.84 477.548 294.545 476.896 290.067C476.24 285.588 474.796 281.717 472.557 278.451C470.317 275.188 466.583 273.552 461.361 273.552C456.135 273.552 452.356 275.188 450.025 278.451C447.691 281.717 446.197 285.588 445.547 290.067C444.891 294.545 444.567 298.84 444.567 302.943V402.867C444.567 406.601 444.939 410.66 445.687 415.043C446.431 419.429 448.017 423.208 450.444 426.379C452.868 429.555 456.507 431.137 461.361 431.137ZM461.361 469.204C447.739 469.204 436.449 466.407 427.493 460.807C418.536 455.208 411.819 447.512 407.34 437.715C402.861 427.919 400.623 416.583 400.623 403.707V302.103C400.623 288.855 402.765 277.239 407.06 267.253C411.351 257.273 417.976 249.48 426.933 243.881C435.889 238.284 447.365 235.485 461.361 235.485C475.168 235.485 486.504 238.284 495.369 243.881C504.231 249.48 510.808 257.273 515.103 267.253C519.393 277.239 521.54 288.855 521.54 302.103V403.707C521.54 416.583 519.301 427.919 514.823 437.715C510.344 447.512 503.627 455.208 494.669 460.807C485.713 466.407 474.608 469.204 461.361 469.204Z" fill="#17282F"/>
<path d="M579.199 383.153H613.908V286.867L579.199 383.153ZM613.908 469.084V416.183H545.052V382.313L604.112 242.361H654.492V383.153H676.325V416.183H654.492V469.084H613.908Z" fill="#17282F"/>
<path d="M923.467 359.74C836.297 416.883 664.14 455.776 466.001 455.776C261.785 455.776 85.1636 414.463 0.752075 354.431V584.223H923.467V359.74Z" fill="white"/>
<path d="M904.207 370.553C812.621 421.323 650.581 455.116 466.001 455.109C363.939 455.109 268.773 444.784 188.595 426.964C108.417 409.147 43.2245 383.823 1.138 353.888L0.365601 354.975C42.6906 385.071 108.015 410.419 188.305 428.265C268.595 446.111 363.848 456.442 466.001 456.442C650.753 456.436 812.917 422.664 904.853 371.72L904.207 370.553Z" fill="#17282F"/>
<path d="M923.504 358.921C919.585 361.5 915.492 364.044 911.229 366.548L911.905 367.697C916.185 365.183 920.297 362.627 924.237 360.035L923.504 358.921Z" fill="#17282F"/>
<path d="M867.813 346.423C867.813 380.129 848.913 382.676 825.596 382.676C802.28 382.676 783.377 380.129 783.377 346.423C783.377 312.716 802.28 242.255 825.596 242.255C848.913 242.255 867.813 312.716 867.813 346.423Z" fill="#108598"/>
<path d="M839.871 361.717L832.888 362.197L851.077 349.936L838.087 356.503L839.871 351.372L833.932 358.603L826.967 362.124L826.413 337.919L830.101 328.961L826.323 333.999L826.003 319.963L837.572 304.537L825.923 316.464L825.217 285.573L824.593 305.345L817.172 297.067L824.473 309.143L823.485 340.461L817.025 336.236L811.139 325.8L813.499 333.929L801.943 326.375L823.348 344.837L820.107 447.628H828.92L827.057 366.128L829.093 364.756L839.871 361.717Z" fill="#17282F"/>
<path d="M822.751 448.536C822.751 448.536 807.169 432.392 811.543 432.877C815.917 433.363 824.101 445.436 824.101 445.436C824.101 445.436 824.215 418.821 828.103 424.653C831.989 430.484 827.213 445.547 827.213 445.547C827.213 445.547 838.327 428.209 838.303 431.041C838.225 439.801 829.74 446.655 829.74 446.655C829.74 446.655 847.535 433.471 844.62 438.817C841.704 444.163 830.325 449.215 830.325 449.215C830.325 449.215 850.84 445.076 843.551 447.992C836.261 450.907 829.325 452.909 829.325 452.909H823.657C823.657 452.909 804.285 443.191 811.575 444.648C818.863 446.107 822.751 448.536 822.751 448.536Z" fill="#17282F"/>
<path d="M76.2874 428.491C76.2874 428.491 62.8104 414.525 66.5932 414.947C70.376 415.367 77.4557 425.808 77.4557 425.808C77.4557 425.808 77.553 402.789 80.9161 407.833C84.2786 412.877 80.1469 425.905 80.1469 425.905C80.1469 425.905 89.7598 410.908 89.738 413.359C89.6718 420.936 82.3317 426.863 82.3317 426.863C82.3317 426.863 97.7245 415.461 95.2026 420.084C92.6802 424.707 82.8385 429.076 82.8385 429.076C82.8385 429.076 100.583 425.497 94.2781 428.019C87.9724 430.541 81.9734 432.273 81.9734 432.273H77.0708C77.0708 432.273 60.3156 423.867 66.6202 425.128C72.9254 426.389 76.2874 428.491 76.2874 428.491Z" fill="#17282F"/>
<path d="M125.003 328.048C125.003 361.792 106.081 364.34 82.7391 364.34C59.397 364.34 40.4745 361.792 40.4745 328.048C40.4745 294.304 59.397 223.767 82.7391 223.767C106.081 223.767 125.003 294.304 125.003 328.048Z" fill="#108598"/>
<path d="M97.0287 343.357L90.0385 343.841L108.247 331.565L95.2427 338.139L97.0287 333.004L91.0833 340.24L84.1099 343.765L83.5568 319.535L87.2484 310.567L83.4667 315.609L83.1459 301.56L94.7276 286.117L83.0656 298.057L82.3588 267.132L81.7349 286.925L74.3047 278.637L81.6145 290.728L80.626 322.079L74.1573 317.851L68.264 307.403L70.6271 315.541L59.0599 307.977L80.488 326.46L77.2427 429.364H86.0661L84.2016 347.776L86.2396 346.401L97.0287 343.357Z" fill="#17282F"/>
<path d="M223.84 463.572C223.84 463.572 210.363 449.607 214.145 450.027C217.929 450.448 225.008 460.889 225.008 460.889C225.008 460.889 225.107 437.871 228.469 442.913C231.831 447.959 227.7 460.985 227.7 460.985C227.7 460.985 237.312 445.991 237.291 448.44C237.224 456.017 229.885 461.944 229.885 461.944C229.885 461.944 245.276 450.541 242.755 455.165C240.233 459.789 230.391 464.159 230.391 464.159C230.391 464.159 248.135 460.578 241.829 463.1C235.525 465.623 229.525 467.353 229.525 467.353H224.624C224.624 467.353 207.868 458.948 214.173 460.208C220.477 461.47 223.84 463.572 223.84 463.572Z" fill="#17282F"/>
<path d="M295.375 494.172C295.375 494.172 281.896 480.208 285.68 480.628C289.463 481.048 296.541 491.491 296.541 491.491C296.541 491.491 296.64 468.471 300.003 473.515C303.365 478.559 299.233 491.585 299.233 491.585C299.233 491.585 308.845 476.591 308.824 479.04C308.757 486.617 301.419 492.544 301.419 492.544C301.419 492.544 316.811 481.141 314.288 485.765C311.767 490.389 301.925 494.759 301.925 494.759C301.925 494.759 319.668 491.18 313.364 493.701C307.059 496.223 301.06 497.954 301.06 497.954H296.157C296.157 497.954 279.401 489.548 285.707 490.809C292.012 492.071 295.375 494.172 295.375 494.172Z" fill="#17282F"/>
<path d="M487.245 473.625C487.245 473.625 477.524 463.552 480.252 463.854C482.98 464.159 488.087 471.691 488.087 471.691C488.087 471.691 488.157 455.085 490.583 458.725C493.009 462.363 490.028 471.76 490.028 471.76C490.028 471.76 496.963 460.944 496.947 462.711C496.899 468.176 491.605 472.452 491.605 472.452C491.605 472.452 502.708 464.227 500.888 467.561C499.069 470.897 491.971 474.048 491.971 474.048C491.971 474.048 504.769 471.465 500.221 473.287C495.673 475.105 491.347 476.353 491.347 476.353H487.809C487.809 476.353 475.724 470.291 480.272 471.2C484.82 472.109 487.245 473.625 487.245 473.625Z" fill="#17282F"/>
<path d="M864.615 449.523C864.615 449.523 857.048 441.685 859.172 441.92C861.296 442.156 865.269 448.019 865.269 448.019C865.269 448.019 865.324 435.096 867.212 437.927C869.1 440.759 866.781 448.073 866.781 448.073C866.781 448.073 872.177 439.655 872.165 441.029C872.128 445.283 868.008 448.609 868.008 448.609C868.008 448.609 876.648 442.209 875.232 444.804C873.816 447.4 868.292 449.852 868.292 449.852C868.292 449.852 878.252 447.844 874.713 449.259C871.175 450.676 867.805 451.647 867.805 451.647H865.053C865.053 451.647 855.648 446.928 859.188 447.636C862.727 448.344 864.615 449.523 864.615 449.523Z" fill="#17282F"/>
<path d="M355.191 473.679C355.191 473.679 341.715 459.715 345.496 460.135C349.28 460.556 356.359 470.997 356.359 470.997C356.359 470.997 356.457 447.977 359.82 453.021C363.183 458.065 359.051 471.093 359.051 471.093C359.051 471.093 368.663 456.097 368.641 458.547C368.576 466.125 361.236 472.051 361.236 472.051C361.236 472.051 376.628 460.648 374.107 465.272C371.584 469.896 361.743 474.265 361.743 474.265C361.743 474.265 379.487 470.685 373.181 473.208C366.876 475.73 360.877 477.463 360.877 477.463H355.975C355.975 477.463 339.219 469.056 345.524 470.316C351.829 471.576 355.191 473.679 355.191 473.679Z" fill="#108598"/>
<path d="M257.936 464.403C257.936 464.403 248.899 455.037 251.436 455.319C253.972 455.601 258.719 462.604 258.719 462.604C258.719 462.604 258.785 447.168 261.04 450.549C263.295 453.932 260.524 462.668 260.524 462.668C260.524 462.668 266.969 452.612 266.956 454.254C266.912 459.336 261.989 463.309 261.989 463.309C261.989 463.309 272.311 455.664 270.62 458.764C268.929 461.864 262.329 464.796 262.329 464.796C262.329 464.796 274.228 462.395 270 464.085C265.772 465.777 261.749 466.939 261.749 466.939H258.461C258.461 466.939 247.225 461.3 251.453 462.147C255.681 462.992 257.936 464.403 257.936 464.403Z" fill="#108598"/>
<path d="M145.005 501.389C145.005 501.389 135.968 492.024 138.504 492.306C141.041 492.588 145.788 499.591 145.788 499.591C145.788 499.591 145.855 484.154 148.108 487.536C150.364 490.918 147.593 499.654 147.593 499.654C147.593 499.654 154.039 489.599 154.025 491.241C153.98 496.323 149.059 500.297 149.059 500.297C149.059 500.297 159.38 492.651 157.689 495.751C155.997 498.852 149.397 501.782 149.397 501.782C149.397 501.782 161.297 499.381 157.069 501.073C152.841 502.764 148.817 503.925 148.817 503.925H145.531C145.531 503.925 134.295 498.289 138.523 499.133C142.751 499.979 145.005 501.389 145.005 501.389Z" fill="#108598"/>
<path d="M447.361 503.203C447.361 503.203 438.324 493.84 440.86 494.121C443.397 494.403 448.145 501.405 448.145 501.405C448.145 501.405 448.211 485.968 450.465 489.352C452.72 492.733 449.949 501.47 449.949 501.47C449.949 501.47 456.396 491.413 456.381 493.056C456.336 498.137 451.415 502.112 451.415 502.112C451.415 502.112 461.736 494.465 460.045 497.566C458.355 500.666 451.755 503.596 451.755 503.596C451.755 503.596 463.653 501.196 459.425 502.888C455.197 504.577 451.175 505.74 451.175 505.74H447.887C447.887 505.74 436.652 500.103 440.88 500.948C445.108 501.794 447.361 503.203 447.361 503.203Z" fill="#108598"/>
<path d="M593.992 503.692C593.992 503.692 584.955 494.328 587.492 494.611C590.028 494.892 594.776 501.894 594.776 501.894C594.776 501.894 594.841 486.459 597.096 489.84C599.352 493.223 596.581 501.959 596.581 501.959C596.581 501.959 603.027 491.904 603.012 493.545C602.968 498.627 598.045 502.601 598.045 502.601C598.045 502.601 608.367 494.956 606.676 498.056C604.984 501.156 598.385 504.085 598.385 504.085C598.385 504.085 610.284 501.685 606.056 503.377C601.828 505.068 597.804 506.229 597.804 506.229H594.519C594.519 506.229 583.283 500.592 587.511 501.437C591.739 502.284 593.992 503.692 593.992 503.692Z" fill="#108598"/>
<path d="M866.615 474.4C866.615 474.4 852.855 460.142 856.716 460.572C860.579 461.001 867.805 471.661 867.805 471.661C867.805 471.661 867.907 448.16 871.34 453.309C874.772 458.46 870.555 471.76 870.555 471.76C870.555 471.76 880.368 456.451 880.347 458.951C880.279 466.687 872.785 472.739 872.785 472.739C872.785 472.739 888.5 461.096 885.924 465.817C883.351 470.537 873.303 474.999 873.303 474.999C873.303 474.999 891.417 471.346 884.98 473.919C878.544 476.493 872.419 478.261 872.419 478.261H867.413C867.413 478.261 850.307 469.68 856.744 470.966C863.181 472.253 866.615 474.4 866.615 474.4Z" fill="#108598"/>
<path d="M46.7052 474.4C46.7052 474.4 32.9453 460.142 36.8073 460.572C40.6693 461.001 47.8969 471.661 47.8969 471.661C47.8969 471.661 47.9973 448.16 51.4302 453.309C54.863 458.46 50.6453 471.76 50.6453 471.76C50.6453 471.76 60.4593 456.451 60.4374 458.951C60.3697 466.687 52.876 472.739 52.876 472.739C52.876 472.739 68.5912 461.096 66.0161 465.817C63.4412 470.537 53.3932 474.999 53.3932 474.999C53.3932 474.999 71.5088 471.346 65.0724 473.919C58.6349 476.493 52.5098 478.261 52.5098 478.261H47.5046C47.5046 478.261 30.3978 469.68 36.8354 470.966C43.2718 472.253 46.7052 474.4 46.7052 474.4Z" fill="#108598"/>
<path d="M114.583 454.27C114.583 454.27 100.501 429.985 104.518 428.111C108.534 426.236 116.836 444.712 116.836 444.712C116.836 444.712 115.229 409.903 118.978 413.116C122.726 416.328 126.208 440.964 126.208 440.964C126.208 440.964 133.705 414.185 136.116 419.809C138.525 425.432 134.189 442.448 134.189 442.448C134.189 442.448 144.952 421.952 146.024 428.645C147.095 435.341 140.936 446.319 140.936 446.319C140.936 446.319 155.128 432.128 156.199 437.749C157.269 443.373 152.449 448.997 152.449 448.997C152.449 448.997 171.193 438.821 166.641 444.445C162.089 450.068 155.395 457.297 155.395 457.297C155.395 457.297 173.336 450.871 171.193 454.62C169.052 458.37 161.019 462.385 161.019 462.385C161.019 462.385 175.747 459.708 174.139 462.119C172.533 464.527 168.793 466.895 168.793 466.895H102.108C102.108 466.895 84.4349 460.512 91.3969 459.975C98.3593 459.44 104.786 462.385 104.786 462.385C104.786 462.385 83.0964 447.657 93.2713 446.587C103.447 445.516 111.748 458.37 111.748 458.37C111.748 458.37 97.2885 438.019 102.376 441.232L114.583 454.27Z" fill="#108598"/>
<path d="M115.491 461.179C115.491 461.179 97.3094 442.34 102.412 442.908C107.516 443.473 117.066 457.56 117.066 457.56C117.066 457.56 117.198 426.507 121.734 433.311C126.27 440.116 120.696 457.689 120.696 457.689C120.696 457.689 133.664 437.461 133.636 440.765C133.545 450.987 123.644 458.981 123.644 458.981C123.644 458.981 144.409 443.6 141.007 449.837C137.604 456.075 124.328 461.968 124.328 461.968C124.328 461.968 148.264 457.14 139.759 460.542C131.254 463.946 123.161 466.281 123.161 466.281H116.547C116.547 466.281 93.9438 454.94 102.449 456.641C110.954 458.342 115.491 461.179 115.491 461.179Z" fill="#17282F"/>
<path d="M115.491 461.179L115.97 460.715C115.97 460.715 115.754 460.491 115.373 460.091C114.04 458.688 110.7 455.129 107.705 451.587C106.207 449.816 104.795 448.048 103.771 446.569C103.259 445.832 102.844 445.165 102.568 444.621C102.287 444.085 102.166 443.648 102.175 443.508L102.178 443.471H102.177L102.008 443.415L102.095 443.568L102.177 443.471L102.008 443.415L102.095 443.568L102.096 443.569L102.2 443.561L102.338 443.569C103.342 443.664 104.856 444.569 106.418 445.939C108.776 447.985 111.316 450.995 113.248 453.483C114.216 454.727 115.034 455.841 115.609 456.644C115.896 457.045 116.123 457.37 116.278 457.592C116.433 457.815 116.514 457.933 116.514 457.933L117.723 459.717L117.732 457.563C117.732 457.559 117.739 455.995 117.801 453.636C117.894 450.1 118.113 444.791 118.617 440.393C118.868 438.197 119.194 436.224 119.596 434.851C119.794 434.165 120.016 433.631 120.218 433.321C120.317 433.165 120.409 433.072 120.462 433.033L120.512 433.004L120.514 433.003C120.514 433.003 120.555 432.997 120.681 433.096C120.804 433.191 120.981 433.383 121.179 433.681C122.371 435.455 122.851 438.213 122.845 441.233C122.846 444.941 122.152 449.02 121.454 452.159C121.105 453.728 120.755 455.064 120.494 456.005C120.364 456.477 120.255 456.849 120.179 457.103C120.103 457.356 120.061 457.488 120.061 457.488L118.537 462.295L121.258 458.049C121.259 458.047 121.948 456.972 123.011 455.354C124.606 452.928 127.037 449.285 129.217 446.261C130.306 444.749 131.334 443.391 132.151 442.427C132.558 441.947 132.915 441.564 133.182 441.321C133.314 441.201 133.425 441.116 133.489 441.077L133.536 441.052L133.431 440.775V441.067L133.536 441.052L133.431 440.775V441.067V440.579L133.192 441.003L133.431 441.067V440.579L133.192 441.003L133.417 440.604L132.978 440.76C132.991 440.807 133.058 440.929 133.192 441.003L133.417 440.604L132.978 440.76L133.154 440.697L132.967 440.723L132.978 440.76L133.154 440.697L132.967 440.723L132.969 440.755V440.761V440.76C132.931 445.651 130.517 450.091 128.075 453.304C126.857 454.909 125.638 456.205 124.726 457.096C124.271 457.541 123.893 457.887 123.63 458.117C123.498 458.233 123.395 458.321 123.326 458.378L123.225 458.463L124.041 459.517C124.044 459.516 124.934 458.856 126.321 457.863C128.401 456.371 131.591 454.133 134.517 452.276C135.98 451.348 137.379 450.515 138.527 449.923C139.1 449.627 139.611 449.391 140.024 449.236C140.435 449.077 140.761 449.011 140.883 449.015L140.919 449.017H140.921L140.991 448.745L140.773 448.908L140.921 449.017L140.991 448.745L140.773 448.908L141.02 448.723L140.723 448.808L140.773 448.908L141.02 448.723L140.723 448.808L140.836 448.776H140.716L140.723 448.808L140.836 448.776H140.716C140.727 448.8 140.659 449.096 140.421 449.517C138.861 452.415 134.753 455.453 131.047 457.671C129.195 458.785 127.443 459.709 126.157 460.354C125.514 460.676 124.986 460.928 124.621 461.1C124.256 461.271 124.057 461.359 124.057 461.359L118.51 463.821L124.459 462.623C124.461 462.621 125.274 462.458 126.552 462.211C128.468 461.84 131.423 461.284 134.209 460.821C136.987 460.359 139.635 459.992 140.797 459.995C141.02 459.993 141.187 460.012 141.229 460.024L141.231 460.017L141.229 460.023V460.024L141.231 460.017L141.229 460.023L141.381 459.627L141.085 459.924L141.229 460.023L141.381 459.627L141.085 459.924L141.489 459.52H140.92C140.915 459.68 141.007 459.853 141.085 459.924L141.489 459.52H140.92H141.441L140.997 459.239C140.971 459.281 140.921 459.375 140.92 459.52H141.441L140.997 459.239L141.209 459.373L141.036 459.189L140.997 459.239L141.209 459.373L141.036 459.189C141.031 459.2 140.876 459.311 140.619 459.437C140.36 459.57 139.991 459.732 139.512 459.924C135.277 461.617 131.14 463.048 128.063 464.054C126.525 464.558 125.252 464.954 124.364 465.225C123.475 465.496 122.977 465.64 122.976 465.64L123.161 466.281V465.615H116.547V466.281L116.846 465.685C116.843 465.684 115.849 465.185 114.352 464.409C112.105 463.247 108.734 461.465 105.936 459.84C104.539 459.027 103.284 458.252 102.398 457.624C101.957 457.312 101.607 457.033 101.394 456.827L101.19 456.6L101.177 456.58L101.067 456.641L101.186 456.604L101.177 456.58L101.067 456.641L101.186 456.604L100.825 456.717H101.202L101.186 456.604L100.825 456.717H101.202H100.715L101.107 457.005L101.202 456.717H100.715L101.107 457.005L100.757 456.748L100.976 457.125L101.107 457.005L100.757 456.748L100.976 457.125L100.853 456.912L100.93 457.147L100.976 457.125L100.853 456.912L100.93 457.147H100.933L101.105 457.135C101.336 457.133 101.749 457.181 102.318 457.296C106.523 458.136 109.741 459.256 111.902 460.163C112.982 460.616 113.797 461.015 114.34 461.299C114.611 461.441 114.814 461.554 114.947 461.631L115.095 461.717L115.137 461.744L119.74 464.621L115.97 460.715L115.491 461.179L115.844 460.613C115.791 460.58 111.181 457.708 102.58 455.988C101.961 455.865 101.491 455.803 101.105 455.801C100.858 455.804 100.644 455.819 100.397 455.925C100.276 455.98 100.14 456.07 100.032 456.216C99.9229 456.361 99.8661 456.556 99.8687 456.717C99.8863 457.108 100.049 457.3 100.2 457.5C100.499 457.859 100.936 458.212 101.511 458.629C103.51 460.065 107.171 462.109 110.361 463.817C113.547 465.521 116.245 466.875 116.248 466.877L116.389 466.948H123.255L123.346 466.921C123.358 466.917 131.464 464.578 140.007 461.161C140.664 460.899 141.139 460.683 141.484 460.487C141.657 460.388 141.797 460.297 141.929 460.179L142.124 459.952C142.185 459.854 142.252 459.712 142.253 459.52C142.255 459.383 142.211 459.233 142.141 459.124C142.015 458.928 141.868 458.849 141.757 458.799C141.587 458.727 141.448 458.705 141.295 458.685C141.141 458.668 140.979 458.661 140.797 458.661C139.875 458.664 138.42 458.832 136.701 459.081C131.564 459.828 124.202 461.315 124.196 461.315L124.328 461.968L124.598 462.577C124.614 462.571 127.952 461.089 131.735 458.813C135.517 456.524 139.749 453.497 141.592 450.156C141.869 449.635 142.04 449.232 142.049 448.776C142.059 448.503 141.944 448.149 141.677 447.937C141.415 447.727 141.128 447.684 140.883 447.681C140.328 447.691 139.759 447.892 139.048 448.195C136.605 449.261 132.698 451.808 129.347 454.107C126.004 456.404 123.252 458.442 123.247 458.446L123.644 458.981L124.064 459.5C124.09 459.477 126.6 457.451 129.137 454.109C131.669 450.769 134.251 446.101 134.301 440.771V440.769L134.303 440.755C134.299 440.569 134.287 440.377 134.156 440.147C134.091 440.035 133.983 439.917 133.845 439.84C133.708 439.763 133.556 439.733 133.431 439.733C133.04 439.752 132.847 439.905 132.62 440.057C132.214 440.36 131.771 440.824 131.24 441.44C129.402 443.583 126.643 447.536 124.321 450.977C122.004 454.416 120.137 457.328 120.135 457.331L120.696 457.689L121.332 457.892C121.338 457.859 124.173 448.965 124.179 441.233C124.173 438.084 123.72 435.104 122.288 432.941C122.038 432.567 121.788 432.272 121.506 432.048C121.226 431.827 120.887 431.669 120.514 431.669C120.086 431.668 119.713 431.883 119.453 432.148C118.962 432.655 118.66 433.373 118.371 434.292C117.881 435.895 117.526 438.121 117.253 440.592C116.438 447.993 116.399 457.545 116.399 457.558L117.066 457.56L117.618 457.185C117.61 457.175 115.214 453.64 112.162 450.016C110.636 448.204 108.947 446.369 107.292 444.932C105.628 443.503 104.034 442.433 102.485 442.245L102.2 442.228C101.866 442.228 101.508 442.304 101.223 442.564C100.936 442.825 100.837 443.2 100.842 443.508C100.855 444.14 101.125 444.751 101.524 445.5C102.933 448.071 106.281 452.054 109.306 455.463C112.326 458.86 115.007 461.637 115.011 461.641L115.491 461.179Z" fill="#17282F"/>
<path d="M714.257 496.996C714.257 496.996 687.641 451.095 695.233 447.553C702.825 444.011 718.516 478.932 718.516 478.932C718.516 478.932 715.477 413.136 722.564 419.209C729.649 425.284 736.229 471.847 736.229 471.847C736.229 471.847 750.401 421.235 754.956 431.863C759.511 442.492 751.315 474.652 751.315 474.652C751.315 474.652 771.657 435.911 773.683 448.565C775.707 461.217 764.067 481.968 764.067 481.968C764.067 481.968 790.891 455.144 792.915 465.773C794.939 476.403 785.829 487.029 785.829 487.029C785.829 487.029 821.257 467.797 812.653 478.425C804.049 489.054 791.397 502.72 791.397 502.72C791.397 502.72 825.307 490.573 821.257 497.659C817.208 504.744 802.024 512.336 802.024 512.336C802.024 512.336 829.861 507.275 826.825 511.831C823.788 516.385 816.719 520.858 816.719 520.858H690.679C690.679 520.858 657.275 508.793 670.433 507.781C683.592 506.77 695.74 512.336 695.74 512.336C695.74 512.336 654.744 484.5 673.976 482.475C693.208 480.451 708.899 504.744 708.899 504.744C708.899 504.744 681.568 466.279 691.185 472.352L714.257 496.996Z" fill="#108598"/>
<path d="M715.972 510.053C715.972 510.053 681.608 474.448 691.252 475.519C700.899 476.591 718.949 503.216 718.949 503.216C718.949 503.216 719.199 444.52 727.773 457.381C736.347 470.241 725.812 503.461 725.812 503.461C725.812 503.461 750.323 465.225 750.268 471.471C750.099 490.792 731.384 505.903 731.384 505.903C731.384 505.903 770.631 476.829 764.2 488.619C757.769 500.408 732.676 511.549 732.676 511.549C732.676 511.549 777.917 502.423 761.843 508.852C745.765 515.284 730.469 519.699 730.469 519.699H717.969C717.969 519.699 675.247 498.264 691.323 501.479C707.399 504.695 715.972 510.053 715.972 510.053Z" fill="#17282F"/>
<path d="M715.972 510.053L716.452 509.591C716.451 509.589 716.041 509.165 715.32 508.405C712.796 505.749 706.479 499.019 700.803 492.308C697.965 488.953 695.288 485.601 693.333 482.78C692.356 481.371 691.56 480.093 691.019 479.029C690.472 477.972 690.203 477.105 690.212 476.654C690.216 476.395 690.271 476.327 690.312 476.287C690.353 476.245 690.495 476.163 690.852 476.163C690.948 476.163 691.057 476.168 691.179 476.181C693.319 476.403 696.215 478.185 699.212 480.803C703.724 484.717 708.536 490.425 712.203 495.144C714.037 497.504 715.587 499.617 716.677 501.14C717.223 501.901 717.653 502.515 717.948 502.937C718.241 503.36 718.397 503.589 718.397 503.591L719.607 505.375L719.616 503.219C719.616 503.217 719.619 502.477 719.637 501.176C719.699 496.623 719.943 485.225 720.857 474.991C721.315 469.876 721.943 465.047 722.788 461.541C723.208 459.791 723.688 458.37 724.193 457.444C724.444 456.981 724.701 456.647 724.924 456.454C725.152 456.26 725.313 456.208 725.469 456.205C725.625 456.205 725.844 456.268 726.151 456.508C726.455 456.745 726.821 457.154 727.219 457.751C729.579 461.276 730.473 466.589 730.467 472.353C730.468 479.435 729.147 487.177 727.823 493.135C727.16 496.113 726.497 498.648 726.001 500.436C725.753 501.331 725.547 502.037 725.403 502.521C725.257 503.004 725.177 503.259 725.177 503.259L723.652 508.065L726.373 503.82C726.375 503.819 726.7 503.312 727.279 502.419C729.301 499.296 734.407 491.481 739.341 484.456C741.808 480.946 744.232 477.631 746.197 475.209C747.179 473.999 748.048 473.011 748.733 472.347C749.073 472.016 749.371 471.765 749.592 471.615L749.848 471.466L749.903 471.447L749.881 471.363V471.448L749.903 471.447L749.881 471.363V471.448V471.117L749.721 471.403L749.881 471.448V471.117L749.721 471.403L749.893 471.096L749.613 471.311L749.721 471.403L749.893 471.096L749.613 471.311L749.785 471.179L749.585 471.265L749.613 471.311L749.785 471.179L749.585 471.265L749.601 471.451V471.487L750.268 471.471L749.601 471.465C749.524 480.905 744.887 489.4 740.232 495.529C737.907 498.592 735.584 501.063 733.845 502.763C732.976 503.613 732.252 504.271 731.748 504.715C731.496 504.937 731.299 505.105 731.165 505.217C731.032 505.329 730.965 505.383 730.965 505.384L731.781 506.437C731.781 506.437 732.203 506.125 732.953 505.577C735.581 503.658 742.235 498.853 748.815 494.536C752.104 492.378 755.376 490.342 758.105 488.854C759.469 488.111 760.699 487.504 761.713 487.091C762.723 486.675 763.541 486.465 763.965 486.472L764.193 486.496L764.243 486.515L764.263 486.485L764.231 486.5L764.243 486.515L764.263 486.485L764.231 486.5L764.245 486.613C764.255 486.852 764.083 487.456 763.615 488.299C760.54 493.972 752.721 499.711 745.683 503.933C742.164 506.052 738.84 507.805 736.399 509.028C735.177 509.64 734.177 510.119 733.484 510.444C732.789 510.77 732.407 510.94 732.405 510.94L726.861 513.401L732.808 512.203C732.812 512.201 734.351 511.892 736.768 511.424C740.393 510.723 745.983 509.671 751.257 508.795C756.524 507.919 761.516 507.221 763.805 507.225C764.252 507.224 764.595 507.254 764.756 507.295L764.835 507.317L764.84 507.319L764.969 507.048L764.745 507.239L764.84 507.319L764.969 507.048L764.745 507.239L765.12 506.92H764.631L764.745 507.239L765.12 506.92H764.631H765.023L764.685 506.707C764.673 506.724 764.632 506.795 764.631 506.92H765.023L764.685 506.707L764.788 506.772L764.691 506.699L764.685 506.707L764.788 506.772L764.691 506.699L764.643 506.744C764.523 506.854 764.193 507.068 763.685 507.319C763.176 507.573 762.483 507.878 761.595 508.233C753.575 511.441 745.744 514.149 739.92 516.053C737.007 517.007 734.597 517.758 732.916 518.271C731.233 518.784 730.287 519.058 730.284 519.059L730.469 519.699V519.032H717.969V519.699L718.268 519.103C718.267 519.103 717.797 518.866 716.971 518.447C714.079 516.976 706.843 513.258 700.341 509.596C697.092 507.765 694.024 505.948 691.788 504.446C690.672 503.695 689.761 503.019 689.156 502.48C688.853 502.211 688.628 501.975 688.5 501.803L688.379 501.612L688.368 501.585L688.217 501.623H688.372L688.368 501.585L688.217 501.623H688.372H688.045L688.307 501.816L688.372 501.623H688.045L688.307 501.816L688.124 501.681L688.24 501.88L688.307 501.816L688.124 501.681L688.24 501.88L688.265 501.871C688.329 501.847 688.512 501.816 688.783 501.817C689.288 501.816 690.095 501.912 691.192 502.133C699.183 503.731 705.303 505.861 709.419 507.587C711.476 508.449 713.033 509.212 714.072 509.756C714.592 510.028 714.983 510.247 715.24 510.395C715.369 510.47 715.467 510.525 715.529 510.564L715.619 510.619L720.22 513.495L716.452 509.591L715.972 510.053L716.325 509.488C716.272 509.454 707.624 504.061 691.453 500.825C690.307 500.597 689.443 500.485 688.783 500.484C688.36 500.487 688.02 500.521 687.691 500.665C687.528 500.739 687.36 500.852 687.232 501.027C687.103 501.199 687.036 501.425 687.039 501.623C687.056 502.099 687.275 502.399 687.531 502.725C688.025 503.323 688.828 503.983 689.896 504.754C693.619 507.432 700.539 511.299 706.557 514.52C712.572 517.737 717.667 520.293 717.669 520.295L717.811 520.365H730.563L730.653 520.34C730.665 520.336 745.976 515.917 762.089 509.472C763.319 508.98 764.2 508.577 764.808 508.232C765.113 508.058 765.351 507.901 765.545 507.727C765.643 507.637 765.732 507.544 765.811 507.42C765.888 507.297 765.963 507.132 765.964 506.92C765.965 506.768 765.917 506.605 765.839 506.483C765.7 506.264 765.527 506.166 765.38 506.1C765.155 506.003 764.935 505.964 764.677 505.932C764.423 505.904 764.133 505.892 763.805 505.892C762.132 505.893 759.384 506.209 756.151 506.679C746.467 508.087 732.549 510.895 732.544 510.896L732.676 511.549L732.947 512.159C732.961 512.152 739.255 509.358 746.371 505.076C753.485 500.781 761.429 495.054 764.785 488.937C765.292 487.995 765.569 487.283 765.579 486.613C765.587 486.208 765.433 485.76 765.091 485.485C764.752 485.212 764.355 485.14 763.965 485.139C763.089 485.147 762.04 485.496 760.733 486.058C756.208 488.029 748.815 492.84 742.497 497.179C736.188 501.513 730.991 505.364 730.987 505.366L731.384 505.903L731.803 506.421C731.829 506.399 736.544 502.592 741.293 496.335C746.039 490.078 750.843 481.358 750.935 471.477V471.47V471.456L750.715 471.461H750.935V471.456L750.715 471.461H750.935V471.451C750.931 471.158 750.903 470.887 750.743 470.604C750.661 470.465 750.535 470.329 750.375 470.24C750.215 470.151 750.036 470.113 749.881 470.115C749.399 470.133 749.081 470.347 748.701 470.612C748.009 471.125 747.18 471.987 746.192 473.133C742.755 477.136 737.537 484.609 733.156 491.105C728.779 497.597 725.253 503.099 725.251 503.101L725.812 503.461L726.448 503.663C726.455 503.629 731.795 486.832 731.8 472.353C731.795 466.459 730.927 460.927 728.328 457.012C727.879 456.339 727.439 455.827 726.976 455.46C726.515 455.097 726.005 454.872 725.469 454.872C724.855 454.871 724.307 455.173 723.883 455.604C723.084 456.419 722.511 457.715 721.984 459.408C721.077 462.37 720.407 466.559 719.893 471.209C718.359 485.151 718.283 503.201 718.283 503.213L718.949 503.216L719.501 502.841C719.493 502.831 714.972 496.161 709.228 489.34C706.355 485.929 703.177 482.48 700.087 479.796C696.987 477.119 694.009 475.172 691.327 474.858C691.161 474.839 691.004 474.829 690.852 474.829C690.305 474.828 689.793 474.954 689.408 475.307C689.02 475.661 688.873 476.173 688.879 476.654C688.892 477.641 689.356 478.764 690.096 480.137C692.695 484.891 699.02 492.435 704.725 498.854C710.427 505.266 715.489 510.512 715.493 510.516L715.972 510.053Z" fill="#17282F"/>
<path d="M160.451 455.644C160.451 455.644 163.173 453.184 165.508 453.184C167.843 453.184 174.975 456.612 174.975 456.612C174.975 456.612 177.828 461.007 178.087 461.271C178.345 461.533 181.847 463.028 182.107 463.644C182.365 464.259 182.885 466.281 182.885 466.281H161.099L157.079 455.733L160.451 455.644Z" fill="white"/>
<path d="M160.451 455.644L160.897 456.139L161.004 456.047C161.261 455.827 161.96 455.26 162.817 454.76C163.672 454.258 164.692 453.842 165.508 453.851C165.94 453.844 166.804 454.039 167.767 454.353C169.224 454.823 170.963 455.54 172.328 456.137C173.011 456.437 173.601 456.707 174.021 456.9C174.44 457.095 174.685 457.212 174.685 457.212L174.975 456.612L174.416 456.975C174.416 456.976 175.129 458.075 175.876 459.209C176.251 459.776 176.632 460.352 176.939 460.805C177.092 461.032 177.227 461.228 177.333 461.378L177.476 461.576L177.611 461.737L177.612 461.739L177.812 461.896C178.021 462.028 178.321 462.177 178.707 462.371C179.276 462.658 179.999 463.013 180.587 463.342C180.88 463.507 181.14 463.664 181.316 463.791L181.504 463.942L181.527 463.965L181.745 463.797L181.492 463.904L181.527 463.965L181.745 463.797L181.492 463.904C181.592 464.133 181.793 464.804 181.951 465.372C182.111 465.947 182.239 466.446 182.239 466.447L182.885 466.281V465.615H161.559L158.037 456.375L160.715 456.304L160.897 456.139L160.451 455.644L160.433 454.977L156.12 455.091L160.64 466.948H183.744L183.531 466.115C183.529 466.113 183.399 465.604 183.235 465.015C183.068 464.419 182.881 463.77 182.721 463.385C182.596 463.115 182.451 463 182.295 462.863C182.021 462.637 181.675 462.425 181.28 462.203C180.693 461.872 180.012 461.533 179.457 461.256C179.181 461.119 178.937 460.996 178.76 460.901L178.556 460.788L178.517 460.763L178.328 461.032L178.561 460.803L178.517 460.763L178.328 461.032L178.561 460.803L178.563 460.804L178.327 461.035L178.576 460.819L178.563 460.804L178.327 461.035L178.576 460.819C178.575 460.819 178.489 460.707 178.389 460.563C178.024 460.041 177.305 458.956 176.684 458.011C176.061 457.063 175.535 456.251 175.533 456.249L175.432 456.092L175.264 456.011C175.256 456.008 173.465 455.147 171.371 454.281C170.323 453.848 169.2 453.415 168.176 453.084C167.145 452.756 166.244 452.523 165.508 452.517C164.107 452.527 162.775 453.209 161.748 453.851C160.725 454.497 160.021 455.133 160.004 455.149L160.451 455.644Z" fill="#17282F"/>
<path d="M165.508 453.184L165.379 455.259C165.379 455.259 170.955 458.5 170.825 459.668C170.695 460.835 169.528 463.558 169.528 463.558L172.381 466.54H157.209L158.376 457.592C158.376 457.592 161.617 452.924 165.508 453.184Z" fill="#17282F"/>
<path d="M132.052 454.351C132.052 454.351 142.944 438.012 145.408 437.752C147.872 437.493 153.059 439.568 155.004 442.939C156.949 446.311 158.765 452.924 158.895 453.313C159.024 453.703 159.543 453.961 162.525 458.76C165.508 463.558 165.379 466.281 165.379 466.281H123.234C123.234 466.281 124.141 462.001 125.697 459.537C127.254 457.073 130.885 456.166 130.885 456.166L132.052 454.351Z" fill="white"/>
<path d="M132.052 454.351L132.606 454.721C132.608 454.719 133.284 453.705 134.34 452.173C135.925 449.875 138.364 446.42 140.624 443.529C141.755 442.084 142.841 440.779 143.741 439.843C144.191 439.375 144.595 438.999 144.916 438.751C145.076 438.627 145.216 438.535 145.32 438.481L145.441 438.427L145.477 438.416C145.591 438.404 145.715 438.397 145.848 438.397C146.981 438.392 148.753 438.867 150.404 439.732C152.061 440.593 153.607 441.841 154.427 443.272C155.355 444.876 156.293 447.355 156.999 449.457C157.352 450.509 157.649 451.472 157.867 452.195C157.976 452.556 158.064 452.858 158.131 453.081C158.197 453.311 158.236 453.442 158.261 453.524C158.335 453.737 158.441 453.888 158.56 454.049C158.743 454.297 159.024 454.652 159.553 455.412C160.08 456.17 160.845 457.32 161.959 459.112C164.643 463.432 164.711 465.956 164.712 466.229V466.252L164.825 466.254L164.712 466.249V466.252L164.825 466.254L164.712 466.249L165.379 466.281V465.615H123.234V466.281L123.886 466.419C123.886 466.419 123.94 466.165 124.047 465.735C124.362 464.448 125.174 461.603 126.261 459.893C126.928 458.828 128.123 458.031 129.166 457.528C129.685 457.276 130.163 457.095 130.507 456.979C130.679 456.92 130.817 456.877 130.911 456.851L131.017 456.821L131.046 456.813L131.303 456.749L132.612 454.712L132.052 454.351L131.491 453.991L130.324 455.805L130.885 456.166L130.723 455.52C130.694 455.528 129.748 455.764 128.584 456.328C127.422 456.896 126.023 457.784 125.134 459.181C124.298 460.509 123.677 462.231 123.244 463.639C122.814 465.044 122.584 466.129 122.581 466.142L122.411 466.948H166.015L166.044 466.312L166.045 466.229C166.047 465.709 165.896 462.916 163.092 458.408C161.595 456 160.709 454.72 160.179 453.992C159.915 453.628 159.737 453.4 159.633 453.259L159.536 453.119L159.525 453.1L159.499 453.112L159.527 453.103L159.525 453.1L159.499 453.112L159.527 453.103C159.521 453.087 159.475 452.928 159.409 452.707C159.179 451.917 158.659 450.155 157.981 448.213C157.303 446.269 156.472 444.153 155.583 442.605H155.581C154.567 440.855 152.832 439.499 151.02 438.551C149.2 437.607 147.312 437.069 145.848 437.064C145.673 437.064 145.503 437.072 145.339 437.089C145.017 437.128 144.764 437.255 144.5 437.416C144.012 437.721 143.491 438.192 142.899 438.796C140.844 440.904 138.016 444.68 135.673 447.955C133.335 451.224 131.499 453.977 131.497 453.981L131.494 453.987L131.491 453.991L132.052 454.351Z" fill="#17282F"/>
<path d="M148.78 466.021C148.78 466.021 147.612 463.17 147.483 462.78C147.353 462.391 147.353 458.629 146.964 457.073C146.576 455.517 143.333 450.72 143.333 450.72L145.667 443.976L144.5 443.069L146.445 438.271L145.357 437.767C142.803 438.225 132.052 454.351 132.052 454.351L130.885 456.166C130.885 456.166 127.254 457.073 125.697 459.537C124.367 461.644 123.513 465.071 123.292 466.021H148.78Z" fill="#17282F"/>
<path d="M580.44 459.708C580.44 459.708 582.148 458.165 583.612 458.165C585.076 458.165 589.547 460.315 589.547 460.315C589.547 460.315 591.336 463.072 591.499 463.236C591.661 463.401 593.857 464.339 594.02 464.724C594.183 465.111 594.507 466.377 594.507 466.377H580.848L578.327 459.764L580.44 459.708Z" fill="white"/>
<path d="M580.44 459.708L580.887 460.203L580.948 460.149C581.103 460.019 581.531 459.671 582.049 459.37C582.565 459.063 583.177 458.825 583.612 458.832C583.825 458.827 584.36 458.94 584.952 459.136C585.851 459.425 586.936 459.872 587.788 460.245C588.213 460.432 588.583 460.6 588.844 460.721C589.105 460.842 589.257 460.916 589.257 460.916L589.547 460.315L588.988 460.677C588.988 460.679 589.436 461.368 589.905 462.08C590.14 462.436 590.38 462.797 590.573 463.084C590.669 463.227 590.755 463.351 590.824 463.448L590.917 463.577L591.025 463.705L591.024 463.703L591.192 463.836C591.347 463.933 591.532 464.025 591.776 464.148C592.135 464.328 592.585 464.549 592.945 464.752C593.124 464.852 593.281 464.948 593.379 465.019L593.469 465.089V465.091L593.743 464.84L593.405 464.983L593.469 465.091L593.743 464.84L593.405 464.983C593.456 465.099 593.585 465.523 593.681 465.873C593.781 466.232 593.86 466.541 593.86 466.542L594.507 466.377V465.711H581.307L579.285 460.405L580.457 460.375L580.704 460.368L580.887 460.203L580.44 459.708L580.423 459.041L577.369 459.123L580.388 467.044H595.365L595.152 466.212C595.152 466.209 595.069 465.889 594.967 465.517C594.86 465.139 594.745 464.735 594.633 464.465V464.464C594.521 464.223 594.407 464.142 594.296 464.042C594.101 463.883 593.877 463.748 593.624 463.604C593.247 463.392 592.817 463.179 592.469 463.004C592.297 462.919 592.144 462.841 592.037 462.785L591.923 462.72L591.912 462.713L591.651 463.085L591.973 462.768L591.912 462.713L591.651 463.085L591.973 462.768L591.972 462.765L591.717 463.019L591.996 462.792L591.972 462.765L591.717 463.019L591.996 462.792C591.973 462.766 591.809 462.533 591.623 462.256C591.049 461.407 590.108 459.954 590.105 459.952L590.004 459.795L589.836 459.715C589.829 459.711 588.703 459.17 587.383 458.624C586.721 458.351 586.013 458.077 585.361 457.866C584.703 457.659 584.129 457.504 583.612 457.499C582.647 457.509 581.785 457.961 581.121 458.373C580.461 458.791 580.012 459.197 579.993 459.213L580.44 459.708Z" fill="#17282F"/>
<path d="M583.612 458.165L583.529 459.465C583.529 459.465 587.025 461.5 586.945 462.232C586.864 462.963 586.133 464.671 586.133 464.671L587.92 466.54H578.408L579.139 460.929C579.139 460.929 581.172 458.003 583.612 458.165Z" fill="#17282F"/>
<path d="M562.635 458.897C562.635 458.897 569.464 448.652 571.009 448.489C572.553 448.328 575.805 449.628 577.025 451.741C578.245 453.856 579.384 458.003 579.465 458.247C579.547 458.491 579.871 458.653 581.743 461.661C583.612 464.671 583.529 466.377 583.529 466.377H557.105C557.105 466.377 557.675 463.695 558.649 462.149C559.627 460.605 561.903 460.036 561.903 460.036L562.635 458.897Z" fill="white"/>
<path d="M562.635 458.897L563.189 459.266C563.189 459.265 563.612 458.632 564.275 457.672C565.267 456.233 566.793 454.071 568.205 452.264C568.911 451.363 569.588 450.549 570.143 449.972C570.419 449.684 570.665 449.455 570.852 449.312L571.069 449.167L571.112 449.147L571.064 449.009L571.079 449.152L571.112 449.147L571.064 449.009L571.079 449.152L571.283 449.143C571.932 449.137 573.021 449.424 574.025 449.952C575.036 450.476 575.971 451.237 576.448 452.075C577.013 453.051 577.601 454.597 578.04 455.908C578.261 456.565 578.447 457.165 578.583 457.617C578.651 457.842 578.705 458.031 578.747 458.172C578.789 458.316 578.812 458.395 578.832 458.456L578.833 458.46C578.893 458.636 578.98 458.752 579.056 458.856C579.175 459.017 579.344 459.231 579.673 459.704C580.001 460.175 580.479 460.893 581.176 462.013C582.835 464.685 582.863 466.217 582.864 466.344V466.356L583.115 466.36L582.864 466.351V466.356L583.115 466.36L582.864 466.351L583.529 466.377V465.711H557.105V466.377L557.757 466.516C557.757 466.515 557.791 466.361 557.856 466.095C558.049 465.3 558.561 463.525 559.213 462.505C559.591 461.9 560.301 461.416 560.933 461.113C561.248 460.961 561.537 460.851 561.745 460.78L561.988 460.704L562.049 460.687L562.064 460.683L562.32 460.619L563.195 459.258L562.635 458.897L562.073 458.536L561.341 459.676L561.903 460.036L561.74 459.389C561.711 459.397 561.104 459.549 560.351 459.913C559.601 460.281 558.685 460.854 558.087 461.793H558.085C557.541 462.663 557.149 463.754 556.875 464.648C556.601 465.54 556.456 466.227 556.453 466.239L556.283 467.044H584.171L584.196 466.404L584.197 466.344C584.199 465.97 584.088 464.17 582.308 461.309C581.367 459.796 580.808 458.988 580.472 458.525C580.304 458.296 580.191 458.149 580.128 458.064L580.08 457.995L579.912 458.096L580.096 458.035L580.08 457.995L579.912 458.096L580.096 458.035L580.097 458.039C580.097 458.039 580.067 457.935 580.027 457.797C579.881 457.3 579.555 456.191 579.128 454.966C578.699 453.741 578.176 452.407 577.604 451.409L577.603 451.408C576.929 450.251 575.807 449.38 574.641 448.769C573.468 448.164 572.263 447.815 571.283 447.809L570.94 447.827H570.939C570.675 447.859 570.492 447.956 570.308 448.067C569.971 448.28 569.636 448.584 569.257 448.971C567.948 450.315 566.176 452.684 564.703 454.741C563.233 456.795 562.081 458.523 562.079 458.527L562.076 458.531L562.073 458.536L562.635 458.897Z" fill="#17282F"/>
<path d="M573.123 466.215C573.123 466.215 572.391 464.427 572.309 464.183C572.229 463.939 572.229 461.58 571.984 460.605C571.741 459.628 569.708 456.621 569.708 456.621L571.172 452.393L570.44 451.824L571.659 448.815L570.976 448.499C569.375 448.787 562.635 458.897 562.635 458.897L561.903 460.036C561.903 460.036 559.627 460.605 558.649 462.149C557.816 463.471 557.28 465.619 557.141 466.215H573.123Z" fill="#17282F"/>
<path d="M800.952 499.596C800.952 499.596 806.099 494.944 810.511 494.944C814.921 494.944 828.403 501.423 828.403 501.423C828.403 501.423 833.796 509.731 834.285 510.229C834.776 510.728 841.393 513.552 841.884 514.715C842.373 515.877 843.355 519.699 843.355 519.699H802.177L794.58 499.761L800.952 499.596Z" fill="white"/>
<path d="M800.952 499.596L801.399 500.091L801.451 500.044C801.723 499.805 803.04 498.676 804.775 497.621C806.505 496.561 808.663 495.601 810.511 495.611C811.461 495.605 813.112 495.989 814.963 496.591C817.749 497.489 821.047 498.849 823.637 499.984C824.933 500.551 826.053 501.061 826.849 501.429C827.645 501.799 828.112 502.023 828.113 502.024L828.403 501.423L827.843 501.785C827.844 501.787 829.192 503.864 830.604 506.005C831.309 507.076 832.029 508.163 832.607 509.016C832.896 509.442 833.148 509.811 833.347 510.092C833.447 510.233 833.533 510.352 833.605 510.449L833.809 510.696L834.087 510.911C834.429 511.128 835.001 511.417 835.723 511.78C836.797 512.319 838.169 512.993 839.301 513.627C839.867 513.942 840.372 514.249 840.736 514.511C840.917 514.641 841.063 514.76 841.157 514.852L841.257 514.96L841.275 514.983L841.333 514.947L841.269 514.973L841.275 514.983L841.333 514.947L841.269 514.973C841.484 515.479 841.859 516.735 842.16 517.821C842.465 518.915 842.708 519.863 842.708 519.864L843.355 519.699V519.032H802.636L795.537 500.404L801.216 500.256L801.399 500.091L800.952 499.596L800.935 498.929L793.621 499.12L801.717 520.365H844.213L844 519.533C843.999 519.531 843.753 518.572 843.445 517.464C843.133 516.349 842.773 515.113 842.499 514.456V514.454C842.344 514.117 842.125 513.921 841.861 513.695C841.399 513.313 840.76 512.92 840.031 512.508C838.94 511.893 837.659 511.258 836.612 510.733C836.089 510.472 835.625 510.239 835.28 510.056C835.108 509.964 834.965 509.885 834.868 509.825L834.759 509.756L834.74 509.742L834.595 509.924L834.76 509.761L834.74 509.742L834.595 509.924L834.76 509.761H834.761L834.736 509.785L834.763 509.763L834.761 509.761L834.736 509.785L834.763 509.763C834.724 509.721 834.568 509.512 834.372 509.231C833.672 508.233 832.313 506.184 831.137 504.392C829.961 502.6 828.964 501.063 828.961 501.06L828.86 500.903L828.691 500.823C828.684 500.819 825.307 499.195 821.365 497.566C819.393 496.753 817.283 495.937 815.372 495.321C813.453 494.708 811.765 494.283 810.511 494.277C808.071 494.288 805.613 495.517 803.72 496.707C801.832 497.901 800.523 499.085 800.505 499.101L800.952 499.596Z" fill="#17282F"/>
<path d="M810.511 494.944L810.265 498.865C810.265 498.865 820.804 504.993 820.56 507.199C820.315 509.405 818.109 514.552 818.109 514.552L823.501 520.188H794.824L797.029 503.277C797.029 503.277 803.157 494.453 810.511 494.944Z" fill="#17282F"/>
<path d="M747.275 497.149C747.275 497.149 767.863 466.266 772.52 465.776C777.177 465.287 786.98 469.208 790.657 475.58C794.333 481.953 797.765 494.453 798.011 495.188C798.255 495.924 799.236 496.413 804.873 505.483C810.511 514.552 810.265 519.699 810.265 519.699H730.608C730.608 519.699 732.323 511.611 735.264 506.953C738.205 502.296 745.069 500.58 745.069 500.58L747.275 497.149Z" fill="white"/>
<path d="M747.275 497.149L747.829 497.519C747.831 497.517 748.149 497.039 748.72 496.195C750.719 493.241 755.784 485.844 760.849 479.142C763.381 475.793 765.915 472.616 768.052 470.268C769.12 469.095 770.089 468.128 770.893 467.46C771.295 467.127 771.655 466.866 771.952 466.696C772.247 466.523 772.481 466.447 772.589 466.439C772.825 466.415 773.08 466.401 773.351 466.401C775.64 466.396 779.04 467.323 782.235 468.993C785.437 470.66 788.443 473.066 790.08 475.913C791.873 479.019 793.649 483.717 794.988 487.711C795.66 489.708 796.224 491.532 796.637 492.903C796.843 493.588 797.011 494.16 797.135 494.584C797.261 495.012 797.337 495.275 797.377 495.399C797.479 495.699 797.637 495.928 797.856 496.228C798.191 496.68 798.736 497.371 799.741 498.815C800.745 500.258 802.197 502.441 804.308 505.835C809.433 514.085 809.599 518.975 809.6 519.601V519.66V519.67L810.265 519.699V519.032H730.608V519.699L731.26 519.837C731.26 519.837 731.285 519.717 731.337 519.491C731.692 517.912 733.344 511.225 735.828 507.309C737.188 505.147 739.536 503.599 741.56 502.62C742.571 502.129 743.496 501.779 744.164 501.553C744.499 501.44 744.769 501.358 744.953 501.304L745.164 501.245L745.231 501.227L745.487 501.163L747.836 497.511L747.275 497.149L746.713 496.789L744.508 500.22L745.069 500.58L744.907 499.933C744.877 499.941 743.124 500.38 740.979 501.421C738.836 502.464 736.283 504.103 734.7 506.597C733.172 509.021 732.003 512.242 731.196 514.877C730.391 517.509 729.959 519.548 729.956 519.561L729.785 520.365H810.903L810.932 519.728L810.933 519.601C810.935 518.728 810.687 513.57 805.44 505.131C802.615 500.587 800.951 498.183 799.959 496.819C799.464 496.139 799.135 495.715 798.929 495.436C798.72 495.153 798.664 495.047 798.643 494.979C798.623 494.919 798.537 494.629 798.415 494.208C797.979 492.72 797 489.399 795.725 485.745C794.448 482.089 792.883 478.108 791.235 475.248C789.401 472.08 786.208 469.564 782.852 467.811C779.488 466.063 775.971 465.073 773.351 465.068C773.039 465.068 772.737 465.083 772.449 465.113C771.991 465.165 771.572 465.363 771.116 465.642C770.269 466.172 769.301 467.037 768.201 468.163C764.369 472.093 759.021 479.228 754.603 485.404C750.189 491.576 746.723 496.776 746.72 496.78L746.713 496.789L747.275 497.149Z" fill="#17282F"/>
<path d="M778.892 519.208C778.892 519.208 776.687 513.816 776.441 513.08C776.196 512.347 776.196 505.239 775.461 502.296C774.725 499.354 768.597 490.287 768.597 490.287L773.011 477.541L770.804 475.825L774.48 466.756L772.421 465.803C767.596 466.67 747.275 497.149 747.275 497.149L745.069 500.58C745.069 500.58 738.205 502.296 735.264 506.953C732.749 510.936 731.135 517.411 730.719 519.208H778.892Z" fill="#17282F"/>
</svg>
