<svg width="23" height="23" viewBox="0 0 23 23" fill="none" xmlns="http://www.w3.org/2000/svg"><path d="M19.228 14.9959C19.6305 13.9194 19.849 12.7669 19.849 11.5005C19.849 10.5886 19.7225 9.71476 19.504 8.90422C18.7565 9.09419 17.9745 9.19551 17.158 9.19551C15.4859 9.19749 13.8378 8.75671 12.3528 7.91033C10.8677 7.06395 9.5892 5.83678 8.625 4.33228C7.59356 7.08073 5.64779 9.29151 3.1855 10.5126C3.1395 10.8293 3.1395 11.1712 3.1395 11.5005C3.1395 12.7096 3.35575 13.9069 3.77591 15.0239C4.19606 16.141 4.81189 17.156 5.58823 18.011C7.15613 19.7377 9.28266 20.7077 11.5 20.7077C12.7075 20.7077 13.869 20.4164 14.9155 19.8972C15.571 21.2776 15.87 21.9615 15.847 21.9615C13.961 22.6581 12.5005 23 11.5 23C8.717 23 6.0605 21.7969 4.1055 19.6312C2.9164 18.3257 2.03248 16.7221 1.5295 14.9579H0V9.19551H1.2535C1.63328 7.15968 2.50642 5.27505 3.78027 3.74158C5.05412 2.20812 6.68116 1.08304 8.48876 0.48571C10.2964 -0.111618 12.2171 -0.158905 14.0471 0.348866C15.8771 0.856636 17.5482 1.90052 18.883 3.36976C20.3323 4.9595 21.3208 6.98692 21.7235 9.19551H23V14.9579H22.931L18.837 19.0993L12.742 18.3394V16.2244H18.2965L19.228 14.9959ZM8.3605 11.2092C8.7055 11.2092 9.039 11.3612 9.2805 11.6398C9.5232 11.9093 9.65939 12.2734 9.65939 12.653C9.65939 13.0325 9.5232 13.3967 9.2805 13.6661C9.039 13.9321 8.7055 14.0841 8.3605 14.0841C7.636 14.0841 7.0495 13.4508 7.0495 12.653C7.0495 11.8551 7.636 11.2092 8.3605 11.2092ZM14.628 11.2092C15.3525 11.2092 15.9275 11.8551 15.9275 12.653C15.9275 13.4508 15.3525 14.0841 14.628 14.0841C13.9035 14.0841 13.317 13.4508 13.317 12.653C13.317 12.2701 13.4551 11.9028 13.701 11.6321C13.9468 11.3613 14.2803 11.2092 14.628 11.2092Z" fill="white"></path></svg>