<svg fill="none" height="28" viewBox="0 0 34 28" width="34" xmlns="http://www.w3.org/2000/svg"><path d="m33.5333 4.13332v19.99998c0 .9167-.3261 1.7017-.9783 2.355-.6534.6522-1.4384.9784-2.355.9784h-26.66672c-.91666 0-1.70111-.3262-2.35333-.9784-.653332-.6533-.979999-1.4383-.979999-2.355v-19.99998c0-.91667.326667-1.70111.979999-2.35333.65222-.65334 1.43667-.980002 2.35333-.980002h26.66672c.9166 0 1.7016.326662 2.355.980002.6522.65222.9783 1.43666.9783 2.35333zm-30.00002 3.33333h26.66672v-3.33333h-26.66672zm0 6.66665v10h26.66672v-10z" fill="#fff"/></svg>