<svg fill="none" height="30" viewBox="0 0 30 30" width="30" xmlns="http://www.w3.org/2000/svg"><path d="m9.47736 29.2805c-.75366 0-1.39766-.2675-1.932-.8024-.53491-.5343-.80237-1.1661-.80237-1.8952 0-.7537.26746-1.398.80237-1.9329.53434-.5343 1.16609-.8015 1.89525-.8015.75369 0 1.39799.2672 1.93289.8015.5343.5349.8015 1.1792.8015 1.9329 0 .7531-.2672 1.3909-.8015 1.9136-.5349.5227-1.167.784-1.89614.784zm14.58364 0c-.7537 0-1.398-.2675-1.9329-.8024-.5343-.5343-.8015-1.1661-.8015-1.8952 0-.7537.2672-1.398.8015-1.9329.5349-.5343 1.167-.8015 1.8961-.8015.7537 0 1.3977.2672 1.932.8015.535.5349.8024 1.1792.8024 1.9329 0 .7531-.2674 1.3909-.8024 1.9136-.5343.5227-1.166.784-1.8952.784zm-16.26101-23.80701 3.82811 7.98441h10.3906l4.375-7.98441zm-1.20313-2.443h21.47424c.7537 0 1.2399.24296 1.4586.72888.2188.4865.1701 1.00917-.1461 1.568l-5.0312 9.00553c-.2433.4375-.5837.8021-1.0212 1.0937-.4375.2917-.9234.4375-1.4577.4375h-10.9743l-1.89609 3.5h17.75549v2.4421h-17.53674c-1.04475 0-1.81037-.3887-2.29687-1.1663-.48592-.7776-.48592-1.6039 0-2.4789l2.1875-4.0469-5.432-11.52111h-2.880502v-2.442996h4.448502z" fill="#08151D"/></svg>