<svg fill="none" height="27" viewBox="0 0 33 27" width="33" xmlns="http://www.w3.org/2000/svg"><path d="m.400024.549988h6.853876v2.443002h-4.41175v4.41087h-2.442126zm25.192076 0h6.8548v6.853872h-2.4063v-4.41087h-4.4485zm4.4485 23.807012v-4.4109h2.4063v6.8539h-6.8548v-2.443zm-27.19845-4.4109v4.4109h4.41175v2.443h-6.853876v-6.8539zm6.16175-15.27661h1.4945v17.97421h-1.4945zm-4.41175 0h2.91725v17.97421h-2.91725zm8.82345 0h2.989v17.97421h-2.989zm10.4265 0h1.4954v17.97421h-1.4954zm2.9899 0h1.3851v17.97421h-1.3851zm-8.8961 0h4.375v17.97421h-4.375z" fill="#08151D"/></svg>