<svg fill="none" height="17" viewBox="0 0 18 17" width="18" xmlns="http://www.w3.org/2000/svg"><path d="m.666656 12.6667v-11.62504c0-.194448.090278-.388892.270834-.583337.18056-.194444.36806-.291667.5625-.291667h10.81251c.2083 0 .4028.093751.5833.281251.1806.1875.2709.385416.2709.593753v7.41666c0 .19445-.0903.38889-.2709.58334-.1805.19444-.375.29166-.5833.29166h-8.31251zm4.187504.8333c-.19445 0-.38542-.0972-.57292-.2917-.1875-.1944-.28125-.3889-.28125-.5833v-2.0417h10.41671v-7.08331h2.0833c.1944 0 .3819.09722.5625.29167.1805.19444.2708.39583.2708.60416v12.41668l-3.3125-3.3125zm7.06254-12.08334h-10.00004v8.22916l1.5625-1.5625h8.43754z" fill="#fff"/></svg>