<svg fill="none" height="36" viewBox="0 0 36 36" width="36" xmlns="http://www.w3.org/2000/svg"><g stroke="#fff" stroke-linecap="round" stroke-linejoin="round" stroke-width=".625"><path d="m26.0156 26.5781c2.0314 1.6538 3.2344 3.2393 3.2344 6.0469m-19.26562-6.0469c-2.03133 1.6538-3.23438 3.2386-3.23438 6.0469m20.25-18c2.0313-1.6538 2.25-3.9424 2.25-6.75m-20.25 6.6094c-2.03133-1.6538-2.25-3.8011-2.25-6.6094m25.875 12.3841h-5.625m-18 0h-5.625m14.625-6.7591v18"/><path d="m18 31.5c-4.95 0-9-4.05-9-9v-6.7549c0-4.5753 4.05-6.75004 9-6.75004s9 1.80004 9 6.75004v6.7549c0 4.95-4.05 9-9 9z"/><path d="m12.6162 10.0913c-.1408-.35293-.2222-.72663-.2412-1.10607.0039-1.48672.5962-2.91145 1.6475-3.96272 1.0513-1.05128 2.476-1.64361 3.9627-1.64751h.0296c1.4867.0039 2.9114.59623 3.9627 1.64751 1.0513 1.05127 1.6436 2.476 1.6475 3.96272-.0136.34543-.0878.68578-.2194 1.00547"/></g></svg>