<svg fill="none" height="36" viewBox="0 0 36 36" width="36" xmlns="http://www.w3.org/2000/svg"><g stroke="#fff" stroke-linecap="round" stroke-linejoin="round" stroke-width=".625"><path d="m3.375 12.375h29.25m-30.13453.8585 14.60743 18.9464c.1062.1384.2427.2505.3992.3277.1564.0771.3285.1173.5029.1173s.3465-.0402.5029-.1173c.1565-.0772.293-.1893.3992-.3277l14.6074-18.9464c.1437-.187.227-.4133.2389-.6488.0119-.2354-.0481-.469-.1721-.6695l-4.9549-7.99809c-.102-.16552-.2446-.30221-.4143-.39709s-.3609-.1448-.5553-.14502h-19.30359c-.19443.00022-.38557.05014-.55527.14502-.16971.09488-.31234.23157-.41434.39709l-4.95493 7.99809c-.12399.2005-.18401.4341-.17207.6695.01193.2355.09524.4618.23887.6488z"/><path d="m28.125 4.5-3.375 7.875m0 0-6.75-9-6.75 9m13.5 0-6.75 19.125-6.75-19.125m-3.375-7.875 3.375 7.875"/></g></svg>