<svg fill="none" height="24" viewBox="0 0 24 24" width="24" xmlns="http://www.w3.org/2000/svg"><path d="m11.9066.720215c-6.41667 0-11.666671 5.238335-11.666671 11.689985 0 5.8333 4.270001 10.675 9.846671 11.55v-8.1667h-2.96334v-3.3833h2.96334v-2.57832c0-2.92833 1.7383-4.53833 4.41-4.53833 1.2717 0 2.6017.22166 2.6017.22166v2.88167h-1.47c-1.4467 0-1.9017.89833-1.9017 1.82002v2.1933h3.2433l-.525 3.3833h-2.7183v8.1667c2.7492-.4342 5.2526-1.8369 7.0582-3.9549 1.8057-2.118 2.7947-4.8118 2.7885-7.5951 0-6.45165-5.25-11.689985-11.6667-11.689985z" fill="#000"/></svg>