<svg fill="none" height="30" viewBox="0 0 30 30" width="30" xmlns="http://www.w3.org/2000/svg"><path d="m15.4562 23.3016c.4375 0 .8021-.1458 1.0938-.4375.2917-.2916.4375-.6562.4375-1.0937 0-.4136-.1458-.7724-.4375-1.0763-.2917-.3033-.6563-.455-1.0938-.455s-.802.1517-1.0937.455c-.2917.3039-.4375.6627-.4375 1.0763 0 .4375.1458.8021.4375 1.0937.2917.2917.6562.4375 1.0937.4375zm-1.2757-5.3961h2.3336c0-.7047.0788-1.3064.2363-1.8051.158-.4982.6626-1.1119 1.5137-1.841.7047-.6318 1.2209-1.2454 1.5488-1.841.3284-.5956.4926-1.2699.4926-2.023 0-1.31253-.4436-2.34561-1.3309-3.09928-.8872-.75367-2.0236-1.1305-3.409-1.1305-1.2396 0-2.3088.31617-3.2077.9485-.8995.63175-1.5438 1.47029-1.9329 2.51562l2.0781.80146c.2188-.60721.5775-1.11762 1.0763-1.53121.4981-.413 1.136-.6195 1.9136-.6195.8266 0 1.4706.21875 1.932.65625.462.4375.693.97213.693 1.60386 0 .5349-.152 1.0273-.4559 1.477-.3039.4498-.7353.9054-1.2941 1.3668-.8266.7536-1.3977 1.416-1.7133 1.9871-.3161.5711-.4742 1.4157-.4742 2.534zm1.2031 11.4117c-2.0172 0-3.913-.3768-5.68749-1.1305-1.7745-.7536-3.32383-1.7867-4.648-3.0992-1.32475-1.3125-2.36396-2.8557-3.11762-4.6296-.75367-1.7745-1.130502-3.6826-1.130502-5.7243 0-2.0416.376832-3.9497 1.130502-5.72423.75366-1.77392 1.79287-3.31713 3.11762-4.62963 1.32417-1.3125 2.8735-2.34558 4.648-3.09925 1.77449-.753663 3.67029-1.130496 5.68749-1.130496s3.913.376833 5.6875 1.130496c1.7745.75367 3.318 1.78675 4.6305 3.09925s2.3514 2.85571 3.1168 4.62963c.7659 1.77453 1.1488 3.68263 1.1488 5.72423 0 2.0417-.3829 3.9498-1.1488 5.7243-.7654 1.7739-1.8043 3.3171-3.1168 4.6296s-2.856 2.3456-4.6305 3.0992c-1.7745.7537-3.6703 1.1305-5.6875 1.1305zm0-2.443c3.3787 0 6.2466-1.185 8.6039-3.5551 2.3578-2.3695 3.5367-5.2313 3.5367-8.5855 0-3.3541-1.1789-6.21598-3.5367-8.58548-2.3573-2.37008-5.2252-3.55513-8.6039-3.55513s-6.24661 1.18505-8.60386 3.55513c-2.35784 2.3695-3.53675 5.23138-3.53675 8.58548 0 3.3542 1.17891 6.216 3.53675 8.5855 2.35725 2.3701 5.22516 3.5551 8.60386 3.5551z" fill="#08151D"/></svg>