<svg fill="none" height="25" viewBox="0 0 24 25" width="24" xmlns="http://www.w3.org/2000/svg"><path d="m7.0066.720215h9.8c3.7333 0 6.7667 3.033335 6.7667 6.766665v9.80002c0 1.7946-.713 3.5157-1.9819 4.7847-1.269 1.269-2.9902 1.982-4.7848 1.982h-9.8c-3.73334 0-6.766671-3.0334-6.766671-6.7667v-9.80002c0-1.79463.712915-3.51576 1.981911-4.78475 1.269-1.269 2.99012-1.981915 4.78476-1.981915zm-.23334 2.333335c-1.11391 0-2.18219.4425-2.96985 1.23015-.78765.78765-1.23015 1.85594-1.23015 2.96985v10.26665c0 2.3217 1.87834 4.2 4.2 4.2h10.26664c1.1139 0 2.1822-.4425 2.9699-1.2301.7876-.7877 1.2301-1.856 1.2301-2.9699v-10.26665c0-2.32167-1.8783-4.2-4.2-4.2zm11.25834 1.75c.3868 0 .7577.15364 1.0312.42713.2735.2735.4271.64443.4271 1.0312 0 .38678-.1536.75771-.4271 1.0312s-.6444.42714-1.0312.42714-.7577-.15365-1.0312-.42714-.4271-.64442-.4271-1.0312c0-.38677.1536-.7577.4271-1.0312.2735-.27349.6444-.42713 1.0312-.42713zm-6.125 1.75c1.5471 0 3.0308.61458 4.1248 1.70854 1.0939 1.09396 1.7085 2.57771 1.7085 4.12481s-.6146 3.0308-1.7085 4.1248c-1.094 1.0939-2.5777 1.7085-4.1248 1.7085s-3.03083-.6146-4.12479-1.7085c-1.09397-1.094-1.70855-2.5777-1.70855-4.1248s.61458-3.03085 1.70855-4.12481c1.09396-1.09396 2.57769-1.70854 4.12479-1.70854zm0 2.33333c-.9283 0-1.8185.36875-2.47488 1.02513-.65638.65639-1.02512 1.54659-1.02512 2.47489 0 .9282.36874 1.8185 1.02512 2.4749.65638.6563 1.54658 1.0251 2.47488 1.0251s1.8185-.3688 2.4749-1.0251c.6563-.6564 1.0251-1.5467 1.0251-2.4749 0-.9283-.3688-1.8185-1.0251-2.47489-.6564-.65638-1.5466-1.02513-2.4749-1.02513z" fill="#000"/></svg>