<svg fill="none" height="22" viewBox="0 0 22 22" width="22" xmlns="http://www.w3.org/2000/svg"><path d="m19.1667.700195c.6188 0 1.2123.245833 1.6499.683415.4376.43759.6834 1.03108.6834 1.64992v16.33337c0 .6188-.2458 1.2123-.6834 1.6499s-1.0311.6834-1.6499.6834h-16.33337c-.61884 0-1.21233-.2458-1.64991-.6834-.437587-.4376-.68342-1.0311-.68342-1.6499v-16.33337c0-.61884.245833-1.21233.68342-1.64992.43758-.437582 1.03107-.683415 1.64991-.683415zm-.5834 18.083305v-6.1833c0-1.0087-.4007-1.9761-1.1139-2.68937-.7133-.71326-1.6807-1.11397-2.6894-1.11397-.9917 0-2.1467.60667-2.7067 1.51664v-1.29497h-3.25497v9.76497h3.25497v-5.7516c0-.8984.7234-1.6334 1.6217-1.6334.4332 0 .8486.1721 1.1549.4784s.4784.7218.4784 1.155v5.7516zm-13.55663-11.59664c.51982 0 1.01835-.2065 1.38593-.57407.36757-.36757.57407-.8661.57407-1.38593 0-1.085-.875-1.97166-1.96-1.97166-.52292 0-1.02442.20772-1.39418.57748s-.57749.87126-.57749 1.39418c0 1.085.88667 1.96 1.97167 1.96zm1.62166 11.59664v-9.76497h-3.23166v9.76497z" fill="#000"/></svg>