<svg width="17" height="21" viewBox="0 0 17 21" fill="none" xmlns="http://www.w3.org/2000/svg"><path d="M8.49984 18.1563C10.6179 16.2118 12.1891 14.4452 13.2134 12.8563C14.2377 11.2681 14.7498 9.85768 14.7498 8.62504C14.7498 6.73268 14.1464 5.18303 12.9394 3.97608C11.7332 2.76983 10.2533 2.16671 8.49984 2.16671C6.74636 2.16671 5.26616 2.76983 4.05921 3.97608C2.85296 5.18303 2.24984 6.73268 2.24984 8.62504C2.24984 9.85768 2.76199 11.2681 3.7863 12.8563C4.8106 14.4452 6.38178 16.2118 8.49984 18.1563ZM8.49984 20.9167C5.7047 18.5382 3.6172 16.3289 2.23734 14.2886C0.856782 12.249 0.166504 10.3612 0.166504 8.62504C0.166504 6.02087 1.00435 3.94622 2.68005 2.40108C4.35505 0.855943 6.29498 0.083374 8.49984 0.083374C10.7047 0.083374 12.6446 0.855943 14.3196 2.40108C15.9953 3.94622 16.8332 6.02087 16.8332 8.62504C16.8332 10.3612 16.1432 12.249 14.7634 14.2886C13.3828 16.3289 11.295 18.5382 8.49984 20.9167ZM5.37484 11.5417H7.45817V8.67712H9.5415V11.5417H11.6248V6.59379L8.49984 4.51046L5.37484 6.59379V11.5417Z" fill="white"></path></svg>