<svg width="38" height="38" viewBox="0 0 38 38" fill="none" xmlns="http://www.w3.org/2000/svg"><path d="M31.889 24.2489C32.5365 22.5171 32.888 20.6631 32.888 18.6258C32.888 17.1589 32.6845 15.7531 32.333 14.4492C31.1305 14.7548 29.8725 14.9178 28.559 14.9178C25.8691 14.921 23.2179 14.2119 20.8289 12.8503C18.4399 11.4887 16.3831 9.51461 14.832 7.09431C13.1728 11.5157 10.0426 15.0722 6.08153 17.0366C6.00753 17.546 6.00753 18.0961 6.00753 18.6258C6.00753 20.5709 6.35541 22.4969 7.03131 24.2939C7.70721 26.091 8.6979 27.7238 9.9468 29.0992C12.4691 31.8769 15.89 33.4374 19.457 33.4374C21.3995 33.4374 23.268 32.9688 24.9515 32.1335C26.006 34.3542 26.487 35.4544 26.45 35.4544C23.416 36.5749 21.0665 37.125 19.457 37.125C14.98 37.125 10.7065 35.1895 7.56153 31.7056C5.64863 29.6055 4.22667 27.0258 3.41753 24.1878H0.957031V14.9178H2.97353C3.58448 11.6427 4.98909 8.61094 7.03833 6.14407C9.08757 3.6772 11.705 1.86728 14.6129 0.906359C17.5207 -0.0545591 20.6106 -0.13063 23.5545 0.686219C26.4985 1.50307 29.1867 3.18236 31.334 5.54592C33.6654 8.10332 35.2557 11.3648 35.9035 14.9178H37.957V24.1878H37.846L31.26 30.8499L21.455 29.6275V26.2251H30.3905L31.889 24.2489ZM14.4065 18.1572C14.9615 18.1572 15.498 18.4017 15.8865 18.8499C16.277 19.2834 16.496 19.8692 16.496 20.4798C16.496 21.0903 16.277 21.6762 15.8865 22.1097C15.498 22.5375 14.9615 22.782 14.4065 22.782C13.241 22.782 12.2975 21.7633 12.2975 20.4798C12.2975 19.1962 13.241 18.1572 14.4065 18.1572ZM24.489 18.1572C25.6545 18.1572 26.5795 19.1962 26.5795 20.4798C26.5795 21.7633 25.6545 22.782 24.489 22.782C23.3235 22.782 22.38 21.7633 22.38 20.4798C22.38 19.8638 22.6022 19.273 22.9977 18.8374C23.3933 18.4019 23.9297 18.1572 24.489 18.1572Z" fill="white"></path></svg>