<svg fill="none" height="36" viewBox="0 0 36 36" width="36" xmlns="http://www.w3.org/2000/svg"><g stroke="#fff" stroke-linecap="round" stroke-linejoin="round" stroke-width=".625"><path d="m18 32.625c4.3492 0 7.875-3.5258 7.875-7.875s-3.5258-7.875-7.875-7.875-7.875 3.5258-7.875 7.875 3.5258 7.875 7.875 7.875z"/><path d="m18 28.125c1.864 0 3.375-1.511 3.375-3.375s-1.511-3.375-3.375-3.375-3.375 1.511-3.375 3.375 1.511 3.375 3.375 3.375z"/><path d="m10.3359 22.7109-7.39403-11.5087c-.21095-.3283-.33289-.7058-.35384-1.0955-.02096-.38965.05979-.77806.23431-1.12709l2.17969-4.35938c.18676-.3742.47412-.68895.82983-.90891s.76569-.33642 1.18392-.33632h21.96842c.4179.00003.8274.1164 1.1829.33609.3554.21969.6426.53401.8295.90774l2.1796 4.35937c.1746.34903.2553.73744.2344 1.1271-.021.3897-.1429.7672-.3539 1.0955l-7.3926 11.5101m.4218-12.5859h-23.48434m27.54424-6.42656-8.7005 13.87966m-11.56288-7.4531 4.67228 7.4531"/></g></svg>