<svg fill="none" height="33" viewBox="0 0 361 33" width="361" xmlns="http://www.w3.org/2000/svg"><g fill="#000" opacity=".8"><path d="m28.2639 4.6377h-25.69446c-1.41708 0-2.56944 1.15236-2.56944 2.56944v17.98616c0 1.417 1.15236 2.5694 2.56944 2.5694h25.69446c1.4171 0 2.5694-1.1524 2.5694-2.5694v-17.98616c0-1.41708-1.1523-2.56944-2.5694-2.56944zm-21.8377 9.1222c.01419-.0747.08453-.1291.16663-.1291h.00031l1.58959.0023c.00212 0 .00439.0001.00659.0001.23265.0087.55375.0609.65514.4124.00079.0025.00141.0051.00204.0079l.28205 1.2303c.01631.0714-.02321.1439-.09519.1743-.02258.0096-.04658.014-.07034.014-.05159 0-.10193-.0218-.13471-.0616-.53078-.6443-1.32354-1.155-2.2928-1.4768-.07748-.0258-.1235-.0992-.10931-.1738zm3.7441 5.0021-1.3645.0018h-.00015c-.0752 0-.1413-.0458-.1624-.1123l-1.18482-3.735c-.02054-.0649.00643-.1346.06681-.1727.06038-.0382.14051-.0362.1987.0051.85305.6049 1.46444 1.3672 1.69192 1.8544.00321.0065.0058.0133.00776.0202l.15503.5178 1.44135-3.3973c.0254-.0599.0879-.0993.1575-.0993l1.232-.0005h.0002c.0569 0 .11.0264.1413.0702.0313.0439.0366.0994.0141.1476l-2.2396 4.8055c-.0268.0573-.0877.0945-.1552.0945zm3.7002-.1244c-.0138.075-.0843.1299-.1668.1299h-1.1712c-.0498 0-.0971-.0202-.1293-.0554-.032-.0351-.0457-.0816-.0374-.127l.8892-4.8152c.0138-.075.0843-.1299.1667-.1299h1.172c.0499 0 .0972.0203.1293.0554.0322.0351.0458.0816.0375.1269zm3.9531-2.9185c.8385.35 1.2285.7766 1.2227 1.3407-.011 1.0259-1.0088 1.689-2.5422 1.6892h-.0019c-.5348-.0053-1.0925-.0857-1.4919-.2149-.078-.0252-.1248-.0987-.1108-.1738l.1451-.7822c.0087-.0469.04-.0875.0852-.1104.045-.0229.099-.0258.1466-.0075.4533.174.7738.2567 1.3684.2567.4178 0 .8692-.1509.8732-.4825.0026-.2166-.1883-.3713-.7564-.613-.5539-.2366-1.2887-.6331-1.2796-1.3439.0081-.9599 1.0231-1.6308 2.4684-1.6308.5099 0 .917.0886 1.1687.1628.0802.0238.1294.0983.1153.175l-.1369.7428c-.0086.0462-.0391.0863-.0832.1095-.044.0232-.097.0269-.1444.0101-.2037-.0722-.5277-.1682-.9864-.1682-.0156 0-.0314.0002-.0446.0004-.5525 0-.84.2129-.84.4233-.003.2339.3115.3867.8247.6167zm6.5488 2.992c-.0321.0369-.0806.0584-.1318.0584h-1.0587c-.0795 0-.1483-.0511-.1653-.1228-.0353-.1485-.1207-.509-.1551-.645-.1169 0-.6049-.0007-1.0644-.0011h-.0225c-.3998-.0006-.7726-.0011-.8532-.0011-.0316.0748-.1273.3062-.2765.6694-.025.0606-.088.1007-.1583.1007h-1.214c-.0573 0-.1105-.0266-.1417-.0708-.0312-.0443-.0362-.1-.0131-.1485l2.1438-4.4798c.1425-.2981.3798-.4253.7935-.4253h1.0341c.0796 0 .1481.0509.1653.1224l1.1513 4.8122c.011.0462-.0013.0945-.0334.1313z"/><path d="m22.1629 15.0273-.8055 1.9228h1.2585l-.3506-1.4798z"/><path d="m70.2991 22.3057c-.2901 0-.4548.1842-.4979.4548h.9723c-.0431-.2902-.2117-.4548-.4744-.4548z"/><path d="m64.293 22.3252c-.3529 0-.5685.2705-.5685.5998s.2156.5998.5685.5998c.3371 0 .5644-.2586.5644-.5998 0-.341-.2273-.5998-.5644-.5998z"/><path d="m75.796 22.3252c-.353 0-.5686.2705-.5686.5998s.2156.5998.5686.5998c.3371 0 .5645-.2586.5645-.5998 0-.341-.2274-.5998-.5645-.5998z"/><path d="m83.0972 4.6377h-25.6944c-1.4171 0-2.5695 1.15236-2.5695 2.56944v17.98616c0 1.417 1.1524 2.5694 2.5695 2.5694h25.6944c1.4171 0 2.5695-1.1524 2.5695-2.5694v-17.98616c0-1.41708-1.1524-2.56944-2.5695-2.56944zm-20.1532 19.2238h-.4117v-1.0429c0-.3176-.1333-.494-.4115-.494-.2706 0-.4588.1725-.4588.4979v1.039h-.4116v-1.0429c0-.3176-.1373-.494-.4078-.494-.2783 0-.4587.1725-.4587.4979v1.039h-.4117v-1.8741h.4078v.2313c.1529-.2195.3489-.2783.5489-.2783.2862 0 .4901.1254.6194.3332.1725-.2627.4195-.3372.6586-.3332.4548.0039.7371.3018.7371.7449zm2.2975-.9371v.9371h-.4077v-.2275c-.1294.1686-.3254.2745-.592.2745-.5254 0-.9371-.4117-.9371-.9841s.4117-.984.9371-.984c.2666 0 .4626.1058.592.2744v-.2274h.4077zm1.2075.9841c-.3058 0-.5881-.0785-.8116-.2431l.1921-.3176c.1373.1059.3411.1961.6234.1961.2784 0 .4274-.0824.4274-.2275 0-.1058-.1059-.1646-.3294-.1959l-.1921-.0275c-.4195-.0588-.6468-.247-.6468-.5528 0-.3724.3057-.5998.7801-.5998.298 0 .5685.0666.7646.196l-.1765.3293c-.1137-.0705-.345-.1607-.5841-.1607-.2235 0-.3568.0823-.3568.2195 0 .1255.1411.1608.3175.1843l.1922.0274c.4077.0589.6547.2314.6547.5607 0 .3567-.3136.6116-.8547.6116zm2.1603 0c-.4822 0-.6508-.2588-.6508-.6939v-.8547h-.3803v-.3725h.3803v-.5685h.4116v.5685h.6665v.3725h-.6665v.8468c0 .1881.0667.3137.2706.3137.1057 0 .239-.0353.3607-.1059l.1175.349c-.1294.0901-.3332.145-.5096.145zm2.5797-.8273h-1.3918c.0588.3372.2979.4587.5606.4587.1882 0 .3882-.0705.545-.1959l.2.3018c-.2274.1921-.4862.2627-.7685.2627-.5607 0-.9606-.3881-.9606-.9841 0-.5841.3843-.984.9332-.984.5253 0 .886.3999.8899.984 0 .0549-.0039.1059-.0078.1568zm1.4898-.7057c-.0862-.0352-.1725-.047-.2548-.047-.2667 0-.4.1725-.4.4822v1.0508h-.4076v-1.8741h.4038v.2274c.1058-.1647.2588-.2744.4939-.2744.0823 0 .2.0156.2901.0509zm1.235 1.1487c.1764 0 .3372-.0587.4901-.1686l.196.3294c-.2039.1608-.3921.2235-.6743.2235-.6038 0-.9998-.4156-.9998-.9841s.396-.984.9998-.984c.2822 0 .4704.0627.6743.2234l-.196.3294c-.1529-.1098-.3137-.1686-.4901-.1686-.3254.0039-.5646.2391-.5646.5998s.2392.596.5646.5998zm2.8306-.5998v.9371h-.4077v-.2275c-.1294.1686-.3254.2745-.592.2745-.5253 0-.937-.4117-.937-.9841s.4117-.984.937-.984c.2666 0 .4626.1058.592.2744v-.2274h.4077zm1.5997-.5489c-.0863-.0352-.1726-.047-.255-.047-.2665 0-.3998.1725-.3998.4822v1.0508h-.4077v-1.8741h.4038v.2274c.1058-.1647.2588-.2744.494-.2744.0822 0 .1999.0156.2901.0509zm2.1837.5489v.9371h-.4078v-.2275c-.1293.1686-.3254.2745-.592.2745-.5253 0-.937-.4117-.937-.9841s.4117-.984.937-.984c.2666 0 .4627.1058.592.2744v-.9801h.4078zm-6.1024-2.2277c-1.6184 0-3.0821-.644-4.1754-1.6757-1.0933 1.0317-2.557 1.6757-4.1753 1.6757-3.3649 0-6.1025-2.7375-6.1025-6.1024s2.7376-6.10244 6.1025-6.10244c1.6183 0 3.082.64401 4.1753 1.67574 1.0933-1.03173 2.557-1.67574 4.1754-1.67574 3.3648 0 6.1024 2.73754 6.1024 6.10244s-2.7376 6.1024-6.1024 6.1024z"/><path d="m79.5789 22.3252c-.3528 0-.5684.2705-.5684.5998s.2156.5998.5684.5998c.3372 0 .5646-.2586.5646-.5998 0-.341-.2274-.5998-.5646-.5998z"/><path d="m70.2502 10.168c-1.18 1.1134-1.9271 2.6802-1.9271 4.4267s.7471 3.3133 1.9271 4.4267c1.1799-1.1134 1.9271-2.6802 1.9271-4.4267s-.7472-3.3133-1.9271-4.4267z"/><path d="m122.943 14.2896h-1.611v-.6727h1.573v-.6903h-1.573v-.6068h1.611v-.7016h-2.298v3.368h2.298z"/><path d="m124.109 13.7618h.737c.248 0 .402.0257.502.1438.125.1619.108.453.108.6557l.004.4249h.694v-.6621c0-.3005-.017-.4499-.115-.6175-.061-.0978-.189-.2165-.34-.2836.179-.0829.485-.3609.485-.8974 0-.3759-.131-.5955-.348-.7461-.223-.1507-.482-.1613-.833-.1613h-1.583v3.368h.689zm-.001-1.4414h.848c.119 0 .245.0069.326.0609.089.0489.144.1531.144.2974 0 .1469-.053.2655-.141.3201-.096.0671-.207.069-.341.069h-.836z"/><path d="m118.427 14.9862.998-2.6375.003 2.6375h.705v-3.368h-1.147l-.826 2.2848-.901-2.2848h-1.123v3.1891l-1.171-3.1891h-1.022l-1.232 3.368h.747l.267-.7512h1.433l.264.7512h1.4v-2.64l1 2.6393zm-4.456-1.4534.467-1.3423.471 1.3423z"/><path d="m128.855 12.9369c-.007.0108-.055.1318-.055.3653 0 .2309.032.342.055.3922.024.0075.068.0163.135.0163l.298-.8152h-.235c-.002 0-.005 0-.007 0-.155 0-.172.0198-.191.0414z"/><path d="m127.284 11.6182h-.702v3.368h.702z"/><path d="m128.988 14.9862h.806l.258-.7512h1.429l.269.7512h1.4v-2.5278l1.306 2.5278h.974v-3.368h-.704v2.3457l-1.21-2.3457h-1.048v3.1853l-1.165-3.1853h-1.03l-.972 2.6482h-.309c-.179 0-.373-.0401-.479-.1738-.129-.1695-.19-.4299-.19-.7901 0-.3539.08-.6213.198-.7631.136-.1556.277-.1995.53-.1995h.652v-.7217h-.666c-.474 0-.823.1236-1.045.3922-.295.3608-.371.8177-.371 1.3172 0 .6118.127.9997.369 1.2858.24.2856.663.3721.998.3728zm1.783-2.7957.477 1.3423h-.949z"/><path d="m124.883 17.415c-.001 0-.002 0-.002 0h-2.199l-.876 1.1033-.848-1.1033h-2.766v3.368h2.725l.881-1.1151.848 1.1151h1.337v-1.1295h.858c.602 0 1.198-.1933 1.198-1.1289 0-.9309-.611-1.1096-1.156-1.1096zm-4.314 2.6671h-1.691v-.6702h1.51v-.6878h-1.51v-.6124h1.725l.752.9808zm2.728.3947-1.056-1.3731 1.056-1.3278zm1.576-1.5079h-.002-.888v-.8579h.897c.249 0 .42.1186.42.4136 0 .2906-.163.4443-.427.4443z"/><path d="m129.134 18.3213c0-.3841-.137-.595-.353-.7481-.227-.1411-.481-.1582-.829-.1582h-1.588v3.368h.691v-1.2299h.735c.251 0 .404.0289.505.1493.127.1569.111.4569.111.6596v.421h.69v-.6676c-.002-.2968-.016-.45-.114-.6144-.058-.0979-.184-.2178-.337-.283.181-.0835.488-.3577.489-.8967zm-.903.4781c-.093.064-.207.0697-.341.0697h-.836v-.7568h.847c.122 0 .245.0031.329.0608.089.0546.142.1595.142.3031 0 .1437-.053.2605-.141.3232z"/><path d="m133.653 18.7354-.37-.0126c-.117 0-.195-.0088-.268-.0383-.087-.0383-.15-.1236-.15-.251 0-.1067.028-.1877.104-.2429.068-.0545.149-.0608.275-.0608h1.262v-.7167h-1.379c-.722 0-.983.5134-.983 1.0028 0 1.0649.806 1.0173 1.449 1.0417.12 0 .192.0232.245.0747.048.0477.083.1243.083.2228 0 .0916-.033.1681-.08.2196-.058.0641-.151.0835-.281.0835h-1.334v.7223h1.34c.693 0 1.081-.3383 1.081-1.0631 0-.3457-.072-.5515-.206-.7135-.159-.1832-.415-.2579-.788-.2685z"/><path d="m136.464 18.7354-.37-.0126c-.117 0-.195-.0088-.269-.0383-.085-.0383-.149-.1236-.149-.251 0-.1067.028-.1877.103-.2429.069-.0545.151-.0608.277-.0608h1.262v-.7167h-1.38c-.721 0-.984.5134-.984 1.0028 0 1.0649.807 1.0173 1.45 1.0417.12 0 .192.0232.245.0747.048.0477.084.1243.084.2228 0 .0916-.034.1681-.08.2196-.059.0641-.152.0835-.282.0835h-1.334v.7223h1.34c.694 0 1.081-.3383 1.081-1.0631 0-.3457-.072-.5515-.207-.7135-.157-.1832-.414-.2579-.787-.2685z"/><path d="m137.931 4.6377h-25.695c-1.416 0-2.569 1.15236-2.569 2.56944v17.98616c0 1.417 1.153 2.5694 2.569 2.5694h25.695c1.416 0 2.569-1.1524 2.569-2.5694v-17.98616c0-1.41708-1.153-2.56944-2.569-2.56944zm-20.544 10.5728-.09-.239v.0131c0 .3069-.213.5561-.475.5561h-1.399c-.194 0-.367-.1362-.44-.3446l-.144-.4066h-.797l-.145.4091c-.073.2071-.247.3427-.438.3427h-.748c-.16 0-.309-.0942-.397-.2498-.087-.1569-.103-.3539-.039-.5252l1.231-3.3681c.075-.2039.247-.3369.438-.3369h1.021c.19 0 .361.1324.437.3363l.258.7042v-.4839c0-.3068.213-.556.475-.556h1.124c.185 0 .354.1267.432.3232l.45 1.1434.409-1.1271c.074-.2059.247-.3395.437-.3395h1.146c.097 0 .181.0421.257.0998.075-.0577.159-.0998.256-.0998h2.298c.089 0 .168.0364.239.086.071-.0496.149-.086.238-.086h1.583c.409 0 .747.017 1.071.2354.033.0232.056.0526.086.0777.077-.1832.236-.3131.423-.3131h.702c.238 0 .427.2071.461.4726.308-.312.728-.4726 1.292-.4726h.666c.106 0 .205.0408.284.1104.08-.0702.179-.1104.284-.1104h1.031c.189 0 .361.133.436.337l.253.6916v-.4726c0-.3068.213-.556.476-.556h1.047c.167 0 .321.1017.407.2686l.327.6344v-.3476c0-.3069.214-.556.477-.556h.703c.263 0 .476.2491.476.556v3.368c0 .3069-.214.556-.476.556h-.974c-.168 0-.322-.1017-.408-.2686l-.422-.8189v.5315c0 .3069-.214.556-.476.556h-1.4c-.192 0-.364-.135-.439-.342l-.145-.4092h-.793l-.141.4035c-.071.2102-.246.3483-.439.3483h-.805c-.307 0-.855-.0647-1.246-.448-.044.2535-.227.448-.457.448h-.703c-.077 0-.149-.0276-.215-.0672-.065.0396-.135.0672-.213.0672h-.694c-.262 0-.474-.2466-.476-.5516l-.003-.4249.001-.074c0-.0452.001-.113-.002-.1701-.032-.0025-.074-.0044-.133-.0044h-.263v.669c0 .3069-.213.556-.475.556h-.689c-.089 0-.167-.0364-.239-.086-.07.0496-.149.086-.238.086h-2.298c-.097 0-.181-.0426-.256-.0998-.076.0572-.16.0998-.257.0998h-.705c-.263 0-.475-.2486-.475-.5554v-.0138l-.092.2385c-.076.2014-.245.3313-.434.3313h-.605c-.187 0-.358-.1299-.434-.332zm18.991 6.1273c-.001 0-.002 0-.002 0h-1.341c-.196 0-.364-.1399-.437-.3382-.261.2165-.606.3382-1.034.3382h-1.34c-.076 0-.143-.0244-.207-.0603-.062.0359-.13.0603-.206.0603h-2.295c-.077 0-.147-.0244-.211-.0627-.064.037-.133.0627-.209.0627h-.69c-.264 0-.476-.2491-.476-.556v-.4895c.001-.0476.001-.1205-.002-.1801-.032-.0025-.076-.005-.14-.005h-.259v.6746c0 .3075-.213.556-.476.556h-.691c-.263 0-.476-.2491-.476-.556v-.856c-.244.1701-.581.2818-1.045.2818h-.383v.5742c0 .3075-.213.556-.476.556h-1.337c-.136 0-.266-.0678-.356-.1864l-.498-.6564-.525.6652c-.09.1136-.216.1789-.349.1789h-2.725c-.263 0-.476-.2498-.476-.5567v-3.368c0-.3081.213-.5566.476-.5566h2.766c.136 0 .264.0665.354.1846l.5.6507.521-.6576c.09-.1137.216-.1777.348-.1777h2.199c.481 0 .821.1249 1.061.3094.078-.182.235-.3094.421-.3094h1.589c.366 0 .72.0164 1.052.2241.036.0244.059.0564.092.0828.078-.1801.233-.3069.419-.3069h2.296c.178 0 .328.1199.41.2899.226-.1794.526-.2899.905-.2899h1.379c.207 0 .378.1563.444.3716.236-.2241.558-.3716.988-.3716h1.38c.262 0 .475.2492.475.5566v.7167c0 .1964-.086.369-.218.4681.004.0051.009.0107.014.0164.236.2836.344.6338.344 1.1044 0 1.0125-.58 1.6178-1.553 1.6178z"/><path d="m129.515 20.783h2.296v-.6984l-1.612-.0037v-.6696h1.572v-.6872h-1.572v-.6131h1.612v-.696h-2.296z"/><path d="m192.764 4.6377h-25.695c-1.417 0-2.569 1.15236-2.569 2.56944v17.98616c0 1.417 1.152 2.5694 2.569 2.5694h25.695c1.417 0 2.569-1.1524 2.569-2.5694v-17.98616c0-1.41708-1.152-2.56944-2.569-2.56944zm-10.278 17.9861h-5.139c-3.547 0-6.423-2.876-6.423-6.4236 0-3.5477 2.876-6.42362 6.423-6.42362h5.139c3.548 0 6.424 2.87592 6.424 6.42362 0 3.5476-2.876 6.4236-6.424 6.4236z"/><path d="m177.347 11.0615c-2.833 0-5.139 2.3051-5.139 5.1389 0 2.8337 2.306 5.1389 5.139 5.1389 2.834 0 5.139-2.3052 5.139-5.1389 0-2.8338-2.305-5.1389-5.139-5.1389zm-3.854 5.1389c0-1.905 1.393-3.4811 3.212-3.7892v7.5784c-1.819-.3082-3.212-1.8842-3.212-3.7892zm4.497 3.7892v-7.5784c1.819.3081 3.212 1.8842 3.212 3.7892s-1.393 3.481-3.212 3.7892z"/><path d="m238.78 18.7819c0 .3789.333.6193.841.6193.647-.0093 1.146-.4252 1.146-1.0075v-.3419l-1.072.0739c-.601.0369-.915.2588-.915.6562z"/><path d="m235.526 14.9453h-1.146v2.3385h1.146c.786 0 1.248-.4253 1.248-1.1646 0-.7395-.453-1.1739-1.248-1.1739z"/><path d="m247.597 4.6377h-25.694c-1.417 0-2.57 1.15236-2.57 2.56944v17.98616c0 1.417 1.153 2.5694 2.57 2.5694h25.694c1.417 0 2.57-1.1524 2.57-2.5694v-17.98616c0-1.41708-1.153-2.56944-2.57-2.56944zm-19.693 7.2026c.37-.434.997-.7584 1.514-.779.066.6023-.175 1.2063-.534 1.6416-.359.4344-.949.7718-1.525.727-.079-.5897.212-1.2046.545-1.5896zm2.941 8.2231c-.428.6256-.873 1.2494-1.573 1.262-.689.013-.91-.4074-1.697-.4074-.786 0-1.031.3948-1.683.4204-.676.0254-1.192-.6775-1.623-1.3007-.883-1.276-1.557-3.6055-.652-5.1784.45-.781 1.254-1.2757 2.127-1.2878.663-.013 1.291.4464 1.696.4464.406 0 1.167-.5521 1.968-.4717.335.0141 1.276.1352 1.879 1.0196-.048.0297-1.122.6561-1.11 1.9558.014 1.5552 1.364 2.0736 1.379 2.0791-.011.0364-.215.7379-.711 1.4627zm4.894-2.0121h-1.359v2.0056h-.915v-5.8783h2.302c1.137 0 1.941.7856 1.941 1.9317s-.814 1.941-1.969 1.941zm5.906 1.9964h-.841v-.7394h-.019c-.24.4806-.794.7856-1.395.7856-.897.0092-1.507-.5176-1.507-1.3032 0-.7764.601-1.22 1.692-1.2939l1.192-.0648v-.342c0-.5083-.342-.7856-.924-.7856-.481 0-.832.2496-.906.6285h-.823c.028-.7856.767-1.3587 1.756-1.3587 1.082 0 1.775.5731 1.775 1.4419zm3.013.2033c-.379 1.0629-.795 1.4049-1.701 1.4049-.064.0092-.277-.0093-.351-.0185v-.7209c.065.0184.204.0184.277.0184.416 0 .657-.1755.805-.6469l.064-.2311-1.608-4.4364h.952l1.137 3.6138h.018l1.137-3.6138h.924z"/><path clipRule="evenodd" d="m302.431 4.6377h-25.695c-1.417 0-2.569 1.15236-2.569 2.56944v17.98616c0 1.417 1.152 2.5694 2.569 2.5694h25.695c1.417 0 2.569-1.1524 2.569-2.5694v-17.98616c0-1.41708-1.152-2.56944-2.569-2.56944zm-9.235 17.3437v1.4454h2.53c.217 0 .506-.1446.722-.3614.217-.2168.362-.4336.362-.7226v-2.5293h-1.446v2.1679zm-9.755 1.4454h2.529v-1.4454h-2.168v-2.1679h-1.445v2.5293c0 .2168.144.5058.361.7226s.434.3614.723.3614zm12.285-14.45317h-2.53v1.44527h2.168v2.168h1.446v-2.5293c0-.28905-.145-.50584-.362-.72264-.216-.2168-.433-.36133-.722-.36133zm-9.756 1.44527v-1.44527h-2.529c-.289 0-.506.14453-.723.36133s-.361.43359-.361.72264v2.5293h1.445v-2.168zm-1.445 5.0586h10.117v1.4454h-10.117z" fillRule="evenodd"/><path d="m348.446 20.7158-3.01-3.0096c-.11-.11-.24-.13-.31-.13s-.2.02-.31.13l-3.019 3.0196c-.34.34-.87.8899-2.64.8899l3.709 3.6996c.563.5617 1.325.8772 2.12.8772s1.557-.3155 2.12-.8772l3.719-3.7096c-.909 0-1.669-.18-2.379-.8899zm-6.649-9.0489 3.019 3.0196c.08.08.2.13.31.13s.23-.05.31-.13l2.99-2.9896c.71-.7399 1.52-.9099 2.429-.9099l-3.719-3.70955c-.563-.56173-1.325-.87725-2.12-.87725s-1.557.31552-2.12.87725l-3.709 3.69955c1.76 0 2.3.5799 2.61.8899z"/><path d="m354.105 14.0468-2.25-2.2597h-1.26c-.539 0-1.079.22-1.449.6099l-3 2.9997c-.28.2799-.65.4199-1.02.4199-.381-.0054-.745-.1555-1.02-.4199l-3.019-3.0297c-.38-.3799-.9-.5999-1.45-.5999h-1.47l-2.29 2.2997c-.561.5624-.877 1.3249-.877 2.1198s.316 1.5573.877 2.1197l2.29 2.2997h1.48c.54 0 1.06-.2199 1.45-.5999l3.019-3.0196c.28-.28.65-.42 1.02-.42s.74.14 1.02.42l3.01 3.0096c.38.38.9.5999 1.449.5999h1.26l2.25-2.2597c.564-.5726.879-1.3451.875-2.1489-.004-.8037-.326-1.5733-.895-2.1406z"/></g></svg>