<svg fill="none" height="36" viewBox="0 0 36 36" width="36" xmlns="http://www.w3.org/2000/svg"><g stroke="#fff" stroke-linecap="round" stroke-linejoin="round" stroke-width=".625"><path d="m24.1875 19.6875 6.1875-6.1875m-14.0625 1.6875 4.5 4.5m-15.1875 2.8125 7.3125-7.3125"/><path d="m32.0625 13.5c.932 0 1.6875-.7555 1.6875-1.6875s-.7555-1.6875-1.6875-1.6875-1.6875.7555-1.6875 1.6875.7555 1.6875 1.6875 1.6875z"/><path d="m22.5 23.0625c.932 0 1.6875-.7555 1.6875-1.6875s-.7555-1.6875-1.6875-1.6875-1.6875.7555-1.6875 1.6875.7555 1.6875 1.6875 1.6875z"/><path d="m14.625 15.1875c.932 0 1.6875-.7555 1.6875-1.6875s-.7555-1.6875-1.6875-1.6875-1.6875.7555-1.6875 1.6875.7555 1.6875 1.6875 1.6875z"/><path d="m3.9375 25.875c.93198 0 1.6875-.7555 1.6875-1.6875s-.75552-1.6875-1.6875-1.6875-1.6875.7555-1.6875 1.6875.75552 1.6875 1.6875 1.6875z"/></g></svg>