<svg fill="none" height="33" viewBox="0 0 34 33" width="34" xmlns="http://www.w3.org/2000/svg"><path d="m.199921 22.0667v-3.3333h8.333329v-1.6667h-3.33333c-.47222 0-.86833-.16-1.18833-.48-.31889-.3189-.47834-.7145-.47834-1.1867s.15945-.8683.47834-1.1883c.32-.3189.71611-.4783 1.18833-.4783h3.33333c.91667 0 1.70115.3261 2.35335.9783.6533.6533.98 1.4383.98 2.355v1.6667h3.3333v-11.50004c0-1.91667.6667-3.53445 2-4.85334 1.3334-1.32 2.9584-1.979996 4.875-1.979996 1.2778 0 2.4584.333334 3.5417.999996 1.0833.66667 1.9167 1.58334 2.5 2.75l1.9167 3.83334-3 1.5-1.9167-3.83334c-.3056-.58333-.7361-1.04888-1.2917-1.39666-.5555-.34667-1.1528-.52-1.7916-.52-.9723 0-1.7984.34-2.4784 1.02-.6811.68111-1.0216 1.50778-1.0216 2.48v11.50004h3.3333v-1.6667c0-.9167.3267-1.7017.98-2.355.6522-.6522 1.4367-.9783 2.3533-.9783h3.3334c.4722 0 .8677.1594 1.1866.4783.32.32.48.7161.48 1.1883s-.16.8678-.48 1.1867c-.3189.32-.7144.48-1.1866.48h-3.3334v1.6667h8.3334v3.3333zm6.666669 10c-.91667 0-1.70111-.3261-2.35334-.9783-.65333-.6534-.98-1.4384-.98-2.355v-6.6667h3.33334v6.6667h20.00001v-6.6667h3.3333v6.6667c0 .9166-.3261 1.7016-.9783 2.355-.6533.6522-1.4383.9783-2.355.9783z" fill="#fff"/></svg>