<svg width="35" height="31" viewBox="0 0 35 31" fill="none" xmlns="http://www.w3.org/2000/svg"><path d="M28.7002 20.08C29.2835 18.6634 29.6002 17.1467 29.6002 15.48C29.6002 14.28 29.4168 13.13 29.1002 12.0634C28.0168 12.3134 26.8835 12.4467 25.7002 12.4467C23.2768 12.4493 20.8883 11.8692 18.736 10.7554C16.5838 9.64158 14.7309 8.02663 13.3335 6.04671C11.8387 9.66366 9.0187 12.573 5.45016 14.18C5.3835 14.5967 5.3835 15.0467 5.3835 15.48C5.3835 17.0712 5.6969 18.6468 6.30582 20.1169C6.91474 21.5869 7.80725 22.9227 8.93239 24.0478C11.2047 26.3201 14.2866 27.5967 17.5002 27.5967C19.2502 27.5967 20.9335 27.2134 22.4502 26.53C23.4002 28.3467 23.8335 29.2467 23.8002 29.2467C21.0668 30.1634 18.9502 30.6134 17.5002 30.6134C13.4668 30.6134 9.61683 29.03 6.7835 26.18C5.06016 24.462 3.77911 22.3517 3.05016 20.03H0.833496V12.4467H2.65016C3.20057 9.76756 4.46598 7.28739 6.31215 5.26936C8.15831 3.25133 10.5163 1.77072 13.136 0.984636C15.7557 0.198555 18.5394 0.136325 21.1916 0.80455C23.8438 1.47277 26.2657 2.84653 28.2002 4.78004C30.3005 6.87213 31.7332 9.54021 32.3168 12.4467H34.1668V20.03H34.0668L28.1335 25.48L19.3002 24.48V21.6967H27.3502L28.7002 20.08ZM12.9502 15.0967C13.4502 15.0967 13.9335 15.2967 14.2835 15.6634C14.6352 16.018 14.8326 16.4972 14.8326 16.9967C14.8326 17.4962 14.6352 17.9754 14.2835 18.33C13.9335 18.68 13.4502 18.88 12.9502 18.88C11.9002 18.88 11.0502 18.0467 11.0502 16.9967C11.0502 15.9467 11.9002 15.0967 12.9502 15.0967ZM22.0335 15.0967C23.0835 15.0967 23.9168 15.9467 23.9168 16.9967C23.9168 18.0467 23.0835 18.88 22.0335 18.88C20.9835 18.88 20.1335 18.0467 20.1335 16.9967C20.1335 16.4928 20.3337 16.0095 20.69 15.6532C21.0463 15.2969 21.5296 15.0967 22.0335 15.0967Z" fill="black"></path></svg>