<svg width="42" height="31" viewBox="0 0 42 31" fill="none" xmlns="http://www.w3.org/2000/svg"><path d="M32.25 28.1675C33.8062 28.1675 35.0625 26.9113 35.0625 25.355C35.0625 23.7988 33.8062 22.5425 32.25 22.5425C30.6938 22.5425 29.4375 23.7988 29.4375 25.355C29.4375 26.9113 30.6938 28.1675 32.25 28.1675ZM35.0625 11.2925H30.375V15.98H38.7375L35.0625 11.2925ZM9.75 28.1675C11.3062 28.1675 12.5625 26.9113 12.5625 25.355C12.5625 23.7988 11.3062 22.5425 9.75 22.5425C8.19375 22.5425 6.9375 23.7988 6.9375 25.355C6.9375 26.9113 8.19375 28.1675 9.75 28.1675ZM36 8.48004L41.625 15.98V25.355H37.875C37.875 28.4675 35.3625 30.98 32.25 30.98C29.1375 30.98 26.625 28.4675 26.625 25.355H15.375C15.375 28.4675 12.8625 30.98 9.75 30.98C6.6375 30.98 4.125 28.4675 4.125 25.355H0.375V4.73004C0.375 2.64879 2.04375 0.980042 4.125 0.980042H30.375V8.48004H36ZM4.125 4.73004V21.605H5.55C6.58125 20.4613 8.08125 19.73 9.75 19.73C11.4187 19.73 12.9187 20.4613 13.95 21.605H26.625V4.73004H4.125ZM7.875 13.1675L10.6875 10.355L13.5 13.1675L20.0625 6.60504L22.875 9.41754L13.5 18.7925L7.875 13.1675Z" fill="black"></path></svg>