<svg fill="none" height="30" viewBox="0 0 30 30" width="30" xmlns="http://www.w3.org/2000/svg"><path d="m6.12349 22.6812c1.43383-1.0208 2.91025-1.8167 4.42921-2.3878 1.519-.5711 3.1293-.8567 4.8309-.8567s3.318.2856 4.8493.8567c1.5312.5711 3.0138 1.367 4.4476 2.3878.9963-1.215 1.7194-2.4788 2.1691-3.7913.4498-1.3125.6746-2.6979.6746-4.1563 0-3.4271-1.1666-6.30727-3.5-8.64061-2.3333-2.33333-5.2135-3.5-8.6406-3.5s-6.30728 1.16667-8.64061 3.5c-2.33334 2.33334-3.5 5.21351-3.5 8.64061 0 1.4584.231 2.8438.693 4.1563.46141 1.3125 1.19058 2.5763 2.1875 3.7913zm9.26011-6.7445c-1.4099 0-2.6008-.4862-3.5726-1.4586-.9724-.9718-1.4586-2.1627-1.4586-3.5726 0-1.40992.4862-2.6008 1.4586-3.57263.9718-.97242 2.1627-1.45863 3.5726-1.45863s2.6008.48621 3.5726 1.45863c.9725.97183 1.4587 2.16271 1.4587 3.57263 0 1.4338-.4862 2.6308-1.4587 3.591-.9718.9602-2.1627 1.4402-3.5726 1.4402zm0 13.3805c-1.9932 0-3.8768-.3829-5.65074-1.1488-1.7745-.7654-3.32412-1.8104-4.64887-3.1352-1.32475-1.3247-2.36979-2.8682-3.13513-4.6305-.76591-1.7622-1.148872-3.6519-1.148872-5.6691 0-2.0171.382962-3.9069 1.148872-5.66911.76534-1.76225 1.81038-3.30575 3.13513-4.6305s2.86825-2.36979 4.6305-3.13512c1.76221-.765918 3.65191-1.148876 5.66911-1.148876s3.9069.382958 5.6691 1.148876c1.7623.76533 3.3058 1.81037 4.6305 3.13512 1.3248 1.32475 2.3698 2.86825 3.1352 4.6305.7659 1.76221 1.1488 3.65201 1.1488 5.66911 0 1.9933-.3829 3.8769-1.1488 5.6508-.7654 1.7745-1.8104 3.3241-3.1352 4.6488-1.3247 1.3248-2.8682 2.3698-4.6305 3.1352-1.7622.7659-3.6519 1.1488-5.6691 1.1488zm0-2.443c1.3125 0 2.5886-.1884 3.8281-.5652 1.2396-.3768 2.4305-1.0147 3.5727-1.9136-1.1422-.8021-2.3331-1.4219-3.5727-1.8594-1.2395-.4375-2.5156-.6563-3.8281-.6563s-2.5885.2188-3.8281.6563-2.43047 1.0573-3.57264 1.8594c1.14217.8989 2.33304 1.5368 3.57264 1.9136s2.5156.5652 3.8281.5652zm0-13.3437c.7537 0 1.3735-.243 1.8594-.7289.4859-.4865.7289-1.1185.7289-1.8961 0-.7537-.243-1.37346-.7289-1.85938s-1.1057-.72888-1.8594-.72888-1.3734.24296-1.8594.72888c-.4859.48592-.7288 1.10568-.7288 1.85938 0 .7776.2429 1.4096.7288 1.8961.486.4859 1.1057.7289 1.8594.7289z" fill="#08151D"/></svg>