<svg fill="#fff" xmlns="http://www.w3.org/2000/svg" viewBox="0 0 1920 1080">
<path d="M264.6 643.2c-21.4 25.1-46.9 43.1-78.9 49.2-43.1 8.3-84.9 4-121.7-22-33.7-23.7-48.1-59.3-52.5-98.6-5.4-47.9-1.8-96.1-2-144.2 0-25.6 22.5-44.8 48.7-44 28.9.9 45.3 16.9 45.6 44.6.6 42.1.9 84.2 1.7 126.3.5 30.9 14.8 49.3 42 55.3 34.1 7.5 61.9-11.4 66.4-46 4.1-30.9 2.7-62 2.6-93.1 0-9-.3-18 1.5-27 4.7-23 23.6-36.4 49-34.7 24.4 1.6 42.3 18.5 43.1 41.7 1 30.4-.2 60.8 2 91.2 1.1 15.1 3.7 29.6 11.6 43 12.5 21.2 31.7 26 54.3 22.7 20.5-3 32.5-15.6 38.6-34.7 5.6-17.6 4.4-35.7 3.2-53.7-2-32-5-63.9-9-95.7-2.9-22.8 11.5-38.8 36.6-42.2 28.2-3.9 52.6 12.7 59.4 40.4.5 1.9 1.1 3.9 1.7 5.8 4.6 14.4 3.1 27.3-3.5 41.8-20.2 43.9-22.4 89.5-4.3 135 2.2 5.4 2.2 10-.2 15.2-24.2 52.6-84.5 86-142.1 78.5-41.3-5.3-67-20.3-93.8-54.8z"/>
<path d="M805.4 672.7c-37.9 17.5-77.4 26.8-119.3 24.5-33.6-1.8-66.6-7.6-96.8-22.7-55.4-27.7-81.9-73.6-80.7-135.2 2.3-118 107.8-166.2 189.9-149.2 31.1 6.4 60 16 80 42.7-.2 2.9-2.5 4.6-4.2 6.6-32.3 37.5-43.2 81.1-36.8 129.6-41.4 17.6-84.4 12.1-128.6 8.1 9.3 13 19.7 22.1 32.7 28 35 16 70.6 12.3 106.3 2.2 10.8-.8 20.4-5.8 29.8-10.4 19.2-9.2 37.1-20.3 50.4-37.5 8.8-7.2 15.5-16.5 19.5-27.1 2.2-5.7 5.5-6.9 9.7-4.5 16.5 9.4 31.2 20.5 33.5 41.5 1.8 16-4.8 29.8-11.2 43.6-5.8 6.4-11.5 12.9-17.4 19.2-16.3 17.4-36.8 28.7-56.8 40.6zM654.2 512.9c11-.4 23.3-1.4 34.3-7.9 6.9-4.1 12.2-9.5 11.5-18.4s-6.1-14.7-13.8-18.1c-27.2-12.3-66.2 2.5-78.6 29.6-2.2 4.8-2.7 7.6 3.7 8.9 13.7 2.8 27.5 5.4 42.9 5.9z" stroke="#fff" stroke-width="3" stroke-miterlimit="10"/><path d="M1726.6 579.3c16.4 21.3 37.1 30.5 61 34.1 28.3 4.3 56.5.9 84.8 0 11.9-.4 17.3 3.9 20.1 15 3.3 12.8 4.2 25.7.3 38.4-2.9 9.5-9.8 15.7-19.3 18.8-32.9 10.7-66.5 12.2-100.6 8.3-34-3.8-65.6-13.3-93.5-34-12.4-9.2-20.6-18.7-19.3-36.1 1.8-24.2 1.4-48.8.1-73.1-1.4-26.8-3-53.8-14.3-78.9-2.2-4.8-1-8.4 1.5-12.1 25.4-38.6 61.4-61.2 106.7-68.8 36.8-6.2 72.8-2.1 105.5 16.5 31.2 17.7 49.6 45.5 51.4 81.7 1.7 34.8-21.2 66.9-56.2 80.9-27.9 11.2-56.8 15.4-86.9 11.5-13.1-1.7-26.4-1.5-41.3-2.2zm39.3-66c11.9.3 21.8.1 31.5-3.2 13.1-4.5 20.7-13.2 19.6-23.1-1.1-9.6-12.1-18.9-24.5-19.9-7.3-.6-14.8-1-22 0-20.5 3-36.8 12.5-46.1 32.1-3 6.3-.5 8.7 5 9.7 12.7 2.1 25.3 5.8 36.5 4.4zM805.4 672.7c20-11.9 40.5-23.2 56.7-40.4 5.9-6.3 11.6-12.8 17.4-19.2 18.1.8 35.8.6 52.5-8.3 33.5-17.9 40-70.4 21.1-101.7-10.7-17.7-27.9-25.2-47.5-27.4-31-3.6-66.7 6.9-76.2 45.5-3.1 12.7-4.8 25.4-1.5 38.3-13.3 17.2-31.2 28.3-50.4 37.5-9.5 4.6-19 9.5-29.8 10.4-3.4-12.8-6.9-25.6-10.3-38.3-6.4-48.5 4.4-92.1 36.8-129.6 1.7-2 4-3.6 4.2-6.6 10-2.8 15.9-11.6 24.5-16.7 22.4-13.3 46.2-20.9 72.2-23.9 33.8-4 66.1.7 96 15.5 48.1 23.8 75.8 62.8 81.7 116.9 4.6 42.2-4.1 80.6-30.2 114.3-21.3 27.4-50.2 43.3-83.8 50.3-46.3 9.7-91.2 6.4-133.4-16.6z"/><path d="M1132.8 599.9c-1.5 18.5 2.7 39.6-2 60.4-5.4 24.1-28.2 37.9-52.5 32.7s-40.1-28.1-35.8-52.1c.7-3.9 3.3-6.5 5.3-9.4 18.5-27 26.6-57.4 26.4-89.5-.1-23.2-4-46.4-13.4-68-2.3-5.4-1.7-9.2 1.4-13.8 23.9-35.4 58-55.2 99-63.4 51.7-10.3 98.1 1.4 138.7 35.5 26.8 22.5 39.3 51.5 43.7 85.5 5.5 43.2 3.5 86.5 3.6 129.8 0 20.6-11.5 36.7-29.5 43.3-18 6.5-38.2 1.3-50.9-13.1-6.8-7.6-9.2-16.9-9.4-26.7-.3-13-.2-26-.2-39.1.2-27-1.1-53.9-4-80.7-3.1-27.6-26.4-47.8-54.5-48.7-23.5-.8-43.8 5-56.6 26.3-6.8 11.4-8.9 24.3-9.2 37.3-.4 17.2-.1 34.2-.1 53.7zM1427.7 602.4c-1.4 18.1 3 39.7-2.2 60.6-7.9 31.9-48.1 38.3-71 21.9-4.2-3-2.5-5.9-.3-8.4 9.8-11.4 11.4-25 11.3-39.3-.2-24 .4-48.1-.2-72.1-.7-30.2-2-60.5-12.8-89.3-2.5-6.6 1.8-10.9 4.7-15.4 17.1-27 42.1-44.5 71.3-55.5 62.5-23.4 119.9-13 170.3 30.3 23.8 20.5 35.5 48.2 39.5 79.5 5.6 43.9 3.6 87.8 3.8 131.8.1 21.5-10.9 37.4-29.3 44.3-18 6.6-38.3 1.5-51-12.8-7.4-8.5-9.4-19-9.6-29.8-.4-22 .9-44.2-.6-66.1-1.2-16.9-.8-33.8-3.3-50.7-7.1-48.4-57.7-57.6-89.4-42.7-24.6 11.6-29.9 34.2-31.1 58.2-.8 17.5-.1 34.9-.1 55.5z"/></svg>