<svg fill="none" height="24" viewBox="0 0 32 24" width="32" xmlns="http://www.w3.org/2000/svg"><g fill="#000"><path d="m13.9428 10.2896h-1.6104v-.67268h1.5723v-.69035h-1.5723v-.60676h1.6104v-.70165h-2.2981v3.36804h2.2981z"/><path d="m15.1089 9.76182h.7376c.2478 0 .4012.02572.5015.14373.125.16195.1084.45305.1084.65575l.0032.4249h.6941v-.6621c0-.3005-.0166-.44991-.1142-.61748-.0612-.09786-.1899-.2165-.3407-.28362.1792-.08288.485-.36086.485-.89736 0-.37591-.1309-.59555-.3477-.74618-.2231-.15063-.4822-.1613-.8336-.1613h-1.5824v3.36804h.6888zm-.0006-1.44139h.8476c.1191 0 .2446.0069.3262.06085.089.04893.1443.15314.1443.29742 0 .14687-.0531.26551-.1417.32008-.0955.06713-.207.06901-.3406.06901h-.8363z"/><path d="m9.42726 10.9862.99784-2.63754.0026 2.63754h.7054v-3.36804h-1.14684l-.82663 2.28489-.90065-2.28489h-1.12335v3.18914l-1.17102-3.18914h-1.02133l-1.23219 3.36804h.74728l.26707-.7512h1.4323l.26449.7512h1.40006v-2.64005l.99938 2.63935zm-4.45662-1.45342.46774-1.34228.47048 1.34228z"/><path d="m18.2844 7.61816h-.7022v3.36804h.7022z"/><path d="m19.9881 10.9862h.8057l.2586-.7512h1.4291l.2681.7512h1.4006v-2.52776l1.3058 2.52776h.9741v-3.36804h-.7038v2.34574l-1.2102-2.34574h-1.0477v3.18534l-1.165-3.18534h-1.0305l-.972 2.64824h-.3085c-.1797 0-.3739-.0401-.4796-.1738-.1292-.16948-.1894-.42989-.1894-.79012 0-.35388.08-.62127.1975-.76304.1363-.15565.2773-.19956.53-.19956h.6517v-.72172h-.6657c-.4741 0-.8234.12366-1.0449.39223-.2951.36085-.3708.81769-.3708 1.31718 0 .61186.1267.99973.3691 1.28583.2393.2856.6626.3721.9978.3728zm1.7831-2.7957.4769 1.34228h-.9495z"/><path d="m15.8827 13.415c-.0009 0-.0019 0-.0019 0h-2.1993l-.8755 1.1033-.8476-1.1033h-2.76684v3.368h2.72564l.8808-1.1151.8476 1.1151h1.3372v-1.1295h.8584c.6013 0 1.1978-.1933 1.1978-1.1289 0-.9309-.611-1.1096-1.1563-1.1096zm-4.3137 2.6671h-1.69078v-.6702h1.50998v-.6878h-1.50998v-.6124h1.72458l.7527.9808zm2.7284.3947-1.0568-1.3731 1.0568-1.3278zm1.5754-1.5079h-.0016-.8884v-.8579h.897c.2489 0 .4205.1186.4205.4136 0 .2906-.1634.4443-.4275.4443z"/><path d="m20.134 14.3213c0-.3841-.1367-.595-.3529-.7481-.2275-.1411-.4807-.1582-.8288-.1582h-1.5884v3.368h.6909v-1.2299h.735c.251 0 .4039.0289.5047.1493.1277.1569.1111.4569.1111.6596v.421h.6904v-.6676c-.0022-.2968-.0162-.45-.1143-.6144-.0579-.0979-.184-.2178-.3363-.283.1802-.0835.4876-.3577.4886-.8967zm-.9033.4781c-.0923.064-.2065.0697-.3406.0697h-.8363v-.7568h.8476c.1212 0 .2445.0031.3282.0608.0891.0546.1422.1595.1422.3031 0 .1437-.0531.2605-.1411.3232z"/><path d="m24.6527 14.7354-.3696-.0126c-.1175 0-.1947-.0088-.2682-.0383-.0864-.0383-.1503-.1236-.1503-.251 0-.1067.028-.1877.1041-.2429.0687-.0545.1497-.0608.2758-.0608h1.2616v-.7167h-1.3786c-.722 0-.9838.5134-.9838 1.0028 0 1.0649.8063 1.0173 1.4489 1.0417.1207 0 .1925.0232.2451.0747.0484.0477.0837.1243.0837.2228 0 .0916-.0332.1681-.0804.2196-.058.0641-.1507.0835-.2806.0835h-1.3347v.7223h1.34c.6937 0 1.0815-.3383 1.0815-1.0631 0-.3457-.0724-.5515-.2065-.7135-.1583-.1832-.4147-.2579-.788-.2685z"/><path d="m27.4638 14.7354-.3702-.0126c-.1164 0-.1942-.0088-.2682-.0383-.0853-.0383-.1497-.1236-.1497-.251 0-.1067.0279-.1877.1036-.2429.0692-.0545.1507-.0608.2763-.0608h1.2622v-.7167h-1.3797c-.721 0-.9838.5134-.9838 1.0028 0 1.0649.8067 1.0173 1.4499 1.0417.1202 0 .1916.0232.2452.0747.0472.0477.0831.1243.0831.2228 0 .0916-.0338.1681-.0799.2196-.0585.0641-.1513.0835-.2811.0835h-1.3341v.7223h1.34c.6936 0 1.0804-.3383 1.0804-1.0631 0-.3457-.0714-.5515-.2065-.7135-.1572-.1832-.4142-.2579-.7875-.2685z"/><path d="m28.9305.637695h-25.6944c-1.41646 0-2.569444 1.152365-2.569444 2.569445v17.98616c0 1.417 1.152984 2.5694 2.569444 2.5694h25.6944c1.4165 0 2.5695-1.1524 2.5695-2.5694v-17.98616c0-1.41708-1.153-2.569445-2.5695-2.569445zm-20.54312 10.572805-.0901-.239v.0131c0 .3069-.21297.5561-.47526.5561h-1.39952c-.19313 0-.36642-.1362-.4399-.3446l-.14326-.4066h-.79715l-.1453.4091c-.073.2071-.24676.3427-.43778.3427h-.74775c-.15988 0-.30902-.0942-.397-.2498-.08743-.1569-.10296-.3539-.03968-.5252l1.23164-3.36805c.07457-.20395.24676-.33694.43723-.33694h1.02133c.19047 0 .36156.13236.43723.33631l.25798.70415v-.48389c0-.30683.21242-.55595.47527-.55595h1.12381c.18459 0 .35357.12672.4319.32314l.45002 1.14343.40877-1.12712c.07402-.20583.24676-.33945.43668-.33945h1.14686c.0965 0 .1808.04203.2564.09975.0751-.05772.1594-.09975.2564-.09975h2.2981c.0891 0 .1679.03639.2382.08594.0713-.04955.1496-.08594.2387-.08594h1.5825c.4093 0 .7478.01694 1.0712.23532.0327.02321.0563.0527.0858.07779.0773-.18325.236-.31311.4233-.31311h.7022c.2376 0 .4264.20709.4613.47252.3079-.31193.7274-.47252 1.2917-.47252h.6657c.1057 0 .205.04078.2838.11041.0799-.07026.1792-.11041.2843-.11041h1.0305c.1899 0 .361.13299.4366.33695l.2527.6916v-.4726c0-.30683.213-.55595.4758-.55595h1.0477c.1668 0 .3208.10163.4066.26857l.3272.63444v-.34768c0-.30683.2135-.55595.4764-.55595h.7038c.2628 0 .4752.24912.4752.55595v3.36804c0 .3069-.2135.556-.4752.556h-.9742c-.1679 0-.3219-.1017-.4082-.2686l-.4222-.8189v.5315c0 .3069-.2135.556-.4753.556h-1.4006c-.1915 0-.3637-.135-.4388-.342l-.1454-.4092h-.7928l-.1406.4035c-.0713.2102-.2462.3483-.4388.3483h-.8056c-.3064 0-.8546-.0647-1.2456-.448-.0446.2535-.227.448-.4571.448h-.7028c-.0777 0-.1491-.0276-.215-.0672-.065.0396-.1352.0672-.2136.0672h-.6941c-.2612 0-.4737-.2466-.4758-.5516l-.0026-.4249.001-.074c0-.0452.0011-.113-.0021-.1701-.0317-.0025-.0741-.0044-.1336-.0044h-.2624v.669c0 .3069-.2129.556-.4752.556h-.6888c-.089 0-.1668-.0364-.2387-.086-.0702.0496-.1491.086-.2382.086h-2.2981c-.097 0-.1813-.0426-.2564-.0998-.0756.0572-.1598.0998-.2564.0998h-.7054c-.2628 0-.47526-.2486-.47526-.5554v-.0138l-.09119.2385c-.07614.2014-.24567.3313-.43449.3313h-.60456c-.1878 0-.35835-.1299-.43402-.332zm18.99102 6.1273c-.0009 0-.002 0-.002 0h-1.3409c-.1964 0-.3643-.1399-.4373-.3382-.2612.2165-.6067.3382-1.0342.3382h-1.34c-.0756 0-.1432-.0244-.2065-.0603-.0627.0359-.1309.0603-.206.0603h-2.2959c-.0767 0-.147-.0244-.2103-.0627-.0638.037-.133.0627-.2092.0627h-.6904c-.2634 0-.4758-.2491-.4758-.556v-.4895c.0011-.0476.0011-.1205-.0021-.1801-.0317-.0025-.0763-.005-.1395-.005h-.2597v.6746c0 .3075-.2129.556-.4752.556h-.6915c-.2634 0-.4758-.2491-.4758-.556v-.856c-.2441.1701-.5809.2818-1.0455.2818h-.3825v.5742c0 .3075-.2129.556-.4758.556h-1.3373c-.1357 0-.2655-.0678-.3557-.1864l-.4983-.6564-.5252.6652c-.0901.1136-.2162.1789-.3486.1789h-2.72569c-.26284 0-.47527-.2498-.47527-.5567v-3.368c0-.3081.21297-.5566.47527-.5566h2.76689c.1357 0 .2639.0665.3536.1846l.4999.6507.5208-.6576c.0902-.1137.2162-.1777.3487-.1777h2.1984c.4817 0 .8207.1249 1.0615.3094.0778-.182.2345-.3094.4206-.3094h1.5889c.3659 0 .7199.0164 1.0519.2241.036.0244.0591.0564.0923.0828.0784-.1801.2334-.3069.419-.3069h2.2959c.1781 0 .3283.1199.4098.2899.2264-.1794.5268-.2899.9055-.2899h1.3786c.2076 0 .3782.1563.4442.3716.236-.2241.5584-.3716.9881-.3716h1.3797c.2624 0 .4748.2492.4748.5566v.7167c0 .1964-.0859.369-.2173.4681.0038.0051.0091.0107.014.0164.236.2836.3432.6338.3432 1.1044 0 1.0125-.5796 1.6178-1.5521 1.6178z"/><path d="m20.5148 16.783h2.2959v-.6984l-1.6114-.0037v-.6696h1.5718v-.6872h-1.5718v-.6131h1.6114v-.696h-2.2959z"/></g></svg>