<svg fill="none" height="24" viewBox="0 0 32 24" width="32" xmlns="http://www.w3.org/2000/svg"><g fill="#000"><path d="m19.7801 14.7819c0 .3789.3327.6193.8411.6193.647-.0093 1.1461-.4252 1.1461-1.0075v-.3419l-1.0722.0739c-.6008.0369-.915.2588-.915.6562z"/><path d="m28.5972.637695h-25.69443c-1.41708 0-2.569442 1.152365-2.569442 2.569445v17.98616c0 1.417 1.152362 2.5694 2.569442 2.5694h25.69443c1.4171 0 2.5695-1.1524 2.5695-2.5694v-17.98616c0-1.41708-1.1524-2.569445-2.5695-2.569445zm-19.69323 7.202565c.37027-.43394.99703-.75841 1.51393-.77895.066.60229-.1749 1.20631-.53408 1.64158-.35929.43441-.94833.77182-1.52498.72697-.07896-.58967.21235-1.20459.54513-1.5896zm2.94123 8.22314c-.4286.6256-.8733 1.2494-1.5728 1.262-.68953.013-.9105-.4074-1.69729-.4074-.78617 0-1.03161.3948-1.68354.4204-.67576.0254-1.19109-.6775-1.62229-1.3007-.8834-1.276-1.55775-3.6055-.65185-5.1784.44955-.781 1.25383-1.27568 2.12688-1.28783.66307-.01302 1.29037.44643 1.69553.44643.40626 0 1.16766-.55205 1.96786-.47168.3351.01412 1.2764.13519 1.8796 1.01958-.0484.0297-1.1228.6561-1.1104 1.9558.0142 1.5552 1.3644 2.0736 1.3795 2.0791-.0119.0364-.2159.7379-.7112 1.4627zm4.8937-2.0121h-1.3586v2.0056h-.915v-5.8783h2.3014c1.1368 0 1.941.7856 1.941 1.9317s-.8134 1.941-1.9688 1.941zm5.906 1.9964h-.841v-.7394h-.0185c-.2403.4806-.7948.7856-1.3956.7856-.8965.0092-1.5066-.5176-1.5066-1.3032 0-.7764.6008-1.22 1.6914-1.2939l1.1924-.0648v-.342c0-.5083-.3421-.7856-.9243-.7856-.4807 0-.8319.2496-.9058.6285h-.8226c.0277-.7856.7671-1.3587 1.7561-1.3587 1.0814 0 1.7745.5731 1.7745 1.4419zm3.0132.2033c-.379 1.0629-.7949 1.4049-1.7007 1.4049-.0647.0092-.2772-.0093-.3512-.0185v-.7209c.0647.0184.2033.0184.2773.0184.4159 0 .6562-.1755.8041-.6469l.0647-.2311-1.6083-4.4364h.9521l1.1368 3.6138h.0185l1.1368-3.6138h.9243z"/></g></svg>