<svg fill="none" height="24" viewBox="0 0 32 24" width="32" xmlns="http://www.w3.org/2000/svg"><g fill="#000"><path d="m28.7639.637695h-25.69446c-1.41708 0-2.56944 1.152365-2.56944 2.569445v17.98616c0 1.417 1.15236 2.5694 2.56944 2.5694h25.69446c1.4171 0 2.5694-1.1524 2.5694-2.5694v-17.98616c0-1.41708-1.1523-2.569445-2.5694-2.569445zm-10.2778 17.986105h-5.1389c-3.54763 0-6.42359-2.876-6.42359-6.4236 0-3.54765 2.87596-6.42362 6.42359-6.42362h5.1389c3.5477 0 6.4236 2.87597 6.4236 6.42362 0 3.5476-2.8759 6.4236-6.4236 6.4236z"/><path d="m13.3474 7.06152c-2.8338 0-5.1389 2.30512-5.1389 5.13888 0 2.8337 2.3051 5.1389 5.1389 5.1389s5.1389-2.3052 5.1389-5.1389c0-2.83376-2.3051-5.13888-5.1389-5.13888zm-3.85418 5.13888c0-1.905 1.39298-3.48106 3.21178-3.78923v7.57843c-1.8188-.3082-3.21178-1.8842-3.21178-3.7892zm4.49648 3.7892v-7.57843c1.8188.30817 3.2119 1.88423 3.2119 3.78923s-1.3931 3.481-3.2119 3.7892z"/></g></svg>