<svg fill="none" height="24" viewBox="0 0 32 24" width="32" xmlns="http://www.w3.org/2000/svg"><g fill="#000"><path d="m29.0972.637695h-25.69441c-1.41709 0-2.569446 1.152365-2.569446 2.569445v17.98616c0 1.417 1.152356 2.5694 2.569446 2.5694h25.69441c1.4171 0 2.5695-1.1524 2.5695-2.5694v-17.98616c0-1.41708-1.1524-2.569445-2.5695-2.569445zm-20.15319 19.223805h-.41166v-1.0429c0-.3176-.13331-.494-.4116-.494-.27052 0-.45871.1725-.45871.4979v1.039h-.41167v-1.0429c0-.3176-.13723-.494-.40775-.494-.27837 0-.45872.1725-.45872.4979v1.039h-.41167v-1.8741h.40775v.2313c.15291-.2195.34894-.2783.54889-.2783.28621 0 .49009.1254.61947.3332.17251-.2627.41951-.3372.65859-.3332.4548.0039.73708.3018.73708.7449zm2.29749-.9371v.9371h-.4077v-.2275c-.1294.1686-.3254.2745-.592.2745-.52541 0-.93708-.4117-.93708-.9841s.41167-.984.93708-.984c.2666 0 .4626.1058.592.2744v-.2274h.4077zm1.2075.9841c-.3058 0-.5881-.0785-.8116-.2431l.1921-.3176c.1373.1059.3411.1961.6234.1961.2784 0 .4274-.0824.4274-.2275 0-.1058-.1059-.1646-.3294-.1959l-.1921-.0275c-.4195-.0588-.6468-.247-.6468-.5528 0-.3724.3057-.5998.7801-.5998.298 0 .5685.0666.7646.196l-.1765.3293c-.1137-.0705-.345-.1607-.5841-.1607-.2235 0-.3568.0823-.3568.2195 0 .1255.1411.1608.3175.1843l.1922.0275c.4077.0588.6547.2313.6547.5606 0 .3567-.3136.6116-.8547.6116zm2.1603 0c-.4822 0-.6508-.2588-.6508-.6939v-.8547h-.3803v-.3725h.3803v-.5685h.4116v.5685h.6665v.3725h-.6665v.8468c0 .1881.0667.3137.2706.3137.1057 0 .239-.0353.3607-.1059l.1175.349c-.1294.0901-.3332.145-.5096.145zm2.5797-.8273h-1.3918c.0588.3372.2979.4587.5606.4587.1882 0 .3882-.0705.545-.1959l.2.3018c-.2274.1921-.4862.2627-.7685.2627-.5607 0-.9606-.3881-.9606-.9841 0-.5841.3843-.984.9332-.984.5253 0 .886.3999.8899.984 0 .0549-.0039.1059-.0078.1568zm1.4898-.7057c-.0862-.0352-.1725-.047-.2548-.047-.2667 0-.4.1725-.4.4822v1.0508h-.4076v-1.8741h.4038v.2274c.1058-.1647.2588-.2744.4939-.2744.0823 0 .2.0156.2901.0509zm1.235 1.1487c.1764 0 .3372-.0587.4901-.1686l.196.3294c-.2039.1608-.3921.2235-.6743.2235-.6038 0-.9998-.4156-.9998-.9841s.396-.984.9998-.984c.2822 0 .4704.0627.6743.2234l-.196.3294c-.1529-.1098-.3137-.1686-.4901-.1686-.3254.0039-.5646.2391-.5646.5998s.2392.596.5646.5998zm2.8306-.5998v.9371h-.4077v-.2275c-.1294.1686-.3254.2745-.592.2745-.5253 0-.937-.4117-.937-.9841s.4117-.984.937-.984c.2666 0 .4626.1058.592.2744v-.2274h.4077zm1.5997-.5489c-.0863-.0352-.1726-.047-.255-.047-.2665 0-.3998.1725-.3998.4822v1.0508h-.4077v-1.8741h.4038v.2274c.1058-.1647.2588-.2744.494-.2744.0822 0 .1999.0156.2901.0509zm2.1837.5489v.9371h-.4078v-.2275c-.1293.1686-.3254.2745-.592.2745-.5253 0-.937-.4117-.937-.9841s.4117-.984.937-.984c.2666 0 .4627.1058.592.2744v-.9801h.4078zm-6.1024-2.2277c-1.6184 0-3.0821-.644-4.1754-1.6757-1.0933 1.0317-2.557 1.6757-4.1753 1.6757-3.36491 0-6.10247-2.7375-6.10247-6.1024 0-3.36488 2.73756-6.10244 6.10247-6.10244 1.6183 0 3.082.64401 4.1753 1.67569 1.0933-1.03168 2.557-1.67569 4.1754-1.67569 3.3648 0 6.1024 2.73756 6.1024 6.10244 0 3.3649-2.7376 6.1024-6.1024 6.1024z"/><path d="m16.2502 6.16797c-1.18 1.11347-1.9271 2.68024-1.9271 4.42673 0 1.7465.7471 3.3133 1.9271 4.4267 1.1799-1.1134 1.9271-2.6802 1.9271-4.4267 0-1.74649-.7472-3.31326-1.9271-4.42673z"/></g></svg>