<svg fill="none" height="21" viewBox="0 0 20 21" width="20" xmlns="http://www.w3.org/2000/svg"><g fill="#000"><path d="m13.4458 14.7158-3.0097-3.0096c-.11-.11-.2399-.13-.3099-.13s-.20001.02-.31.13l-3.01964 3.0196c-.33996.34-.86989.8899-2.63968.8899l3.70955 3.6996c.56244.5617 1.32484.8772 2.11975.8772.79492 0 1.55732-.3155 2.11972-.8772l3.7196-3.7096c-.9099 0-1.6698-.18-2.3797-.8899zm-6.64924-9.0489 3.01964 3.01964c.07999.07999.2.12999.31.12999s.2299-.05.3099-.12999l2.9897-2.98964c.7099-.73991 1.5198-.90989 2.4297-.90989l-3.7196-3.70956c-.5624-.561734-1.3248-.877255-2.1197-.877255-.79493 0-1.55734.315521-2.11977.877255l-3.70956 3.69956c1.75979 0 2.29973.57993 2.60969.88989z"/><path d="m19.1051 8.04682-2.2497-2.25973h-1.2599c-.5399 0-1.0799.21997-1.4498.60992l-2.9997 2.99965c-.2799.27996-.6499.41995-1.0198.41995-.38101-.00537-.74565-.15551-1.01993-.41995l-3.01964-3.02964c-.37995-.37996-.89989-.59993-1.44982-.59993h-1.46983l-2.289724 2.29973c-.561735.56243-.877256 1.32483-.877256 2.11978 0 .7949.315521 1.5573.877256 2.1197l2.289724 2.2997h1.47983c.53993 0 1.05987-.2199 1.44982-.5999l3.01964-3.0196c.27997-.28.64993-.42 1.01993-.42.3699 0 .7399.14 1.0198.42l3.0097 3.0096c.3799.38.8999.5999 1.4498.5999h1.2598l2.2498-2.2597c.5641-.5726.8786-1.3451.8749-2.1489-.0038-.80371-.3255-1.57331-.8949-2.14058z"/></g></svg>