<svg fill="none" height="24" viewBox="0 0 31 24" width="31" xmlns="http://www.w3.org/2000/svg"><path d="m28.2639.637695h-25.69446c-1.41708 0-2.56944 1.152365-2.56944 2.569445v17.98616c0 1.417 1.15236 2.5694 2.56944 2.5694h25.69446c1.4171 0 2.5694-1.1524 2.5694-2.5694v-17.98616c0-1.41708-1.1523-2.569445-2.5694-2.569445zm-21.8377 9.122205c.01419-.07465.08453-.12915.16663-.12915h.00031l1.58959.00235c.00212 0 .00439.00008.00659.00008.23265.00871.55375.06093.65514.41242.00079.0025.00141.0051.00204.0079l.28205 1.2303c.01631.0714-.02321.1439-.09519.1743-.02258.0096-.04658.014-.07034.014-.05159 0-.10193-.0218-.13471-.0616-.53078-.6443-1.32354-1.155-2.2928-1.47684-.07748-.02572-.1235-.09911-.10931-.17376zm3.7441 5.0021-1.3645.0018h-.00015c-.0752 0-.1413-.0458-.1624-.1123l-1.18482-3.735c-.02054-.0649.00643-.1346.06681-.1727.06038-.0382.14051-.0362.1987.0051.85305.6049 1.46444 1.3672 1.69192 1.8544.00321.0065.0058.0133.00776.0202l.15503.5178 1.44135-3.39732c.0254-.05983.0879-.09927.1575-.09927l1.232-.00055h.0002c.0569 0 .11.02642.1413.07026.0313.04383.0366.09935.0141.14757l-2.2396 4.80551c-.0268.0573-.0877.0945-.1552.0945zm3.7002-.1244c-.0138.075-.0843.1299-.1668.1299h-1.1712c-.0498 0-.0971-.0202-.1293-.0554-.032-.0351-.0457-.0816-.0374-.127l.8892-4.81524c.0138-.07497.0843-.12986.1667-.12986h1.172c.0499 0 .0972.02031.1293.05544.0322.03505.0458.08155.0375.12687zm3.9531-2.9185c.8385.35 1.2285.7766 1.2227 1.3407-.011 1.0259-1.0088 1.689-2.5422 1.6892h-.0019c-.5348-.0053-1.0925-.0857-1.4919-.2149-.078-.0252-.1248-.0987-.1108-.1738l.1451-.7822c.0087-.0469.04-.0875.0852-.1104.045-.0229.099-.0258.1466-.0075.4533.174.7738.2567 1.3684.2567.4178 0 .8692-.1509.8732-.4825.0026-.2166-.1883-.3713-.7564-.613-.5539-.2366-1.2887-.6331-1.2796-1.3439.0081-.9599 1.0231-1.63075 2.4684-1.63075.5099 0 .917.08853 1.1687.16278.0802.02376.1294.09825.1153.17494l-.1369.74283c-.0086.0462-.0391.0863-.0832.1095-.044.0232-.097.0269-.1444.0101-.2037-.0722-.5277-.1682-.9864-.1682-.0156 0-.0314.0002-.0446.0004-.5525 0-.84.2129-.84.4233-.003.2339.3115.3867.8247.6167zm6.5488 2.992c-.0321.0369-.0806.0584-.1318.0584h-1.0587c-.0795 0-.1483-.0511-.1653-.1228-.0353-.1485-.1207-.509-.1551-.645-.1169 0-.6049-.0007-1.0644-.0011h-.0225c-.3998-.0006-.7726-.0011-.8532-.0011-.0316.0748-.1273.3062-.2765.6694-.025.0606-.088.1007-.1583.1007h-1.214c-.0573 0-.1105-.0266-.1417-.0708-.0312-.0443-.0362-.1-.0131-.1485l2.1438-4.4798c.1425-.29814.3798-.42532.7935-.42532h1.0341c.0796 0 .1481.05089.1653.1224l1.1513 4.81222c.011.0462-.0013.0945-.0334.1313z" fill="#000"/></svg>